<svg xmlns="http://www.w3.org/2000/svg" viewBox="0 0 1313.96 1382.15"><defs><style>.cls-1{fill:#fdce1e;}.cls-2{fill:#032220;}.cls-3{fill:none;}</style></defs><title>warrior-l_1</title><g id="Layer_2" data-name="Layer 2"><g id="Layer_1-2" data-name="Layer 1"><path class="cls-1" d="M1076.48,641.69l.23.19v0ZM1133.14,742c-1.33-28.47-6.9-56.33-18.12-82.86-2.87-6.79-5.67-12.83-12-17.44a49.77,49.77,0,0,1-8.34-8.21c-1.78-2.09-3.51-4.24-5.32-6.27-2.68-3-5.16-6.2-7.72-9.31,2.54,9.12-2.68,16.24-4.93,23.94,7.21,4.77,13.25,10,11.55,20.18-.38,2.32,1.36,5.15,2.54,7.54,4.71,9.52,2.53,31.86-4.09,39.94a33.64,33.64,0,0,1-3.21,3.22c-4,3.68-8,7.35-11.79,10.85,8.5,13,9,17.8,3.18,25.27-8.31-1.84-12.44-8.75-17-14.76-13.57,3.42-21.51-3.09-25.52-13.39a56.92,56.92,0,0,1-2.2-6,20.06,20.06,0,0,0-10.12-13.14c-6.39-3.61-10.95-9.16-14.47-15.88-2.42-4.63-6.54-8.43-10.26-12.27-.91-.94-3.46-1.2-4.8-.64-4.79,2-8.94.41-13-1.73-10.62-5.59-19.87-12.73-25.3-23.06a70.82,70.82,0,0,1-16.45-4.42c-13.95-5.59-25.61-15.14-37.2-25.89.13,5.73,1.25,9.85,3.92,13.41a22.27,22.27,0,0,0,3.44,3.61c13,11.08,20.44,25.76,21.31,42.71a37.66,37.66,0,0,0,1,6.88A30.44,30.44,0,0,0,936,698.45c19.71,21,39.25,42.13,59.49,62.59a79.1,79.1,0,0,0,35.88,20.61c16.49,4.46,32.41,3.9,46.59-7.22,1.07-.84,2.27-1.5,3.42-2.24a7.84,7.84,0,0,1-2.74,4.7c-12.19,10.36-26.31,13.13-41.68,10a84,84,0,0,1-42.23-21.8q-21.62-20.8-42.37-42.49c-7.76-8.06-14.77-16.84-22.16-25.26a30.26,30.26,0,0,0-3.1-2.66c-1.47,5.14-2.25,9.7-4,13.8-4.48,10.23-9.12,20.42-14.28,30.31-3.42,6.54-3.87,12.7-.19,19,9.05,15.42,18.57,30.53,30.6,43.88,19.81,22,43.13,38.47,71.07,49,18.48,7,36.94,11.82,56.62,9.23,22-2.89,39.4-13.69,50.21-33.3a128.49,128.49,0,0,0,14.13-42h0A206.14,206.14,0,0,0,1133.14,742ZM1097,827.37c-6,6.74-15.93,11.85-25,12.59-.55-2.77-1.06-5.63-1.68-8.48-.56-2.6-1.23-5.18-1.93-8.07,2.85-1.43,5.25-2.62,7.63-3.83,8.8-4.47,9.1-5.38,4.42-15l-20.13,11.08c1.22,9.28,2.48,19,3.91,29.9-11-1.1-20.6-1.73-30-3.07-12.47-1.77-14-4.59-10.84-18.93,4.87.83,9.84,1.54,14.74,2.53,7.67,1.56,8.78.85,9.11-6.47.37-8.1-.32-8.84-8.68-10.32-6.18-1.09-12.33-2.38-19.75-3.83-1.59,9.4-3.08,18.15-4.75,28-4.06-.92-8-.84-10.7-2.58-10.19-6.47-20.11-13.4-29.85-20.53-1.48-1.08-2.41-4.35-2-6.27.79-3.71,2.71-7.17,4.38-11.27,9.44,3.36,13.66,12.69,22.59,16.71,1.26-3.63,2.31-6.62,3.23-9.25l-31.29-24.66-10.9,23.53c-3.86-2.55-7.34-4-9.57-6.52-5-5.66-9.48-11.76-13.92-17.87-5.14-7.08-10-14.36-15.64-22.51l5.88-10c7.28,2.23,9.37,8.79,13.29,13.44s7.25,9.45,11.54,15.13c2.2-3.85,3.63-6.37,5-8.73l-27.66-38-17.76,21.05c.66-6.18,6.84-15.11,16.25-24.53,6,3,23.75,24.68,33.8,41.23-2.27,4.16-4.69,8.57-7.4,13.54-12.56-6-15.67-19.59-25.44-27.93l-4.12,5.26c13.68,12.08,18.55,30.88,34.49,41.48,5-8.61,6.13-19,12.66-26.47,1.1.43,1.93.49,2.12.87,5.54,11.16,15.26,17.77,25.61,23.69,8.09,4.63,8.13,4.61,5.48,13.3-.94,3.08-2,6.11-3.18,9.55-10.22-3.37-15.61-11.53-23.14-17.71-1.43,3.16-2.65,5.83-4.19,9.22,12,7.54,21.64,18.43,37,22.22.73-3.3,1.52-6.4,2.08-9.53.41-2.38.35-4.84.8-7.21,2.07-10.81,2.84-11.16,13.76-8.81,5,1.07,10.19,1.38,15.25,2.28,7.18,1.27,9.22,3.78,9.35,11,0,1.82,0,3.64-.14,5.45-.59,7.7-4.52,10.74-12.17,9.25-4.09-.79-8.12-1.91-12.2-2.89-1.75,4.42-1.41,7.73,3.26,8.92,9.08,2.3,18.27,3.71,28.45,2.61-1-9.24-2-18-2.85-26l26.29-16.22c1.47,4,2.68,7.62,4.18,11.16,2.48,5.86,2.42,6.69-2.84,10.39-3.19,2.25-6.66,4.12-10.42,6.41.77,3.75,1.53,7.49,2.45,12,5.07-3.13,9.77-5.84,14.23-8.9,2.21-1.52,4-3.67,6-5.56-1.7-9.63-8.71-17.49-6.93-27.9,1.06,2.36,2.16,4.7,3.17,7.08,1.88,4.45,3.46,9,5.62,13.36C1101.1,822.35,1101.24,822.62,1097,827.37Zm22.54-54.62c-1.24,14.52-7.08,27.33-15.37,40.3-4.19-5.88-7.05-11.28-4.44-18.26,1.91-5.09,3.58-10.28,5.6-15.33,2.56-6.42,3-12.38-3.38-17.83-3.43,10.75-4.88,22.54-15.07,30.08,2.4-5.64,5.13-11.16,7.11-17s3.11-11.57,4.63-17.41c11.24,3.83,14.58,9.46,11.52,19.58-1.83,6.07-4.13,12-6.5,17.88-1.31,3.24-2.41,6.22,1.18,10.14,7.39-11.62,9.89-24.3,11.53-37.27l2.06,0C1118.81,769.4,1119.68,771.12,1119.54,772.75Zm.8-25.76c0,2.71-1.89,5.37-3.11,8.6-7.41-3.53-10.45-8.46-10-15.43.54-8.14,1.49-16.25,2-24.38.27-4.27,0-4.29-4-8.65-.4,11.75.52,23.46-5.83,33.9.61-13.33,1.23-26.66,1.86-40.6,5.16,1.46,8.72,3.86,9.77,9.32a17.52,17.52,0,0,0,1.92,4.31.76.76,0,0,1,0-.26c.39-9-.73-17.33-9.89-22.08-.72-.37-1.18-1.24-1.9-2,7.8.7,12.48,5.1,13.54,11.67,1.33,8.34,3.49,16.55,4.6,24.91A136.77,136.77,0,0,1,1120.34,747Z"/><path class="cls-2" d="M1119.36,726.26c-1.11-8.36-3.27-16.57-4.6-24.91-1.06-6.57-5.74-11-13.54-11.67.72.8,1.18,1.67,1.9,2,9.16,4.75,10.28,13.06,9.89,22.08a.76.76,0,0,0,0,.26,17.52,17.52,0,0,1-1.92-4.31c-1-5.46-4.61-7.86-9.77-9.32-.63,13.94-1.25,27.27-1.86,40.6,6.35-10.44,5.43-22.15,5.83-33.9,4,4.36,4.22,4.38,4,8.65-.51,8.13-1.46,16.24-2,24.38-.47,7,2.57,11.9,10,15.43,1.22-3.23,3.06-5.89,3.11-8.6A136.77,136.77,0,0,0,1119.36,726.26Zm-3.12,23.8c-4.85-2.56-5.58-6-5.09-10.43.89-8.14,1.4-16.32,2-24.49,0-.15-.1-.29-.15-.44l.2-.16c0,.2,0,.4,0,.6C1117.13,726.21,1116.77,737.66,1116.24,750.06Z"/><path class="cls-2" d="M1119.54,772.75c-1.24,14.52-7.08,27.33-15.37,40.3-4.19-5.88-7.05-11.28-4.44-18.26,1.91-5.09,3.58-10.28,5.6-15.33,2.56-6.42,3-12.38-3.38-17.83-3.43,10.75-4.88,22.54-15.07,30.08,2.4-5.64,5.13-11.16,7.11-17s3.11-11.57,4.63-17.41c11.24,3.83,14.58,9.46,11.52,19.58-1.83,6.07-4.13,12-6.5,17.88-1.31,3.24-2.41,6.22,1.18,10.14,7.39-11.62,9.89-24.3,11.53-37.27l2.06,0C1118.81,769.4,1119.68,771.12,1119.54,772.75Z"/><path class="cls-2" d="M1097,827.37c-6,6.74-15.93,11.85-25,12.59-.55-2.77-1.06-5.63-1.68-8.48-.56-2.6-1.23-5.18-1.93-8.07,2.85-1.43,5.25-2.62,7.63-3.83,8.8-4.47,9.1-5.38,4.42-15l-20.13,11.08c1.22,9.28,2.48,19,3.91,29.9-11-1.1-20.6-1.73-30-3.07-12.47-1.77-14-4.59-10.84-18.93,4.87.83,9.84,1.54,14.74,2.53,7.67,1.56,8.78.85,9.11-6.47.37-8.1-.32-8.84-8.68-10.32-6.18-1.09-12.33-2.38-19.75-3.83-1.59,9.4-3.08,18.15-4.75,28-4.06-.92-8-.84-10.7-2.58-10.19-6.47-20.11-13.4-29.85-20.53-1.48-1.08-2.41-4.35-2-6.27.79-3.71,2.71-7.17,4.38-11.27,9.44,3.36,13.66,12.69,22.59,16.71,1.26-3.63,2.31-6.62,3.23-9.25l-31.29-24.66-10.9,23.53c-3.86-2.55-7.34-4-9.57-6.52-5-5.66-9.48-11.76-13.92-17.87-5.14-7.08-10-14.36-15.64-22.51l5.88-10c7.28,2.23,9.37,8.79,13.29,13.44s7.25,9.45,11.54,15.13c2.2-3.85,3.63-6.37,5-8.73l-27.66-38-17.76,21.05c.66-6.18,6.84-15.11,16.25-24.53,6,3,23.75,24.68,33.8,41.23-2.27,4.16-4.69,8.57-7.4,13.54-12.56-6-15.67-19.59-25.44-27.93l-4.12,5.26c13.68,12.08,18.55,30.88,34.49,41.48,5-8.61,6.13-19,12.66-26.47,1.1.43,1.93.49,2.12.87,5.54,11.16,15.26,17.77,25.61,23.69,8.09,4.63,8.13,4.61,5.48,13.3-.94,3.08-2,6.11-3.18,9.55-10.22-3.37-15.61-11.53-23.14-17.71-1.43,3.16-2.65,5.83-4.19,9.22,12,7.54,21.64,18.43,37,22.22.73-3.3,1.52-6.4,2.08-9.53.41-2.38.35-4.84.8-7.21,2.07-10.81,2.84-11.16,13.76-8.81,5,1.07,10.19,1.38,15.25,2.28,7.18,1.27,9.22,3.78,9.35,11,0,1.82,0,3.64-.14,5.45-.59,7.7-4.52,10.74-12.17,9.25-4.09-.79-8.12-1.91-12.2-2.89-1.75,4.42-1.41,7.73,3.26,8.92,9.08,2.3,18.27,3.71,28.45,2.61-1-9.24-2-18-2.85-26l26.29-16.22c1.47,4,2.68,7.62,4.18,11.16,2.48,5.86,2.42,6.69-2.84,10.39-3.19,2.25-6.66,4.12-10.42,6.41.77,3.75,1.53,7.49,2.45,12,5.07-3.13,9.77-5.84,14.23-8.9,2.21-1.52,4-3.67,6-5.56-1.7-9.63-8.71-17.49-6.93-27.9,1.06,2.36,2.16,4.7,3.17,7.08,1.88,4.45,3.46,9,5.62,13.36C1101.1,822.35,1101.24,822.62,1097,827.37Z"/><path class="cls-1" d="M598.48,470.57c3.39-9.67,8.55-16.67,6.76-25.93-1.12,1.94-2.58,3.75-3.29,5.83-7.83,22.78-23.17,40.2-40.09,56.51-5.89,5.68-12.13,11-17.86,16.84-7.94,8.08-11.75,17-10.39,29.3,3.08,28,.45,55.65-12.11,81.56-1.31,2.7-2.74,5.34-4.4,8.57-10.92-11.34-21.41-22.07-38.55-21.85-15.58.2-28.74,5.64-40.7,16.54-.61-2.25-1.14-3.33-1.16-4.41q-.49-25.92-.86-51.83c-.24-17.65,6.22-33.12,15.87-47.46,5.24-7.79,10.83-15.34,16.16-23.07,1.52-2.21,2.68-4.66,5-8.73l-7.12,3.44c-1.22-6.24-1-12.16,1.42-17.73,5.47-12.44,11.51-24.64,16.8-37.15,4.7-11.1,9.4-22.28,12.85-33.8a153,153,0,0,1,21.31-43.83c4.59-6.6,8.46-13.72,18.58-13.76,7.5,5.59,15.88,11.44,23.82,17.85a124.22,124.22,0,0,1,15,14.23c3.33,3.77,6,8.11,6,13.82a15.82,15.82,0,0,0,3.47,9,81.42,81.42,0,0,0,10.88,10.93c5.41,4.71,11.81,3.67,17.49,2.18C621.25,445.75,612.75,458.28,598.48,470.57Zm-66.81,2.18c10-.08,17.05-4.73,23.3-10.41,8.07-7.31,15.58-15.22,23.29-22.92a34.35,34.35,0,0,0,2.83-3.61l-1.34-1.33c-3.49,3.13-7.16,6.09-10.45,9.42-10.81,11-21.06,22.71-36.75,27.06C532.35,471,532.28,471.48,531.67,472.75Zm26.55-5.8c-12.45,7.64-19.31,20.05-27.5,31.41l1.79,1.43ZM523.5,546.71c.42-5.91.13-10.77,1.27-15.27s3.7-8.7,5.64-13C519.72,527.35,517.8,535.47,523.5,546.71Z"/><path class="cls-1" d="M960.56,928.63c-6.71-22.58-13.73-45.1-21.73-67.25-5.24-14.52-12.87-28-25.38-39.33-16.87,12.26-33.05,24.53-49.61,36.09q-4.2,2.93-8.42,5.78a185.75,185.75,0,0,1-32.78,17.35c-12.88,5.33-21,2-28.64-9.7-2.15-3.28-3.81-6.87-5.66-10.34-1.11-2.08-2.14-4.21-3.21-6.31a53.57,53.57,0,0,0-3.42,19.36c.34,10,7.53,16.4,14.54,22.08,9.86,8,20.28,15.36,30.78,22.51,31.64,21.57,24,14.79,41.67,45,4.92,8.44,4.44,15.05-.42,22.46-2.49,3.8-5.16,7.52-7.29,11.51-5.83,10.93-11.55,21.93-17,33-1.21,2.45-1.27,5.47-1.82,8,5.14,1.52,9.24,2.52,13.19,3.93,10.86,3.86,21.41,3.3,31.59-2,5.07-2.67,10.36-5.21,14.8-8.76,7.79-6.23,15.14-13,22.43-19.87,10.23-9.57,20.8-18.8,33.83-24.16,5-2,7.54-4.92,8.63-8.84a22.26,22.26,0,0,0,.7-5.84A152.75,152.75,0,0,0,960.56,928.63ZM844.82,909.72c8.17,3.78,16.6,16.5,18.52,29.87ZM865.37,907l1.8-.42q5.1,23.17,10.21,46.35C868.92,938.67,867.34,922.79,865.37,907Zm6,101.55-1.56-.9Q876.4,996.32,883,985C883.37,995.19,877.32,1001.85,871.33,1008.54Zm11.26-132.66c3.62,22.9,15.46,41.83,28.86,60C894.38,919.47,882.13,900.74,882.59,875.88Zm58.63,85.22c-2.85-10.78-4.69-22-8.83-32.23S921.72,909,916.25,899.09C932.06,916.71,943.26,936.32,941.22,961.1Z"/><path class="cls-2" d="M883,985c.33,10.21-5.72,16.87-11.71,23.56l-1.56-.9Q876.4,996.32,883,985Z"/><path class="cls-2" d="M877.38,952.92c-8.46-14.25-10-30.13-12-45.93l1.8-.42Q872.27,929.74,877.38,952.92Z"/><path class="cls-2" d="M863.34,939.59l-18.52-29.87C853,913.5,861.42,926.22,863.34,939.59Z"/><path class="cls-2" d="M911.45,935.89c-17.07-16.42-29.32-35.15-28.86-60C886.21,898.78,898.05,917.71,911.45,935.89Z"/><path class="cls-2" d="M941.22,961.1c-2.85-10.78-4.69-22-8.83-32.23S921.72,909,916.25,899.09C932.06,916.71,943.26,936.32,941.22,961.1Z"/><path class="cls-1" d="M568.86,507.34c8.35-9.89,16.48-19.87,26.72-28.13,7.2-5.8,13.29-13.14,19.19-20.36,5.53-6.75,8.72-14.6,4.92-23.48-1.75-4.08.55-7,2.22-10.1,4.26-8,8.59-15.9,12.89-23.84l-.17.23c6.49,1.3,12.94,3,19.5,3.83,14.81,1.83,26.41,8.13,33.26,21.94,3.72,7.51,10,11.87,18,14.2,7.8,2.27,15.49,4.92,24.14,7.7,4.82-2.13,6-7.59,8-13.62,1.55,2.75,3.1,4.84,4,7.17,4.29,11.62,8.68,23.21,12.46,35,2.45,7.62,1.23,9.53-5.17,14.52-9.78,7.62-19.33,15.54-29.19,23.06-2.53,1.93-5.83,2.87-8.8,4.2-4.9,2.21-10.48,3.52-14.63,6.69-15.39,11.77-30.45,24-45.35,36.37-5.53,4.59-10.67,7.72-18.49,6.33-16.64-3-33.49-4.75-50.18-7.5-9.25-1.53-17-6.9-23.34-13.35-6.13-6.23-7.15-15.08-7.44-23.6,0-1.47,1.44-3.31,2.7-4.45,4.92-4.44,10-8.66,15.08-13,.15,19.64,3.33,34.84,8.68,40.14-1.92-12.23-3.69-24.08-5.75-35.89C571.73,509.92,569.94,508.7,568.86,507.34ZM701,502.21c-8.77-1.54-17.61-2.77-26.3-4.68a54.69,54.69,0,0,1-23.54-11.1q-10.14-8.42-20.26-16.85C649.63,495.81,672.28,505.76,701,502.21Z"/><path class="cls-1" d="M457.77,1060.94c-5.08-5.27-9.8-9.94-14.25-14.85-3.85-4.26-8.65-6.2-14.09-7.6a186.84,186.84,0,0,1-20.49-6.65c-7.29-2.81-14.34-6.2-22.28-9.68,2.24-2.21,4.72-5,7.58-7.42,15.52-12.9,25.88-29.19,33.58-47.74,12.17-29.31,25-58.35,38-87.28,4.07-9,9.78-17.3,15.16-26.65,4.77,2.33,9.19,3.7,12.69,6.31,25.9,19.31,55.14,32.61,83.74,47.07,8,4,12.75,4.78,22.89,3.94L565.6,940l-1.71-1.12,6.21-13.29c-4.83,1.51-6,4.74-7.44,7.37-6.35,11.34-12.47,22.81-18.79,34.17-6.63,11.92-13.64,23.6-24.07,32.74-2.28,2-4.33,4.46-6.95,5.81-9.1,4.7-14.29,12.72-19.11,21.2C485.44,1041.46,473.69,1052.44,457.77,1060.94Zm6.07-122.87-1.38-.72c-.93,2.07-2,4.09-2.76,6.22-3.74,10.35-5.17,21.14-5.58,32-.55,14.86-1.75,29.57-6.94,43.68-.33.88.14,2.06.43,5.25,6-10,7.77-19.08,8.77-28.32,1.37-12.62,2.21-25.3,3.7-37.91C460.88,951.52,462.56,944.82,463.84,938.07ZM487,952.62c11-3.17,18.92-11,27-18.22,16.6-14.91,19.52-19.06,20-27.47C521.47,926.67,503.34,938.62,487,952.62Zm57.37-25.68-2-.93c-9,16.65-19.76,32.44-22.61,52Q532.08,952.48,544.35,926.94Z"/><path class="cls-1" d="M951.23,555.37C946.72,549,942,542.7,937.1,536.56c-1.07-1.35-3.13-1.91-5.05-3-1.33,5.94.4,11.58-3.42,18.22-1.44-13.82-1.34-25.93-4.27-37.26-3-11.57-8.49-22.6-13.78-33.43s-11.65-21-20.66-29.88a61.51,61.51,0,0,1-4.1,5.6c-4.36,4.67-8.16,4.66-12.08-.38-2-2.59-3.2-5.79-4.82-8.69-2.75-4.92-5.54-9.81-8.95-15.81L788.24,490.7c11.74,21.73,13.23,44.82,18.39,67.3,4.69-4.09,9.24-7.64,13.25-11.71a12.56,12.56,0,0,0,3.39-7c1.16-11.91,1.88-23.87,2.77-36-5.72,3.64-11.52,7.29-20.9,6.5,3.46-1.9,5.1-3.27,7-3.75,9.5-2.44,15.55-9,20.46-16.89,3.19-5.13,6-10.52,9.07-15.71a21.9,21.9,0,0,1,3.05-3.36,37,37,0,0,1-7.29,18.32c-5.91,7.6-6.86,16.28-8.17,25.33-2.07,14.24,4,24.53,13.17,33.47.76.74,1.55,1.48,2.35,2.2,10.55,9.54,21.71,18.43,32.11,28.13a44.88,44.88,0,0,1,10,13.75A90.56,90.56,0,0,0,904,616.78c9.68,10,20.7,17.93,34.13,23a92.37,92.37,0,0,0,11.91,3.57c-4.32-23.9,3.66-42.26,19.7-57.77,1.62-1.57,3-3.42,4.63-5.33C963.68,574,957.66,564.52,951.23,555.37Zm-86-26.47c5.95,1.83,6.62,6.17,9,8.88s4.54,5.69,7,8.37c2.65,2.9,5.41,5.72,8.32,8.36,4.33,3.92,4.4,3.84,5.92,8.36C882.34,554.31,872.45,544,865.19,528.9Zm29.06-12.31c-16.27-11.5-35.64-19.44-45.54-40.84,2.17,1,3.19,1.08,3.48,1.6,6.17,10.95,16.16,17.72,26.25,24.45,6,4,11.7,8.29,17.54,12.46Z"/><path class="cls-2" d="M896,514.26l-1.73,2.33c-16.27-11.5-35.64-19.44-45.54-40.84,2.17,1,3.19,1.08,3.48,1.6,6.17,10.95,16.16,17.72,26.25,24.45C884.4,505.78,890.14,510.09,896,514.26Z"/><path class="cls-2" d="M895.38,562.87c-13-8.56-22.93-18.88-30.19-34,5.95,1.83,6.62,6.17,9,8.88s4.54,5.69,7,8.37c2.65,2.9,5.41,5.72,8.32,8.36C893.79,558.43,893.86,558.35,895.38,562.87Z"/><path class="cls-1" d="M1073.93,604.45c-.8-1.29-1.65-2.53-2.45-3.81-12.08-19.18-20.76-39.57-22.76-62.45-.82-9.31-2.32-18.21-8.62-26.11-17.81-22.33-37-43.36-58.63-62a99,99,0,0,0-24.23-15.73c-13.51-5.92-27.8-10.11-41.82-14.82a26.33,26.33,0,0,0-6.5-.94c-2.28,3-4.3,5.55-6.16,7.95l-.08.1c-1.83,2.36-3.5,4.55-5.12,6.77a88.17,88.17,0,0,0-4.75,7.66,8.86,8.86,0,0,0-1.38,4.3c0,2.1,1,4.08,2.93,6.2C912.51,471.09,924,494.2,930,519.91l.24,1c1.24,5.36,3.19,9.06,7.71,12.35,4.3,3.13,7.77,7.6,11.07,11.9,4.6,6,8.51,12.52,13.06,18.56,4.18,5.55,9.08,10.42,17.56,13.33a33.6,33.6,0,0,1,2.65-4.34,51.32,51.32,0,0,0,10.42-21.91c1.21-5.36,2.88-10.54,7.73-14,3.33-2.35,6.67-3.05,9.89-.08,4.73,4.37,9,9.18,9.87,15.87,1.81,14.24.26,27.83-8.78,39.72-2.17,2.86-4.26,5.77-6.47,8.78,7.61,6.37,17.46,10.64,18.69,22.66l30.64-2c1-2.58,2.19-6,3.57-9.29,4.1-9.85,6.65-11,16.12-7.22C1074,605,1074.06,604.66,1073.93,604.45ZM984.87,488.18c-6.7-6.57-13.23-13.3-22.16-17a6.7,6.7,0,0,1-3.3-3.9c-1.23-4.24-1.93-8.64-3-13.85,8.8.59,14,5.95,20.42,9.74-4.49-7.49-19.64-18-30.06-21.16,2,6.82,4.16,13.61,5.93,20.5.28,1.1-1.12,2.63-2,4.47l-11.41-7.45.59-1.53,9,2.48L940,437c6.46,1.17,12.69,2.45,18.14,6.06,6.3,4.18,12.44,8.58,18.65,12.89,5.25,3.64,7.92,8.15,4.62,14.93l-20.12-13.83c-.46,7.4,3,10.77,8.57,13.73,8,4.25,14.19,11,18.79,19.42C987.37,489.56,985.86,489.15,984.87,488.18Zm43.86,39.36c-7.88-8-10.08-19.78-19.7-26.32-.71,2.17-1.31,4-1.9,5.8l-1,0v-9.92c4-1.64,5.82,2.42,8.78,3.26-3.67-9.19-9.53-16.74-18.65-23.69V492.1l-1.6.15c-1.27-6.32-2.54-12.65-3.84-19.14,4.09-2.08,6.92-.29,9.29,2a131.32,131.32,0,0,1,11.25,11.75c6.3,7.69,12.35,15.59,18.3,23.55,2.13,2.84,3.68,6.13,5.61,9.41Z"/><path class="cls-2" d="M988.64,490.23c-1.27-.67-2.78-1.08-3.77-2.05-6.7-6.57-13.23-13.3-22.16-17a6.7,6.7,0,0,1-3.3-3.9c-1.23-4.24-1.93-8.64-3-13.85,8.8.59,14,5.95,20.42,9.74-4.49-7.49-19.64-18-30.06-21.16,2,6.82,4.16,13.61,5.93,20.5.28,1.1-1.12,2.63-2,4.47l-11.41-7.45.59-1.53,9,2.48L940,437c6.46,1.17,12.69,2.45,18.14,6.06,6.3,4.18,12.44,8.58,18.65,12.89,5.25,3.64,7.92,8.15,4.62,14.93l-20.12-13.83c-.46,7.4,3,10.77,8.57,13.73C977.9,475.06,984,481.78,988.64,490.23Z"/><path class="cls-2" d="M1035.29,519.79l-6.56,7.75c-7.88-8-10.08-19.78-19.7-26.32-.71,2.17-1.31,4-1.9,5.8l-1,0v-9.92c4-1.64,5.82,2.42,8.78,3.26-3.67-9.19-9.53-16.74-18.65-23.69V492.1l-1.6.15c-1.27-6.32-2.54-12.65-3.84-19.14,4.09-2.08,6.92-.29,9.29,2a131.32,131.32,0,0,1,11.25,11.75c6.3,7.69,12.35,15.59,18.3,23.55C1031.81,513.22,1033.36,516.51,1035.29,519.79Z"/><path class="cls-1" d="M447.09,1085.91c-2.5,2.57-4.94,5.19-7.51,7.69-2.83,2.74-6.38,4.94-8.55,8.11-9.45,13.83-24,17.52-39.06,20.27a150.89,150.89,0,0,1-19.82,2c-3.76.19-6,1.65-8,4.78-18.31,28.17-36.8,56.22-55.2,84.34a187.77,187.77,0,0,0-12.35,21.18c1.7-1.43,3.72-2.61,5-4.33,3.48-4.56,6.8-9.27,9.94-14.08q27.36-41.81,54.62-83.68c1-1.5,2.23-2.84,2.94-3.74,8.66-.83,16.84-1.09,24.79-2.54,7.65-1.39,15.06-4,23.43-6.34-.69,2.52-.84,5-1.95,6.79-7.6,12.58-13.85,26.45-29.15,32.27-1.24,14.73-12.35,21.76-23.26,28.59-3.22,2-5.74,3.71-7.29,7.36a63,63,0,0,1-24,28.9,13.89,13.89,0,0,0-5.19,5.76c-4.61,11.15-11,14.25-22.53,10.44a14.94,14.94,0,0,0-2.67-.34c4.86,6.6,7.4,7.47,16.94,6-3.56,5.86-4.83,6.7-10,5.35-2.87-.75-6-1.69-8.26-3.46-7.8-6.1-16.76-9.55-26-12.46a57.27,57.27,0,0,1-7.58-3c-11.21-5.31-12.09-11.49-3-20.4.17,10.22,6.7,17.2,17.9,16.23a27.9,27.9,0,0,1-16.54-15.18c-.22-.45-1-.62-1.51-.92,4-3.32,7.9-5.41,13.79-4.94,3.86.31,8.44-2.87,12-5.47a34.17,34.17,0,0,0,12.38-17.62c4.66-15.28,13.48-27.4,25.25-38a49,49,0,0,0,16.72-35.18c.57-12.68-1.88-24.27-14.92-32l17.75-20c.27,4.17.43,6.38.55,8.58.58,11.17.92,22.35,1.84,33.49a37.61,37.61,0,0,0,3.17,12.18c3.79,8.34,2.71,15.87-2.41,23.12-4.89,6.92-10.12,13.63-14.63,20.8q-15,23.82-29.32,48c-5.71,9.7-11.54,19.21-19.66,27.12a3.93,3.93,0,0,0-1,3.58,32.92,32.92,0,0,0,4.11-2.51c8.56-7.09,14.7-16.12,19.71-25.86,11.68-22.69,25.76-43.83,40.73-64.43a81,81,0,0,0,6.7-10.78,19.67,19.67,0,0,0,.66-16.69c-8.36-21.67-7-44-3.47-66.25.45-2.94,3.16-5.53,4.82-8.28-7.75,21.21-6.83,42.74-2.17,64.34,1.08,5,2.62,10.08,9.31,12.36,1.83-1.78,4.24-3.58,5.94-5.89,5.18-7.08,10.31-14.21,15-21.61,2.05-3.24,4.16-7.21,4.16-10.84,0-9.92-1.12-19.85-1.8-29.78-1.68,8.23-1.79,16.35-1.64,24.48.1,5.32-1,10.22-4,14.6-4.85,6.93-9.74,13.83-14.56,20.77-1,1.49-1.81,3.15-3.58,6.29-2.31-5-3.87-7.28-4.43-9.79-4.91-21.7-5.26-43.43,1.53-65.32l-3.94.62c8.21-13.17,23.47-15,35.05-11.28a88.64,88.64,0,0,1,12.46,5.43c7.59,3.79,15.06,7.72,23.82,8.24,2.34.14,5.25.75,6.79,2.27,7.3,7.2,14.26,14.75,21.22,22.29.65.71.41,2.24.81,4.92-5.41-6.17-10-11.1-14.26-16.34-5-6.22-11.3-9.35-19.24-10.76-6.7-1.19-13.05-4.4-19.54-6.76-5.1-1.85-10.06-4.23-15.29-5.5-3.21-.77-6.82.11-10.35,1.84l10.82,2.47c.73,7.55,1.49,15,2.15,22.48.65,7.31-1.72,15,2.12,22.3,13.81-10.26,26.2-22.78,29.11-30-6,3-9.27,7.81-13.53,11.24s-8.29,6.85-12.82,10.61c-.91-12.23-1.78-23.77-2.68-35.85,6.26,2.91,12.81,6.55,19.78,9,6.68,2.37,13.78,3.51,22.7,5.68l-32.13,29.93c7.73,2.61,14.31-1,21-.73s13.45-.3,19.65-3.72c-9.19-2.61-18.32,1.4-28.72-.66L438.19,1057c7.35,6.87,14.14,12.89,17.76,23l-9.1,6.11,1.25-3.45c-7.21,1.1-13.68,2.48-20.22,3s-13.28.13-19.92,0c-5.86-.08-10.53,2.37-14.3,6.61-5.63,6.31-11.22,12.66-16.61,19.17-1.82,2.2-3,4.94-4.58,7.65,15,4,36.48-.58,42.66-9.27C403,1113.32,391.68,1118,378,1116c6.16-7.1,11.69-13,16.67-19.36,3.7-4.7,8.09-7,14-6.66C421.69,1090.71,434.58,1090.09,447.09,1085.91Z"/><path class="cls-1" d="M970.23,989.86c-.71-.22-1.34-.45-1.89-.63a3.52,3.52,0,0,0-2.43-.29c-5.47,2.53-11.32,4.76-16,8.41-11.2,8.72-22,18-32.64,27.38-9.83,8.62-19.82,16.87-32.22,21.64-8.4,3.24-16.85,4.87-25.69,1.86-3.43-1.17-6.88-2.29-10.36-3.25-5-1.38-7.93-1.31-10.44.93a18.66,18.66,0,0,0-3.57,4.85c-1.93,3.41-3.91,6.82-5.5,10.4-8.68,19.59-12.14,40.43-14.51,61.52-1.81,16.23-3.47,32.48-5.21,48.72-1.26,11.72-2.87,23.42-3.66,35.17-.34,5-1.11,9.34-3.85,13.62-3.24,5.06-6.27,10.35-5.76,16.88.06.78.13,1.47.22,2.1.68,4.76,2.41,5.53,8.34,4.83,6.88-.8,13.8-1.34,20.71-1.91,8.44-.69,17-.82,25.33-2.06,6.81-1,13.49-3.1,20.12-5.07,4.19-1.25,6.46-3.82,7.11-8.09,0,0,0,0,0-.08a16.13,16.13,0,0,0,.17-1.92,125.23,125.23,0,0,1,2.8-20.63c3-14.46,10.35-27,17.48-39.7,2.06-3.66,3.67-7.56,5.48-11.35.74-2.84,1.18-5.81,2.28-8.5,6.16-15,12.54-30,18.68-45.07a43.66,43.66,0,0,0,2.12-8.75c1-5.76-1-9.77-6.53-12.34-9.34-4.32-15.38-11.83-19.14-21.35,8.2,7.22,14,17.4,25.83,19.81l.07,0-.21-.19,0,0c-5.22-4.83-10.56-9.53-15.57-14.58a17.94,17.94,0,0,1-5.77-11c9.15,8.88,14.89,19.19,26.59,21.57,3.93-8.55,7.59-16.47,11.21-24.41,2.79-6.11,2.32-9-2.64-13.75-3.48-3.35-7.2-6.45-10.5-9.38-10,7.66-19.61,15.53-29.75,22.63a55.07,55.07,0,0,1-44.92,8.94c-4.88-1.07-10.29-1.66-15.31-7.39,5.35,1.22,8.78,2.19,12.28,2.77,8.61,1.44,17,3.4,26,1,8.63-2.34,16.74-5.59,23.68-11,11-8.57,21.59-17.57,32.08-26.71,9.37-8.17,18.49-16.57,30.42-21,1.62-.6,3-1.81,5.27-3.39.36-.26.74-.52,1.15-.79C971.09,990.12,970.65,990,970.23,989.86ZM839.58,1058.1a25.67,25.67,0,0,1-.51,4.42c-3.9,13.3-8.12,26.51-11.74,39.89-1.73,6.36-2.31,13-3.49,19.55-.57,3.16-1.32,6.29-2,9.43C820.05,1105.1,828,1081.22,839.58,1058.1ZM808,1220.42l40.54-4.92h-17c0-.53-.06-1.06-.08-1.58l30.6-5.7c.23.41.47.82.7,1.24l-6.47,4.2,6.67.46C852.87,1221.21,825.7,1224.61,808,1220.42ZM844.15,1144c.9-7.45,2.17-14.85,3.45-23.5a45.81,45.81,0,0,0,4.53,3.63,91.2,91.2,0,0,0,10.11,5.44c6.15,2.6,7.77,5.73,5.39,12-1.72,4.5-3.63,8.94-5.54,13.37-1.73,4-4.58,6.31-9.22,5.6l.23.18C844,1156.18,842.89,1154.36,844.15,1144Zm5.35,16.43c1.21,0,2.41.17,3.62.25,5.85,4.49,12.53,8.33,13.69,17,.68-6.4,1.55-12.79,2-19.21s2.92-11.55,6.64-16.52a204.18,204.18,0,0,0,11.75-17.17,31,31,0,0,0,3.65-10.15c2.4-12.78-3.55-20.6-16.37-22-8.39-.92-11.66,2.14-12.06,12.32a36.11,36.11,0,0,0,2.41-2.75c4.21-6.27,7.89-7.78,13.43-5.49,6.27,2.6,10.2,9.21,9,15.19-2.25,11.41-17.17,18.39-27.25,12.45-8.49-5-12.9-12.88-12.59-22.65s6-16.33,14.56-20.26c14.39-6.57,31.43-.78,40.08,13.5,7.4,12.21,7.71,24.78.31,36.95A120.38,120.38,0,0,1,889.06,1149a44.15,44.15,0,0,0-11,21.42c-2.12,10.76-5.62,21.06-14.73,28.36-11.81,9.47-29.77,5.4-35.12-8C822.06,1175.36,832.93,1159.88,849.5,1160.46Z"/><path class="cls-2" d="M839.58,1058.1a25.67,25.67,0,0,1-.51,4.42c-3.9,13.3-8.12,26.51-11.74,39.89-1.73,6.36-2.31,13-3.49,19.55-.57,3.16-1.32,6.29-2,9.43C820.05,1105.1,828,1081.22,839.58,1058.1Z"/><path class="cls-2" d="M863,1214.12c-10.13,7.09-37.3,10.49-55,6.3l40.54-4.92h-17c0-.53-.06-1.06-.08-1.58l30.6-5.7c.23.41.47.82.7,1.24l-6.47,4.2Z"/><path class="cls-2" d="M862.24,1129.6a91.2,91.2,0,0,1-10.11-5.44,45.81,45.81,0,0,1-4.53-3.63c-1.28,8.65-2.55,16-3.45,23.5-1.26,10.33-.17,12.15,9,16.67l-.23-.18c4.64.71,7.49-1.58,9.22-5.6,1.91-4.43,3.82-8.87,5.54-13.37C870,1135.33,868.39,1132.2,862.24,1129.6Zm-5.36,27.27-9.41-3.42c.87-8.19,1.74-16.32,2.68-25l15.59,7.45C862.61,1143.31,859.84,1149.86,856.88,1156.87Z"/><path class="cls-2" d="M902.07,1094.91c-8.65-14.28-25.69-20.07-40.08-13.5-8.6,3.93-14.25,10.58-14.56,20.26s4.1,17.65,12.59,22.65c10.08,5.94,25-1,27.25-12.45,1.19-6-2.74-12.59-9-15.19-5.54-2.29-9.22-.78-13.43,5.49a36.11,36.11,0,0,1-2.41,2.75c.4-10.18,3.67-13.24,12.06-12.32,12.82,1.41,18.77,9.23,16.37,22a31,31,0,0,1-3.65,10.15,204.18,204.18,0,0,1-11.75,17.17c-3.72,5-6.21,10.23-6.64,16.52s-1.32,12.81-2,19.21c-1.16-8.62-7.84-12.46-13.69-17-1.21-.08-2.41-.21-3.62-.25-16.57-.58-27.44,14.9-21.3,30.32,5.35,13.44,23.31,17.51,35.12,8,9.11-7.3,12.61-17.6,14.73-28.36a44.15,44.15,0,0,1,11-21.42,120.38,120.38,0,0,0,13.32-17.18C909.78,1119.69,909.47,1107.12,902.07,1094.91ZM841,1198.59c-9.29-3.43-13-14.82-8.34-25.3,3.84-8.56,13.66-11.59,22.18-6.86,8,4.44,9.17,14.27,2.34,19.53-4.33,3.33-7.35,2.33-9.31-2.45,2.14.44,4.95,1.85,7.08,1.16,1.47-.47,2.88-3.92,2.74-5.94-.23-3.32-2-6.4-5.78-7.31-4.4-1.06-8.49-.33-11.68,3.07a10.18,10.18,0,0,0-2.16,11.68c4.78,11.74,16.48,14.21,25.24,5.17,1.66-1.71,3-3.71,4.53-5.58C861.38,1198.71,852.22,1202.73,841,1198.59Zm54-61.8c-2.29,2.81-4.81,5.45-7.23,8.15-7,7.77-12.73,16.15-14.12,26.86a25.53,25.53,0,0,1-1.64,4.81l-1.29-.26c.88-7.45,1.2-15,2.85-22.28,1-4.21,3.57-8.31,6.29-11.79,5.83-7.44,11.2-15.08,14-24.18,5.14-16.63-7.65-31.54-24.2-28.38a12.46,12.46,0,0,0-10.23,12.18c0,5.64,3.18,8.58,10.42,9.7.15-.52.58-1.17.41-1.53-2.84-5.89-2.74-8.06.56-10.06,3.05-1.85,7.35-.62,10.41,3s3.11,9.13,0,13.42c-6.22,8.5-19.67,8.39-25.75-.49-8.33-12.15-4.07-28,10.37-32.13a29.59,29.59,0,0,1,37.72,26C904.38,1120.05,901.34,1128.94,895,1136.79Z"/><path class="cls-1" d="M638.31,718.39c19.38,6,37.55,14.21,52,29.32.42.44,1.09.86,1.17,1.36,1.88,12.59,13.09,17.3,21.08,24.61,4,3.64,8.77,6.44,13.46,9.19,3.62,2.12,7.56,2.47,10.66-1.27,6.36-7.69,13-15.17,18.85-23.24,3.68-5.09,6.52-10.87,5-17.82a8.21,8.21,0,0,1,1.62-5.84c3.41-4.58,6.75-9.43,11-13.09a254.05,254.05,0,0,1,28.75-21.09c-2.57,4.59-5,9.27-7.75,13.75-9.84,16.06-17.74,32.87-22.49,51.24-4.36,16.87-4.07,32.85,4.86,48.19,7.1,12.19,8,24.81,4,38.4-2.44,8.32-2.52,17.32-4.68,25.75-1.46,5.7-3.52,12-7.37,16.17a56.56,56.56,0,0,1-42.8,18.61,24.5,24.5,0,0,1-11.11-3C701,902.35,692.8,891,689.29,875.9c-2.33-10-5.21-19.84-8.14-29.66-2.5-8.38,0-15.26,5-22,3.37-4.52,6.72-9.4,8.55-14.66,2.8-8,.93-16.15-2.55-23.79-6.77-14.82-17.21-27-28.32-38.63-8.74-9.15-17.8-18-26.72-27Zm133.53,26.27-1.88-.4c-2.73,9.2-6,18.29-8.1,27.63-4,17.35-3.39,34.18,7.36,49.55,4,5.78,3.88,12.52,2.67,19.26-1.49,8.32-3.2,16.61-4.26,25-2.56,20.19-15.9,33.22-36.36,35.09-1.84.17-3.67.56-5.5.85a7.61,7.61,0,0,0,5.08,2.55c17.91,1.2,38.08-16.34,40.49-34.94,1.2-9.29,2.25-18.64,4.31-27.75,1.87-8.27,1-15.91-3.74-22.55-9.6-13.5-9.31-28.45-7-43.56C766.56,765,769.5,754.89,771.84,744.66ZM718.43,904.09l-4.74-7.84c-5.32-8.77-11.23-17.25-15.83-26.38-7.66-15.17-9.38-30.29,2-45.08,9.94-12.9,9.16-26.78,2-40.9-9.61-19-24.39-33.43-40.46-46.79,4.7,6.07,10.05,11.57,15.3,17.16,9.55,10.2,18,21.12,23.36,34.24,4.83,11.8,4.33,22.93-2.75,33.67a93.39,93.39,0,0,0-6.09,10.08c-3,6-4.4,12.16-3.18,19.22,3.55,20.48,15.08,36.54,27.57,52.17C715.89,904,716.69,903.84,718.43,904.09Z"/><path class="cls-1" d="M863.94,119.49c-5.21,6.54-10.2,12.83-15.23,19.11C836,154.5,819,163.14,799.38,166.86A127.26,127.26,0,0,0,754,184.5c-2.68,1.71-5.14,3.75-7.7,5.64l1.07,1.69c1.36-.72,2.75-1.38,4.06-2.17,14.59-8.85,29.88-15.73,46.87-18.76,24-4.26,43.65-15.66,57.49-36.22,1.65-2.44,3.91-4.47,7-8,.3,3.34.77,5.23.58,7.05-2.42,23.71,2.26,47.09,3.13,70.63.65,17.56.41,35.15.61,52.73,0,3.72-1.63,6-5.35,5.61-3.48-.39-3.93-3.43-3.61-6.27a23.14,23.14,0,0,1,1.6-5.16c3.24-8.83,2.6-17.93,1.63-27a14.67,14.67,0,0,0-8-11.56c-12.34-6.41-24.72-12.8-37.45-18.34-8.54-3.71-15.34-.42-19.07,8.31-3.92,9.18-7.35,18.57-10.84,27.92-2.34,6.23,1.44,10.34,5.39,14.29C799,252.39,806.29,260,814,267.26c6.37,6,7,12.53,4.43,20.63-2.69,8.59-4,17.61-5.91,26.44-.57,2.64-1.13,5.28-1.89,8.87-3.76-.26-7.45.15-10.69-.86-22.06-6.85-40-19.87-54.23-37.87-6.22-7.86-6.21-9.71-.75-17.75,9.82-14.43,8.92-30.38,7.23-46.46-.53-5-2-9.85-3-14.77l-1.74.24c.29,4.11.74,8.21.84,12.33.25,9.68,1.33,19.49.16,29-.82,6.62-4,13.39-7.62,19.13-4.27,6.72-4.23,12.48.49,18.29,4.93,6.08,10.31,11.8,15.09,18.07-9-7.14-17.45-14.9-23.16-25.1-.9-1.61-.39-4.81.64-6.6,12.65-22,13.31-44.72,4.38-68.1-3.27-8.54-2.07-12.7,5-18.13a15.39,15.39,0,0,1,3-2.11c21.77-9.6,42-22.76,66.29-26.43a43.67,43.67,0,0,0,30.11-18.51c4-5.67,8.75-10.83,13.33-16.07C858.14,119,860.65,116.53,863.94,119.49Z"/><path class="cls-1" d="M621.94,854.81c-5.29,5.93-11.59,4.25-17.32,1.52-8.18-3.89-16.06-8.45-23.88-13-19.83-11.64-39.54-23.47-59.33-35.17-3.12-1.84-6.34-3.54-9.6-5.12-6.27-3-8.33-5.89-6.15-11.91,8.1-22.39,14.73-45.4,26.41-67,2.45.6,4.67,1.32,6.95,1.65,7.21,1,12.65-2.24,14.07-9.49,1.26-6.49,2.32-13.3,1.7-19.79-.77-8.05,2.11-13.36,9.27-18.09,2.79,2.69,5.75,5.57,8.74,8.41,12.61,11.93,27.79,19.34,44.2,24.1,8.33,2.42,15,6.13,18.48,14-4.19,7.25-7.78,15-12.72,21.68-9.67,13.19-19.71,26.15-37.22,30-6.92,1.51-8.17,4.5-7.11,11.19,1.74,11,3.12,22.1,4.92,33.1.45,2.77,1.92,5.37,3.07,8.45,6.4-1.77,10.43-5.19,14-9.3,3-3.4,5.72-7.19,9.22-10a28.1,28.1,0,0,1,10.94-5.7,48.27,48.27,0,0,0,24.88-14,255.92,255.92,0,0,1,18.86-17.9c-.76,5.37-3.54,9.55-7.17,13.06-14.49,14-26.11,30.15-35.83,47.72-1.68,3-4.57,5.88-2.29,9.89,3.52-.87,6.84-2.26,10.2-2.35,3.11-.08,4.15,2,1.76,4.72-.89-4.12-2.79-2.12-4.13-.5-6.35,7.69-14.17,7.26-22.23,3.86a97.69,97.69,0,0,1-16.11-8.3c-12.11-8-23.86-16.55-35.84-24.77-8.21-5.64-16.46-11.26-24.9-16.56-2.65-1.66-6-2.28-9.64-3.62,12.86,9.18,24.8,17.86,36.91,26.3s24.29,17,36.83,24.91C600.94,852.46,610.73,856.63,621.94,854.81Z"/><path class="cls-1" d="M700.28,26.62l12.34-8.19L719.44,28l1.65-1.28-5.47-9.41.66-.92,5,3.78q6.06,9,12.11,17.93c4.06,6,7,12.86,13.46,19.3C742.06,44.6,731.77,28.78,722.4,19.1l-2.9-5.58c10.93-3.2,10.74-2.52,16,6.15,5.64,9.3,10.32,19.17,15.39,28.81A36.72,36.72,0,0,0,755.51,56c-3.92-16.65-12.87-30.83-22.78-45.32,4.61-2.09,7.66-6.77,13.32-3.29.73.45,2.51-.89,3.83-1.33,7.45-2.46,11-.81,14,6.69,2.11,5.29,4.09,10.63,6.65,15.79.59-8.82-4.45-16.09-7.38-24.87l19.18-2.17c5.33,19.31,2.11,38.19,3.64,58.6A123.6,123.6,0,0,0,785.07.79h19.82c2.08,23.27-1.09,46.37-6,69.4C808.58,48,809.83,24.51,809.62.68A33.08,33.08,0,0,1,813.85,0c8.88-.13,10.65,1.13,9.68,9.78-1.48,13.19-3.89,26.28-5.92,39.41-.32,2-.71,4.08.37,6.6,1.27-4,2.74-7.88,3.74-11.91,1.1-4.38,1.89-8.86,2.58-13.33s1-9,1.66-13.48,1.42-8.85,2.16-13.36h9.54c1,11.62-1.21,22.46-4.33,33.07s-7,21.13-10.39,31.27c5.12-5,9.9-14.5,13.77-30.55,2.66-11.07,4.19-22.4,6.21-33.52,3.92-1,4.6,1.27,4.14,4-.83,5-2,9.86-3.08,14.79l2,.45c1.62-6.31,3.23-12.62,4.88-19.06h19.68c-3.74,25-14.86,46.15-28.56,66.27l1.4,1.08a46.91,46.91,0,0,0,4.44-4.6c12.12-16.54,21-34.6,25.27-54.75.61-2.88.54-6.2,5.21-6.74,2.59,2.26,3.32,5.29,2.78,8.73a19.5,19.5,0,0,1-1.32,5.27c-10.71,22.77-21.77,45.34-40,63.36-1.28,1.26-2.74,2.33-4.35,3.69l-11.67-4.13,3.73-4.51c-.08,1.88.81,3.41,2.45,1.77a132.37,132.37,0,0,0,11.46-12.8c10.9-14,16.43-30.27,18.67-47.76a115.25,115.25,0,0,0-7.27,17.91A97.42,97.42,0,0,1,827.32,78c2.84-5.32,5.63-10.66,8.51-16,5.34-9.79,9.89-19.89,11.74-31.32-.94,1.56-2,3.07-2.81,4.68C838,48.57,831.09,61.69,824.6,75c-2.8,5.73-6.46,8.36-12.87,6.54a45.72,45.72,0,0,0-6.68-.85C812,60.85,817.41,41.21,816.9,20.5l-1.82-.34c-1,6.47-1.78,13-3,19.41-1.28,6.82-2.79,13.6-4.44,20.35s-3.56,13.33-5.44,20.32l-13.35-1.19c.93-8.86,5.32-16.94,1.78-25.83-.48,2.21-1.07,4.41-1.43,6.65-.71,4.48-1.3,9-1.91,13.46-.59,4.28-2.79,6.19-7.32,6.16-7.51,0-15,.45-23.23.74-8.49-13.56-15.93-28.71-28.42-40.31q12,19.92,24,39.85l-1.71,1.11c-7.86-9.75-12.35-22.06-22.58-30.14L746.9,82.13,736,86.69c-16-18-33.22-34-55.07-45.24,2.5-2.63,3.43-6.87,8.29-4.18-.08-1.13,2.15-6.13,2.6-7.08,1.69-3.56,4.55-3.53,7.72-2.8l27.26,29.85c-.6-6.28-5-10.18-8.72-14.19C712.64,37.13,706.27,32.05,700.28,26.62ZM797.69,6.07,794.9,56.2A101.42,101.42,0,0,0,797.69,6.07ZM772.27,73.71c2.3-11.64-2.93-32.4-10.56-40.87C765.24,46.51,768.88,60.6,772.27,73.71Zm7.59,2.49c3.86-14.66,2.59-28-2.56-41.23C778.13,48.37,779,61.77,779.86,76.2ZM760.22,51.49l4,24.94C766.25,67.59,765.63,59.16,760.22,51.49Zm74-43.5-2.05-.23q-1.42,11.67-2.84,23.34l2.42.27Z"/><path class="cls-1" d="M439.37,740.62l9.08,12.07c-8.75,7.21-17.29,14.4-26,21.38Q324.17,852.7,225.79,931.18c-42.24,33.5-85,66.36-127.53,99.49q-35.49,27.63-71,55.22c-4.3,3.34-8.68,6.61-13.15,9.71a16.5,16.5,0,0,1-5.7,2.58c-3.29.72-5.81-.68-7.56-3.69s-.61-5.3,1.61-7.21c5.74-4.93,11.48-9.88,17.43-14.55,36.21-28.43,72.56-56.68,108.71-85.18q90.65-71.44,181.07-143.15c41-32.61,81.74-65.6,122.61-98.41C434.4,744.28,436.62,742.7,439.37,740.62Z"/><path class="cls-1" d="M721.75,366.67c-6.24-13.51-17.88-21.77-29.12-30.57-5.18-4.06-9.57-9.24-13.91-14.26-6.36-7.35-12.54-14.8-21.53-19.48-.12-4.22,2.67-6.24,5.5-8.61,8.33-7,16.26-14.47,24.67-21.37a38.46,38.46,0,0,1,11.57-6.66c6.59-2.26,13.15-4.08,18.49-9.07,1.62-1.51,4.94-1.8,7.41-1.63,3.57.24,7.06,1.41,11.69,2.43-1.9,3.73-3.18,7.44-5.44,10.42-4,5.26-3.34,9.83.55,14.65,11.11,13.74,23.42,26.14,38.66,35.36,3.05,1.86,6.15,3.65,9,5.32.29,10.59-8.32,21.06,3.13,31.94-2.13-9.27-3.26-16.82.59-24.59,1.26,2.22,2.8,4.09,3.43,6.22,2.11,7.1,5.85,13.16,10.37,19s3.36,11.07-3.48,13.59c-6.65,2.45-12.72,5.39-18,10.16-2.47,2.26-5.42,2.35-8.45.79-3.76-1.93-7.56-3.81-11.39-5.6C745,369.77,734.25,365.93,721.75,366.67ZM746.12,355c1.57-12.05,3.14-24,4.65-36,.05-.4-.61-.88-.94-1.32C743,326.85,740.89,347.39,746.12,355Zm-30.48-24.11c9.22-7.93,15.82-17.34,16.81-29.91Q724,315.93,715.64,330.89Z"/><path class="cls-1" d="M834.94,140.22c-6.73,7.72-14.11,10.49-21.88,11.83-17.2,3-33,9.48-48.47,17.33-7.26,3.7-14.75,7-21.79,11.07-10.64,6.17-13.07,13.43-7.76,24.38,6,12.37,4.94,25.23,4.61,38.75-11.8,1.24-22.48-.9-33.55-6.58,4.74,6.56,4.74,6.56,31.23,11.41,1,3.05-.75,3.83-3.21,3.77-11.15-.27-21.35-3.84-31-9.24-3.6-2-3.74-5.91-2.48-8.87,3.47-8.11,1.35-15.66-2-22.75-15.34-32.38,3-71.71,33.79-86.4q29.67-14.16,60.85-4.12a193,193,0,0,1,22,8.44C821.84,132.26,827.91,136.23,834.94,140.22Z"/><path class="cls-1" d="M592.87,650.06c12.31-9.5,22.77-18.89,34.56-26.12,6-3.7,14.38-4.71,21.74-4.87,12.69-.29,25.42.86,38.12,1.71a70.9,70.9,0,0,0,27.7-3.46q10.72-3.6,21.68-6.52c11.74-3.13,22.67-1.31,32.94,5.41,4.48,2.93,9.54,5,15.42,8,1.37,10.92,10.43,18.42,18.64,26.3-14.44,13.57-31.86,16.53-48.11,8.14-7.08-3.65-13.17-4.82-21.37-1.71-10,3.79-21.18,4.69-31.91,6.48a182.52,182.52,0,0,1-49.82,1.86C632.34,663.06,612.38,659.67,592.87,650.06Zm197.38,3.74c-1.09-.52-1.65-1-2-.94-13.65,3.63-26.34.46-38.73-5.25-5-2.29-10-1.59-15,.3-6.5,2.44-13,5.13-19.76,6.61-29.45,6.46-58.9,5.33-88.22-1.15-7.48-1.66-14.91-3.57-22.35-5.36l-.6,2c6.79,2.22,13.46,4.86,20.38,6.55a203.3,203.3,0,0,0,55.79,5.64c17.94-.62,35.66-2.62,52.29-9.89,7.16-3.13,13.69-3,20.92,0a90.59,90.59,0,0,0,20,5.48A23,23,0,0,0,790.25,653.8Z"/><path class="cls-1" d="M1071,242.74l12,10.67L729.82,531.5l-11.57-10.7Z"/><path class="cls-1" d="M570.89,665.57c-8.27,6-16.57,12-24.79,18-2.9,2.14-5.61,4.55-9.21,7.49-3.21-6.05-6.42-11.43-9-17.1-2.07-4.6-.9-8.63,3.34-12,15.45-12.18,30.71-24.57,46.09-36.84q41.83-33.39,83.74-66.72c12.07-9.6,24.24-19.07,36.36-28.6l.73-.55c12.6-8.61,21.45-6.44,30.24,8-2.33,2.41-4.56,5.26-7.31,7.47-21.43,17.27-42.87,34.53-64.49,51.57-19.7,15.52-39.77,30.59-59.4,46.21-9.18,7.31-17.7,15.46-26.52,23.23Z"/><path class="cls-1" d="M689.06,888.61C695,901,704.59,909.12,716,915.75a15.43,15.43,0,0,1-1,3.51q-33.74,58.56-67.65,117a103.72,103.72,0,0,1-12.49,16.67A47.13,47.13,0,0,1,623,1062.6c-8,4.45-13.58,1-12.28-8a107.75,107.75,0,0,1,6.44-25.37c6.1-14.79,13-29.31,20.34-43.51C654.24,953.55,671.49,921.63,689.06,888.61Z"/><path class="cls-1" d="M637,846.4c7.93,8.07,8,8.24,2.17,16.3-2.3,3.19-4.68,6.34-7.2,9.35-1.39,1.65-2.28,4.38-5.7,2.75-.85-.4-3.09,1.37-4.26,2.56-2.12,2.15-3.86,4.67-5.87,6.94-11.18,12.62-24.39,16.72-40,10.39-10.83-4.38-21.13-10.4-31-16.72-17.07-10.91-33.64-22.62-50.41-34-1.22-.83-2.33-1.81-3.95-3.08,3.8-9.67,7.31-19.3,11.38-28.68,3.17-7.28,4.77-7.76,11.72-3.7,15.93,9.32,31.64,19,47.55,28.38,12.26,7.22,24.65,14.2,37,21.21a54,54,0,0,0,7.38,3.47c8.64,3.29,16.05.89,22.38-5.37C631.18,853.22,633.85,849.94,637,846.4Z"/><path class="cls-1" d="M910.45,805.94c-4.57,7.57-11.31,12.73-18.59,17.08a214.87,214.87,0,0,0-35.44,26.79A131,131,0,0,1,840.6,862a50.28,50.28,0,0,1-11.37,5.53c-12.72,4.5-20.64,1.83-28.07-9.44-2.66-4-4.59-8.53-7.06-12.7-1.45-2.44-3.27-4.66-4.93-7l-.17-.23.2.19a138.16,138.16,0,0,0-12.17-34c-4.79-9.49-5.29-19.75-2.61-30.1,2.48-9.6,4.92-19.22,7.82-30.53a30.41,30.41,0,0,1,4.47,17.91,226.43,226.43,0,0,1-2.19,25.21c-.78,5.49-.14,10.16,3.58,14.36,6,6.79,11.39,14.21,18,20.36,8.9,8.32,17.7,9.11,28.24,2.82a127,127,0,0,0,18.8-14.15c12.25-10.86,24.1-22.16,36.15-33.24,1.31-1.21,2.79-2.22,4.32-3.42C902.22,783,904.73,795.24,910.45,805.94Z"/><path class="cls-1" d="M491.85,753.1c-3.62,1.27-6.2,3.16-8.21,2.68-6.36-1.54-12.85-3.1-16.79-9.51-2.51-4.08-6-7.6-9.08-11.29-4.73-5.59-8.83-11.42-10.67-18.73s-.86-12.72,5.47-16.37a18.19,18.19,0,0,0,8.88-10.82c.89-2.81,2.28-4.89,5.5-5.22,4.59-.48,6.67-3.49,7.85-7.64,1.46-5.12,4.66-7.8,10.32-8.64,3.52-.53,7-3.08,9.93-5.45,7.61-6.18,9.07-6.55,17.79-2.08a52,52,0,0,1,7.12,4c1.33,1,3,2.76,3,4.1-.3,6.57,3.68,11.38,6.26,16.75,2.87,6,6.21,11.79,8.71,17.93a19.93,19.93,0,0,1,1.5,10.47c-.43,2.36-3.26,5-5.66,6.06-1.53.7-4.9-.52-6.26-2-2.84-3.06-4.91-6.84-7.27-10.33q-6.75-10-13.46-19.92l-2,1.08c.81,2,1.34,4.16,2.49,5.93,5.94,9.11,12,18.11,18.09,27.15,2.55,3.82,1.72,8.86-2,12.13-3.44,3-8.42,3.53-11.5.54a50.22,50.22,0,0,1-6.48-8.62c-5-7.56-10.26-14.72-19.48-18.17.9,1.32,1.52,3.06,2.75,3.88,9.62,6.38,12.67,17.53,19.1,26.2,2.86,3.86-.6,6.74-3.42,9.07-4.24,3.49-7.28,4-10.42.76-6.1-6.29-11.77-13-17.48-19.65-3.26-3.8-6.28-7.78-11.72-9.3Z"/><path class="cls-1" d="M784.35,619c-4-1.63-7.6-2.31-10.22-4.3-14.77-11.18-30.62-11.52-47.35-5.63-10.54,3.72-21,8-32.43,7.87-10.91-.13-21.82-.58-32.71-1.14-6.63-.34-13.23-1.16-20.61-1.84a27.47,27.47,0,0,1,3-3.47c14.18-11.37,28.47-22.59,42.54-34.08,2.77-2.26,5.4-3.56,9-3.3,21.12,1.49,40.7-3.65,59.43-13.26A27.75,27.75,0,0,1,768.93,557c10,.67,16.79,5.14,16.36,16.3-.39,10-.67,20-.92,30C784.26,607.73,784.35,612.26,784.35,619Z"/><path class="cls-1" d="M613,347.7c6.55,11.81,13,23.68,19.69,35.4,4.54,7.93,12.11,11.5,20.7,13.35,4.72,1,9.42,2.13,14.11,3.27,8.27,2,15.61,6.24,19.87,13.41,9.25,15.58,23.61,22.64,40.36,26.67,5.5-3.31,2.37-9.32,4.45-14.85.64,7.38,1.14,13.63-3.3,19.45-8.85-2.85-17.86-5.21-26.39-8.73-3.93-1.63-8.28-4.86-10.1-8.52-9.56-19.23-26.28-25.94-46-27.22-8.29-.54-13.64-4.22-17.29-11.13a110,110,0,0,1-5.44-11.46c-5.51-14.29-13.58-27-23.2-38.81-12.37-15.18-23.65-20.53-46.16-21,13.86-3.43,26.46-6.73,39.16-9.54,2.38-.52,5.37.49,7.77,1.52,16.61,7.11,28.14,19.62,36.49,35.26,3.41,6.4,5.82,13.35,9.48,19.59,3.95,6.73,8.14,13.58,13.44,19.22,11.25,12,24.7,9.46,32.2-5.29.38-.75.72-1.5,1.54-3.21,10.12,12.58,20.81,23.89,30,37.46-9,0-12.76,1.79-13.59,5.94-.69,3.49,1.1,5.79,3.82,7.57,5.58,3.63,7.88-1.8,12-5.06v14.49c-6.63-2.37-13-4.19-19-7-3.4-1.6-6.33-4.55-9-7.36-4.35-4.63-8.12-9.79-12.43-14.45-6.65-7.19-15.21-10.75-24.74-12.28-3-.48-5.91-1.26-8.89-1.69-9.54-1.39-15.72-7.09-20.11-15.27q-6.23-11.59-12.66-23.08c-1.45-2.59-3.23-5-4.87-7.5Z"/><path class="cls-1" d="M619,303.5c8.1,0,16.2-.25,24.28.06a33,33,0,0,1,25.15,12.69A186,186,0,0,0,702.23,349a43.29,43.29,0,0,1,12.13,13.28c8.07,14.8,19.1,27.18,30.07,39.71,14.58,16.65,28,47.88,30.19,70.64-4.55,3.54-9.47,7.37-15,11.64C755,466.63,749.94,450,742,434.41c-9-17.68-20.67-33.36-33.22-48.56-9.82-11.9-19.15-24.2-28.58-36.42a127.39,127.39,0,0,0-54.28-41.17c-2.45-1-4.76-2.28-7.14-3.42Z"/><path class="cls-1" d="M792.87,664.59c-14.28,11.92-27.94,22.13-44.65,27.49a9.9,9.9,0,0,1-10.13-1.9c-5.43-4.54-11.29-4.17-16.53.28-4,3.4-8.5,4.15-13.44,4.48-16.1,1.08-31.09-3.58-46-8.61-11.74-4-23.47-7.94-35.23-11.81a102.36,102.36,0,0,1-34.51-19c24.44,9.48,49.8,15.09,75.75,14.94s51.72-3.55,76.9-13C767.68,668.36,767.68,668.36,792.87,664.59Z"/><path class="cls-1" d="M779.5,468.84c-9.24-22.59,1.14-25.38-49-90.46,9.16,1.26,17.54,3.28,25.23,7.65,1.83,1,3.6,2.21,5.42,3.29,12.12,7.21,14.23,6.46,24.13-3.16,4.58-4.45,11-7,17.52-11,5.16,22.32,2.21,44.75,9.65,66.63Z"/><path class="cls-1" d="M688.31,191.42c-2.06-2.65-4-4-3.83-5.09,3.34-22.82,7.92-45.26,21.8-64.55,13.6-18.89,32.58-27.72,55.13-31.12,17.72-2.68,35,0,52.32,2.29,6.67.89,13.72,2.4,19,8.57L821.26,127.4c-7-2.88-13-5.63-19.16-7.85-20.16-7.26-40.71-9.66-61.17-1.93-28.52,10.77-46.5,30.72-50.9,61.64C689.56,182.54,689.1,185.82,688.31,191.42Z"/><path class="cls-1" d="M886.78,759.45c-6.08,7.28-10.82,14.42-17,20-11.17,10.14-23.18,19.36-34.84,28.95a18.88,18.88,0,0,1-2.25,1.52c-11.34,6.8-15.75,6.13-24.6-3.26,7.11-13.5,9.11-28.5,14.78-41.84,1,4.17,2.06,8.72,3.12,13.2,1.53.14,2.66.62,3.22.24,5.46-3.68,11.23-7.07,16.06-11.47,2.35-2.15,3.83-6.18,4.12-9.5,1.34-15.23-4.31-28.43-13.09-40.47-3.91-5.37-8.25-10.42-12.14-15.8A39.06,39.06,0,0,1,819.07,691c13,10.53,25.5,21.28,35.64,34.48q6.9,9,14.4,17.47c2.37,2.69,5.44,4.75,8.08,7.21C880.2,752.91,883.09,755.84,886.78,759.45Z"/><path class="cls-1" d="M809.49,366.22c1.15,8.29,2.5,16.57,3.4,24.89.79,7.19,1.36,14.44,1.5,21.67.16,7.58-.08,15.14,3.16,22.28.26.58-.33,1.54-1,4.15-1.59-3.45-3.07-5.38-3.31-7.44-1.42-12.31-2.58-24.66-3.78-37-.73-7.53-1-15.12-2.17-22.57-1.24-7.81-4.59-14.72-9.27-21.37-5.1-7.25-8.53-15.66-13-24.2,13.84,2.17,18.64,12.94,24,22.31,3.64,6.41,5.12,14.12,7.15,21.37a44.7,44.7,0,0,0,10.34,18.9c6.84,7.3,12.55,5.83,15.8-3.84,2.8-8.3,1.83-16.75,1-25.19-.42-4.48-1-8.95-1.66-14.25a68.08,68.08,0,0,1,23.05,8.21,14.08,14.08,0,0,1,5.8,7.69c3.72,12.33,3,24.49-3.34,36a7.76,7.76,0,0,1-3.57,3c3.45-11.58,5.67-23.14,4-35.31-3.08,24.28-8.77,46.75-34.74,58.44-1.45-.72-3.94-3.94-7.45-1.14s-4.8,6-2.77,10.44c-4.12-3.69-4.13-8.33-4-12.91A178.6,178.6,0,0,0,814.59,378c-.88-4.07-2.28-8-3.44-12Z"/><path class="cls-1" d="M517.14,658.68c-1.81-1-3.51-2.2-5.34-3.08-5.66-2.74-11.17-2.63-16.09,1.61-4.16,3.58-8.33,6.28-14.23,7-7.37.86-9.58,7.51-11.55,14.28-7.48.49-11.42,5.06-13.53,12.06-1.27,4.19-4.83,6-8.1,5.17a8.22,8.22,0,0,1-6.41-8.54c.41-8.1,4.57-14.37,10.63-19.23,9.93-8,21.46-12.12,34.17-13,3.08-.22,6.46.53,9.59-2-20.41-8.61-51.84,9.73-58.85,33.61-3.61-9.24-3.81-32,.08-40.13a24.78,24.78,0,0,1,6.06-7.81c17.4-14.87,47.5-21.15,68.37,4.66C515.57,647.68,520,651.69,517.14,658.68Z"/><path class="cls-1" d="M625.09,835.79c8.26-15.45,17.17-29.67,29.38-41.67a73.88,73.88,0,0,0,10.81-13.37c3-4.79,5-10.25,7.36-15.45,11.9,9.33,20.15,27.78,17.92,41.84-.67,4.23-3,8.56-5.64,12-5.58,7.39-10.85,14.55-9.09,24.63.26,1.45-.86,3.46-1.91,4.76-2.84,3.52-5.88,6.92-9,10.15-3.7,3.77-6.35,4.13-10.19.55-4.18-3.9-7.77-8.44-11.53-12.77C638.38,841,633.8,835.28,625.09,835.79Zm25.61-24.65-1.61-1.37c-3.48,3.59-7.12,7-10.4,10.8-6,6.82-5.43,9.8,1.43,15.78,4.47,3.91,8.48,8.36,12.71,12.55a62.69,62.69,0,0,0,4.57,4.37c2.43,2,4.93,1.76,7.5,0,5.2-3.55,9.22-14,7.62-22.4-2.34,5.83-3.92,10.61-6.13,15.09-3.06,6.19-6.4,6.31-10.91,1.11-3.51-4.05-6.93-8.34-11.1-11.64-7.55-6-8-7.66-1.45-15.08C645.57,817.34,648.11,814.22,650.7,811.14Z"/><path class="cls-1" d="M1076.48,641.69c0,.15.07.29.11.45l.12-.26Zm9.69,28.25c-1-2.15-2.39-4.67-2.1-6.81,1-7.33-2-12.87-6.58-18-.63-.7-.69-1.91-.9-3-1.74,3.82-3.49,7.66-5.34,11.74l-17.07,13.66L1042,658a16.35,16.35,0,0,0,.73,7.79c.92,3.5,2.14,7,2.53,10.54a14.89,14.89,0,0,1-8.33,14.89c-4.86,2.21-10.94,1.63-14.22-2.38a41,41,0,0,1-6.57-11.59,166.28,166.28,0,0,1-5.65-19.88,35.56,35.56,0,0,1-.39-9.79,83.52,83.52,0,0,1,1.39-8.95l-.57-.54c-12.57,19.14-6.61,49.14,11.87,59.75,1.54-1.27,3.08-2.54,5-4.12,3.1,3.52,5.82,6.72,8.66,9.81,7.88,8.55,13.23,9.26,22.93,2.75,5-3.37,9.71-7.22,14.69-10.64,2.53-1.73,5.12-4,9.84-2.65-4.66,3.43-8.44,6.27-12.28,9-4.66,3.34-9.14,7-14.11,9.83-8.51,4.79-13.34,3.94-20.44-2.62-2.15-2-4.22-4-6.33-6.06.43,5.55,3.54,9.48,6.76,13.29,7.26,8.59,11.49,9.92,21,3.8,8-5.17,15.31-11.75,22.3-18.36C1090,693.15,1091.61,681.41,1086.17,669.94Zm-28.58,26.27c-6.11,2.32-9.44.66-15.27-7.17,2.81,1.29,4.22,1.92,5.61,2.57,4.87,2.29,9.47,1.3,13.71-1.47,5.21-3.4,10.24-7.08,15.35-10.64l1.29,1.66C1073,688.3,1065.82,693.09,1057.59,696.21Z"/><path class="cls-2" d="M1078.28,681.16c-5.28,7.14-12.46,11.93-20.69,15.05-6.11,2.32-9.44.66-15.27-7.17,2.81,1.29,4.22,1.92,5.61,2.57,4.87,2.29,9.47,1.3,13.71-1.47,5.21-3.4,10.24-7.08,15.35-10.64Z"/><path class="cls-1" d="M596.26,778.56c5.78-4.8,11.74-9.41,17.29-14.45a77.06,77.06,0,0,0,17.65-24c1.89-3.92,4.9-7.3,8.15-12,9.14,9.31,17.38,17.65,25.56,26,2.8,2.87,2.82,6.1.11,8.88-10.31,10.61-20.61,21.22-31.26,31.46-2.23,2.14-5.82,3.37-9,3.94a41.46,41.46,0,0,0-21.36,11c1.8-6.14,6.24-9.24,12.15-10.86,7.93-2.16,14.47-6.54,20.94-13.25-2.08.24-3,.12-3.73.47-7,3.35-14.24,6.46-21,10.3a44.48,44.48,0,0,0-10.23,8.45c-3,3.16-5.16,7-8.15,11.2-5.1-10.42,1.26-22-5.48-31.39v25.52c-5.4-8.57-4.12-18.37-6.1-28.39l14.7-3.17-4.37,5.14c23.08-9,43.59-29.19,45.83-45.5-3.92,5.42-7.14,9.74-10.22,14.16C619.61,763.78,609.75,773.32,596.26,778.56Z"/><path class="cls-1" d="M570.7,665.78l11-5.65.08.1c10.32,11.18,23.55,18,37.31,23.5,9.77,3.93,20.12,6.41,30.22,9.5q16.43,5,32.89,10c4,1.21,7.93,2.39,12.45,3.75-4.47,2.27-4.24,5.39-2.21,9.14a28.34,28.34,0,0,1,2.88,21.62c-5.33-3.87-10.15-7.41-15-10.88-15.14-10.8-31.36-19.35-49.52-23.91-19.84-5-38.19-13.15-54.86-26.54,2.67,5.94,4.8,7.92,11.42,12.12,14.46,9.18,30.34,14.85,46.78,19.16,22.79,6,41.42,19.44,59.83,33.28.69.52.66,2,1,3.2-1.16,0-1.92.23-2.19,0-16.31-16.38-36.94-24.77-58.36-31.79-10.33-3.39-20.64-6.9-30.8-10.78C589.23,696,577.34,687,567.55,675.39l3.34-9.82Z"/><path class="cls-1" d="M854.5,262.6l-10.19.72c-.82,2.89-2.39,5.74-2.26,8.53.26,5.92-2.41,8.37-8.79,8l6.36,6.48-6.82,6c0,4.38.15,10.09,0,15.8-.2,6.38-1.14,7.24-9.07,9.33-1.34-8.63,1-16.67,3.2-24.7a62.33,62.33,0,0,1,2.85-8.6c3.13-7.14.89-13-4.09-18.21-4.6-4.82-9.63-9.27-14-14.32-4.1-4.79-8.17-9.81-11.11-15.34-4.61-8.67-2.2-17,3.23-24.69,2.26-3.19,5.37-5.13,9.31-4.47A111.8,111.8,0,0,1,829,210.64c8,2.56,16,5.27,21.61,9.57C851.94,235,853.17,248.25,854.5,262.6Zm-19.26-42.32c-9.08-2.66-14.42.17-20.38,10.06,4.74,2,9.26,4.34,14,5.92a6.79,6.79,0,0,0,8.42-3.64c.87-1.81.84-5.09-.28-6.61-1.91-2.59-5.19-2.57-8.29-1.33a45.57,45.57,0,0,1-5.06,1.4l-.39-1.46Z"/><path class="cls-1" d="M1011.14,554.8l-.11.29L1011,555Z"/><path class="cls-1" d="M1009.5,573.75c-3.12,10.27-9,19.08-16.26,27-7.78,8.56-14.57,17.77-19.2,28.49-4.4,10.18-6.41,20.6-3.47,32.86-10.93-7.15-16.47-15.74-17.4-27.47-1.37-17.17,4.88-31.36,16.35-43.65,1.44-1.55,3-3,4.47-4.54,9.32-9.08,18.13-18.54,22-32.5,2.28,2,3.54,3.25,4.87,4.36,5.79,4.81,7.32,4.36,10.22-3.23C1015.05,561.64,1011.32,567.78,1009.5,573.75Z"/><path class="cls-1" d="M860.49,1284.17c-.36,4.74.53,9.59.85,14.38-16.82-4.24-50.39-31.75-59.59-49.8,6.68-.88,12.27-1.78,17.89-2.33,12.93-1.27,25.94-2,38.8-3.71,6.42-.89,12.59-3.63,19.75-5.8-.93,1.9-1.49,3.73-2.57,5.16C866.18,1254.54,861.65,1268.8,860.49,1284.17Z"/><path class="cls-1" d="M789.25,616.54c0-8,0-14,0-20,0-11.16,1.67-22.4-1.57-33.4a59,59,0,0,0-1.9-6c-6.56-15.58-13.19-31.13-20.18-47.6L785,493.3c5.87,7.15,6.89,15.68,9.23,23.64,8,27.09,8,54.9,7.55,82.79C801.68,607.85,795.58,610.72,789.25,616.54Z"/><path class="cls-1" d="M858.52,641.83c-2.7,5.37-5.41,10.74-8,15.89-7.38,1.36-11.53-4.53-17.36-5.87,3.36,5.58,5.33,6.9,15,9.73a354.72,354.72,0,0,1-18.47,32.94l-14.93-15.81c4.8-9.94,9.49-20.17,14.63-30.17,5.25-10.23,10.94-20.23,16.45-30.35l4.57,1.51c-6.86-17.55,3.13-19.19,16-17,6.39,1.09,9.24,6.76,8.07,13.13-1.22,6.67-5,8.92-16,8.53l6.93,5.39c-2.31,4-4.68,8.16-7.06,12.29-3.61-4.15-7-8.73-13.55-8.87.25,1.65.44,2.88.64,4.25l-4.94-1.84C847.18,645.45,849.52,646.17,858.52,641.83Z"/><path class="cls-1" d="M1314,48.49c-3,4.25-5.87,8.7-9.18,12.74-25.12,30.66-50,61.49-75.61,91.77-13.82,16.37-30.21,29.73-51.37,35.88-2.87.84-5.79,1.51-8,2.07-8.13,2.59-25.16,19.1-26,20a41.59,41.59,0,0,1-4.26,4.52c-12.42,10.17-24.82,20.36-37.41,30.31-11.72,9.25-21.68,6.18-29.1-10,4.94-5,9.59-10.12,14.71-14.74,8.77-7.92,17.81-15.54,26.77-23.24h0l.05,0,.08-.06a1.08,1.08,0,0,1,.24-.18l0,0c3.21-2.37,24.15-18,33.37-28.74,8-9,16.31-19.75,26-29.11,22.74-22,48.83-39.67,75.63-56.2,19-11.74,38.76-22.35,58.19-33.44A10,10,0,0,1,1314,48.49Z"/><path class="cls-1" d="M707.22,560.15c2.74-2.31,5.41-4.71,8.23-6.91,6.82-5.35,14.91-9.44,17.83-18.59.32-1,1.58-1.79,2.53-2.51,8.88-6.76,17.79-13.48,27.13-20.55,5.89,14.87,11.59,29.28,17.72,44.77-11.08-6.4-20.78-4-30.59,1.19-14.9,7.83-30.75,12.32-47.78,11.62a30.65,30.65,0,0,1-3.56-.45c-.21,0-.38-.34-1.32-1.24l9.92-7.47c.63.58,1.23,1.62,1.89,1.67,11.31.77,22.36-.55,32.61-5.53,7.91-3.85,15.48-8.41,23.78-13-1.82-.17-3.64-.89-4.94-.36-4.44,1.82-9,3.6-12.94,6.25-8.28,5.6-17.43,8-27.15,9C716.11,558.59,711.67,559.46,707.22,560.15Z"/><path class="cls-1" d="M978.09,1317.79a57.67,57.67,0,0,1-30.94,11.79c-17.09,1.36-33.86-1.28-50.61-3.9a457.45,457.45,0,0,0-80.57-5.07c-10.33.22-13.68-2.41-16.72-13.53,7.89,6.2,16.4,6.43,25.28,6.35,10.77-.1,21.55-.15,32.32-.06s21.51.29,32.25.69c9.9.37,19.7,3,29.59,4.24,8.69,1.08,17.43,2,26.17,2.43l.92,0c8.87.39,16.37-2.87,22.75-9.42,4.13-4.24,9.36-7.42,14.19-11.13l.07,0C985.63,1308.48,984.67,1312.77,978.09,1317.79Z"/><path class="cls-1" d="M694.77,711.24c10.71-6.58,20.66-12.86,30.79-18.83,4.14-2.44,8.09-1.25,11.58,2,5.54,5.13,11.2,10.14,17.43,15.76-5.45,10.53-4.18,20.93,1.35,31.05,1.8,3.3,1,6.71-.91,9.46-6.28,9.23-12.8,18.31-19.4,27.32-2.18,3-5.4,2.6-8.22,1.07-11.3-6.15-20.75-14.67-29.4-24-1.06-1.15-1.11-4.07-.51-5.78C702.07,736.29,702,723.74,694.77,711.24Zm55,1.92c-3.16-2.89-6.88-6.38-10.71-9.75-7.14-6.31-10.52-6.11-18.13,0-3.7,3-8,5.16-12,7.7l-4.2,2.64V745.8a64.65,64.65,0,0,0,6.16-4.5c3.33-3.07,6.39-6.43,9.66-9.57,7.93-7.6,10.79-7.76,19.4-.92,2.94,2.33,5.62,5,9.85,8.75Zm-.2,36.51c-1.66-2.48-3.23-5-5-7.41a31.05,31.05,0,0,0-4.28-4.67c-5.57-5-9.31-4.79-15.13,0-4,3.24-8.22,6.11-12.32,9.17-1.87,1.4-3.69,2.85-6.06,4.67,6.1,9.86,14.76,15.34,23.8,20C740,766.23,745.07,758.55,749.57,749.67Z"/><path class="cls-1" d="M592.73,609.16,580,619.2c.42-5.36.2-8.71,1-11.8,1.74-6.59.46-12.31-3-18.12-5-8.58-9.53-17.5-14.18-26.31a54.34,54.34,0,0,1-2.07-5.34c1.35-.12,2.38-.54,2.85-.2,11.74,8.55,25.56,10.24,39.35,12,10.64,1.36,21.29,2.61,33.14,4.06l-39.7,31.37L587.59,603l-.58,1.24Zm-7.62-37.44c-1.26,8.59,2.33,15.59,7.38,22.11Z"/><path class="cls-1" d="M1000.65,655.64c-.45,5.59.37,11.28.62,17l-11.22-7c-2.21,2.73-4.85,5.4-8.65,3-4.95-3.13-7.88-7.89-7.54-13.61.5-8.13,2.2-16,6.56-23.28a134.88,134.88,0,0,1,22-27.73c3.87,3.1,8.07,5.91,11.59,9.4,6,6,6.11,8.35.21,14.37C1006.54,635.61,1001.53,644.7,1000.65,655.64Z"/><path class="cls-1" d="M645.68,342.24c5.39,9.09,10.73,18.22,16.23,27.25a30.77,30.77,0,0,0,4.66,5.55c5,5,10.27,6.49,14.6,4.3s6.12-6.63,5.28-13.9c4.23,5.14,4.42,9.25.69,14.79s-10.74,8.36-16.62,5.54c-3.7-1.78-7.59-4.33-9.9-7.58-4.87-6.87-9.63-14.07-12.9-21.78-8.92-21-22-38.19-41.79-50.85,2.65.41,5.53.32,7.92,1.34,7.8,3.31,15.53,6.81,23.06,10.65,5.21,2.66,10.81,4.95,13.14,11.36.72,2,3.59,3.13,5.31,4.82,7.31,7.17,14.56,14.41,21.92,21.71-3.5,2.46-6.39,3.81-8.31,6-2.15,2.46-2.33,5.56.74,8s5.72,1.59,8-.9c1.2-1.29,2-3,3.43-5.25.76,2.79,1.94,5.14,1.94,7.49,0,4.8-4.51,7.73-8.77,5.47a26.5,26.5,0,0,1-8.84-7.39c-4.62-6.36-8.47-13.27-12.68-19.92-1.74-2.74-3.6-5.4-5.4-8.1Z"/><path class="cls-1" d="M300.37,1350.4c3.56,10,1.7,16.11-6.58,21.55A63.8,63.8,0,0,1,261.22,1382a149.46,149.46,0,0,1-30.68-1.88c-16.83-2.77-25.94-16.3-23.21-33,.45-2.78,2-5.39,3.81-8.08-.13,6.41,1.79,12.33,7.29,14.45,7,2.71,13.42,7.52,21.51,7.06,1.58-.09,3.64.2,4.73,1.17,4.36,3.85,8.56,3.59,13.27.71a6.5,6.5,0,0,1,4.94-.39c4,1.43,7.54,1.55,11.07-1.27,1-.76,2.74-.85,4.09-.73C289.87,1361.08,292,1360.23,300.37,1350.4Zm-5.2,11.48c-27.83,17.2-55.12,19.64-82.48-2.44C224.61,1385.36,280.91,1384.1,295.17,1361.88Z"/><path class="cls-1" d="M634.8,401.43c-3.23,3.87-7.13,7.37-9.52,11.7-4.34,7.87-11.65,10-19.4,11.62a7.27,7.27,0,0,1-5.13-1.17c-7.51-5.42-15.76-10.42-16.15-20.48l30.9-32.73c5.94,11.68,9.06,23.75,19.13,31.29Z"/><path class="cls-1" d="M233.2,1330.62c2.63-.16,5-.39,7.35-.44,10.29-.22,20.6-.75,30.88-.43a98.7,98.7,0,0,1,18.68,2.79c3.76.87,6.2,3.55,5.51,8.1a27.46,27.46,0,0,0,.18,6.33c.72,8-11,12.67-17.77,8.47-1.69-1-2.43-4.56-2.56-7-.21-3.78.48-7.62.79-11.43l-2.2-.46c-.88,3.25-1.75,6.51-2.82,10.44l-6.59,2c.7.91,1.11,1.54,1.62,2.07.17.18.57.18.87.18,3.21.06,5.54,1.37,4.79,4.86-.27,1.26-2.26,2.85-3.65,3.05-3.33.48-6-.94-6.44-4.7a69.77,69.77,0,0,1-.24-7.24c0-3.59,0-7.17-1.46-11l-3.32,10.74h-6.63c2.66,1.68,3.78,2.52,5,3.14,3.3,1.66,2.92,4.9,1.89,7-.8,1.66-3.62,2.81-5.74,3.27-3.26.7-5.28-1.61-5.61-4.53s.25-6,.46-9c.26-3.75.56-7.5.85-11.25l-1.81-.23c-1.57,6.65-3.14,13.3-4.73,20.06-9.35,2.26-13.11-1.32-10.61-10.46.63-2.33,1.66-4.56,2.21-6.91S232.81,1333.41,233.2,1330.62Z"/><path class="cls-1" d="M1057.5,518.88a21.52,21.52,0,0,1-2.61,1c-1.15.29-2.34.41-3.38.59-20.59-27-42.92-52-68.62-73.82a103.3,103.3,0,0,0-35.17-20.14c-13.16-4.27-26.06-9.32-39.57-14.21l1.81-4.19c30.92,4.14,58.25,15.63,81.91,35.78,24.62,20.95,45.12,45.57,64.14,71.52A18,18,0,0,1,1057.5,518.88Z"/><path class="cls-1" d="M789.22,745.65c-4.2-4-3.92-8.27-1.18-13,4.53-7.79,8.84-15.71,13.93-24.82,1.11,2.66,2.31,4.17,2.26,5.64-.49,13.79,6.55,25.44,11.18,37.61,2.19,5.76,3.31,10.87,1.68,16.48-3,10.39-6.38,20.67-9.61,31.06-.39.07-1.1.42-1.42.2-3.65-2.47-8.81-4.33-10.39-7.79-1.41-3.12,1.36-8,1.87-12.15,1.65-13.45-1.4-26.08-7.73-38.27l-.66,5.09Z"/><path class="cls-1" d="M1045.09,635.65c-6.86,10.22-10.37,20.8-5.42,33.13,1.59,4,2.81,8.32.94,13.17-1.58,4.13-4.37,6-7.93,6.22a8.1,8.1,0,0,1-6.32-3.29c-1.78-3.15.25-6.76,3.58-7.81a42.48,42.48,0,0,1,5.78-1c-7.42-3.77-8.47-3.44-14.1,3.71-2.6-8-5.72-15.91-7.68-24.15-.93-3.86.47-8.26.66-12.43.1-2.19,1.19-5.32-3.13-4.64l-.57-.54,8.22-11.19h31.69C1048.59,630.29,1046.88,633,1045.09,635.65Z"/><path class="cls-1" d="M596.45,339.68c-3.16,2.73-6.44,5.33-9.47,8.2-8.52,8-16.93,16.2-26.08,25-1.17-.84-3.09-2.12-4.91-3.53-4-3.11-7.81-6.58-12-9.34-2.62-1.7-4.5-3.59-3.47-6.48.93-2.62,2.6-6.47,4.62-7,12.88-3.11,19.73-12,24.36-24.08,11.25,2.65,19.76,8.83,26.79,17.37Z"/><path class="cls-1" d="M812.92,345.4,802,333.11c3.78,0,5.86-.11,7.93,0,6.4.43,11.11-1.83,14-7.83a10.59,10.59,0,0,1,4.18-4.05c6.41-3.72,9.63-8.95,8.7-16.5a42.19,42.19,0,0,1-.25-6.36,9.71,9.71,0,0,1,.75-4.38c6.44-11.2,8-15.43,9.21-26.88.92,3.86,1.93,5.83,1.74,7.68-1.18,11.72-2.25,23.48-4.09,35.11s-4.75,13.87-16.48,15.33a14.54,14.54,0,0,0-2.72,1.25c6.4,7.07,12.23,14.4,12.92,24.16s1.33,19.29,1.71,28.95c.08,2-.84,4.15-1.7,6.05-.71,1.57-2,2.87-3.44,4.81a28.67,28.67,0,0,1-12.62-16.07l3.32.25c-2.12-11.69-2-23.85-12.25-34Zm18,25.29c-4.63,6.23-4.79,9.35-1,11.87,3,2,5.17.74,6.87-1.85C839.34,376.84,837.88,374.26,830.91,370.69Z"/><path class="cls-1" d="M756.42,729.31c-.13-3.5-.9-7.14-.24-10.49,1.39-7.17,2.68-13.94-7.49-18.38,11.95-5.67,23-9.67,32.71-15.88s17.65-14.46,26.85-22.22l5.41,9.53c-7.37,14.56-16.93,26.71-29.75,36.44-7.67,5.83-14.56,12.68-21.8,19.06,1.59-2.41,2.8-5.22,4.83-7.18,9.78-9.41,19.82-18.55,29.68-27.88,2.22-2.11,4.07-4.61,6.1-6.93l-1.42-1.25C792.84,691.7,784,698.94,776,707,769,714,762.92,721.83,756.42,729.31Z"/><path class="cls-1" d="M596.24,339.83l18.17,25.66-29.55,31.56c-3.13-3.81-5.52-7.21-8.41-10.11s-6.4-5.46-9.58-8.12c-.13-5,2.15-8.48,5.22-11.5,5-4.88,10.29-9.44,14.94-14.61,3.56-4,6.31-8.66,9.42-13Z"/><path class="cls-1" d="M709.15,105.18l-7.34,7.15.15.17c-2.94-2.4-5.52-5.7-8.88-7-11.64-4.55-23.71-7-36.34-4.59-2.86.55-5.79.74-8.79,1.1-.5-5.11,2.8-5.59,5.74-5.79,5.72-.38,11.47-.38,17.21-.48,3.55-.06,7.11,0,12.54,0-11.75-5.69-22.14-3.18-33-2.14.42-3.78.81-7.25,1.25-11.23l15-3.41-.05-.83-9.74-.6c-.12-.38-.23-.77-.34-1.16l12-3.59-10.68-1.6c9.32-6.36,27.27-1.86,40.87,9.7l-9.34-2.74c8.34,7.16,18.53,11.62,25.09,21.66L709,105.33c1-3.25-1-5.16-3.21-6.87-3.83-2.94-8.86-5-11.34-8.84-3.58-5.48-8.52-6.12-13.84-7-9.77-1.64-9.77-1.64-14.11-.11,8.38,3.34,18.29,6.61,27.54,11.21C699.59,96.47,704.14,101.29,709.15,105.18Z"/><path class="cls-1" d="M973.7,1302.12c-2,1.34-4.31,2.51-5.75,4.34-6.44,8.19-14.71,10.38-23.58,10.42a81.16,81.16,0,0,1-8.6-.49c-9.24-1-18.42-2.44-28.29-3.78l5.41-4.15c-2.09-9-4.45-17.69-6.12-26.55a.68.68,0,0,1,0-.14c-1.64-9,2.73-17.26,9.94-20.37a13.76,13.76,0,0,1,2.29-.79l.1,0c1-.25,2.17.21,4.77.53l-1.53,2.45c-3.55,5.66-6.94,11.12-8.36,17a23.24,23.24,0,0,0-.47,2.49,23.57,23.57,0,0,0,.2,7.7c1.42,7.34,3.61,14.47,9.62,20.13-.14-1.48,0-3.09-.49-4.41-2.55-6.46-5.78-12.62-2.63-20,.21-.5.44-1,.67-1.48a43.58,43.58,0,0,1,3.5-6.17,40.77,40.77,0,0,1,10.38-10.54c1-.68,2-1.33,3-1.95a9,9,0,0,1,3.65-1.38h0a5.27,5.27,0,0,1,2.36.33,9.7,9.7,0,0,1,3.7,2.85c-1.66,1.08-3.34,2.07-5,3.13-1,.65-2,1.34-3,2.08a66.59,66.59,0,0,0-7.95,7.11c-4.43,4.86-7.26,10.59-6,18.49a95.35,95.35,0,0,0,2.47,9.36c3.38-.69,5.74-2,7.3-1.37,8,3.32,15.29,1.81,22.2-1,3.26-1.33,6.44-3,9.59-4.49s4.08-7.18,6-10.93a20.19,20.19,0,0,1,4,3.12l.28.33a4.86,4.86,0,0,1,.81,1.32C979.17,1297.45,977.64,1299.5,973.7,1302.12Z"/><path class="cls-1" d="M701.81,112.33c-.79,1.58-1.59,3.15-2.64,5.24-11.12-4.28-22.19-7.4-33.87-3.89,10.39,1.24,20.87,1.79,30.88,7l-8.11,14.6c-18.77-3.74-33.57,5.4-49.64,14.6,1-2.35,2.27-3.87,2.07-5.18-1.43-9.51,4.87-13,12.08-15.18,6.61-2,13.49-3.14,20.27-4.55,2.8-.58,5.65-.89,8.31-2.25-13.71-2.88-26,2.53-38.57,6.76,6.46-7.36,16-6.89,24-10.69-8.77-1.79-16.46,2.28-25.24,5.29.23-5.34,2.76-8.67,5.85-11.74l29.48-4.47c-10.3-1.38-20.39-1.53-29.37,4.61-1.1-1.12-3.19-2.38-3.06-3.33a5.23,5.23,0,0,1,3.12-3.66,65.81,65.81,0,0,1,13.28-2.08c13-.41,25.65,1.2,37.13,8.08,1.18.71,2.81.68,4.22,1Zm-16.93,18c-12.55-3.23-29,1.07-34.67,7.71Z"/><path class="cls-1" d="M286.85,1182.46c-1,5.39-5.19,7.72-9.48,11.23,1.71-.14,3.79.29,5.07-.53a22.51,22.51,0,0,0,10.16-13.5c4-16.29,13.36-28.63,26.28-39,13.81-11.12,15.41-26.79,13.51-43-1-8.34-5.79-11-14.68-9.23,6.8-7.81,13-7.76,17.32,1a41.3,41.3,0,0,1,4.07,16.54c.32,12-2.67,23.39-11.22,32.59a96.74,96.74,0,0,1-8.24,8.45c-9.54,8-15.86,18.11-20,29.77-1.2,3.41-2.29,7-4.24,10a79.16,79.16,0,0,1-9.66,11.87c-3.3,3.34-7.76,5.73-12.27,3s-2.63-7.48-1.8-11.56,1.7-8.29,2.85-12.36c1.54-5.49,3.07-11.07,8.27-14.63,4.31,9.44,2.7,16.23-5.66,23.4,5.09,2.92,6.66-2.66,9.87-3.76Z"/><path class="cls-1" d="M1116.73,640.11c-2.37,4.29-5.19,4.49-8.08,1.49-3.52-3.66-7.2-7.21-10.73-10.88a111.22,111.22,0,0,1-9.55-11.08c-3.77-5.13-7.45-10.33-10.93-15.65-7.27-11.12-13.66-22.76-18.12-35.45a132.33,132.33,0,0,1-7.62-43.76l6.6-1.56c2.08,22.67,7.53,44.18,18.88,63.84A286.43,286.43,0,0,0,1116.73,640.11Z"/><path class="cls-1" d="M301.21,1273.72c-3.09-2-6.57-3.78-9.36-6.29-8.35-7.51-18.22-10.29-29.15-10.32-1.51,0-3,0-4.53-.13-10.45-.63-14.83-8-10.16-17.46,2-4,4.68-7.72,7.19-11.78,5,6.39,12.23,9.18,19.67,11.59,9.84,3.18,19.19,7.26,26.64,14.74C307.78,1260.36,307.84,1265.31,301.21,1273.72Zm-3.82-8c-9.07-15.35-24.46-14.4-39.81-16.11,4.79,5.13,10.66,4.44,15.77,5a37,37,0,0,1,19,7.65C293.92,1263.52,295.69,1264.56,297.39,1265.69Z"/><path class="cls-1" d="M832.16,764.39c-3.16-8.86-1.18-18.28-8.35-27.11,1.44,9.19,2.58,16.52,3.72,23.84-4.79-16.22-9.11-32.38-17.77-47.1-2.35-4-3-9.09-4-13.77a13.44,13.44,0,0,1,5-13.92c3.89,6.58,10.21,12.84,11.1,19.79,1.34,10.4,8.22,17,12.36,25.38,4,8,6.69,16.12,6.37,25.47Z"/><path class="cls-1" d="M672.6,49.63l8.46-5.8c5.77,4,13.1,8.3,19.49,13.69,9.48,8,18.38,16.68,27.31,25.3,1.6,1.54,4.66,3.7.77,7.4-6-7.23-10.61-15.8-19.72-19.79l16.21,21-6.34,5.47c-1.13-.43-1.82-.47-2.12-.84-4.59-5.49-8.64-11.53-13.77-16.46C693.92,71,683.07,65.8,670.42,65c-2.09-.13-4.19,0-6.93,0L672.13,53c17.2,4.73,28.39,18.12,41.5,28.73C703.71,67.14,690.43,56.75,672.6,49.63Z"/><path class="cls-1" d="M565.73,322.5c-4.88,13.33-14.08,19.6-26.43,20.67-1.82,4.33-3.06,8-4.94,11.39-.76,1.37-2.92,1.95-3.88,2.54-3.7-1.13-6.77-2.3-9.94-3-6-1.34-7.58-5.59-3.74-10.36a8,8,0,0,1,1.94-1.88c9-5.53,17.82-11.26,27-16.42A28.2,28.2,0,0,1,565.73,322.5Z"/><path class="cls-1" d="M1075.46,621.74c-6.15,13.13-11.77,25.3-17.57,37.37-.73,1.52-2.38,2.6-3.49,3.76L1040.73,653c1.91-4.4,3.5-9.51,6.2-14,5.07-8.36,10.79-16.35,16.18-24.4C1065.07,618.69,1067.31,623.78,1075.46,621.74Z"/><path class="cls-1" d="M300.76,1292.7c-15.89-19.59-50.57-17.38-66-2.79-4.56,4.32-9.74,8-15.91,12.94.57-2.63.59-3.95,1.13-5,9.28-18.4,43-33.7,61.45-25.87,6.84,2.9,13.11,7.27,19.32,11.44C303.76,1285.42,303.43,1285.92,300.76,1292.7Z"/><path class="cls-1" d="M879.35,619.92c.89-2.85,2.61-5.62,2.38-8.21-.05-.54-.11-1.09-.17-1.63v0c-.65-5.73-2-11.4-3-17.1-.9-5.2-5.14-6.61-9.25-7.42-4.7-.91-9.58-.89-15.82-1.39v-22c11.86,10.88,24.9,18.77,31,33.47a29.41,29.41,0,0,0,3.75,7.24c5.42,6.76,6,14.81,7.09,23.37Z"/><path class="cls-1" d="M656.57,172.71q-6.77,5.86-13.52,11.74c-2.84-4.34-2.73-7.19,1.22-11.38,8.17-8.66,17.61-15.43,29.36-18.5a12.85,12.85,0,0,0,5.1-2.75c-10.38-2-17.83,4.51-26.79,7.77l14.23-10.06-4.43-.62,20.54-7c-.36-.58-.56-1.32-1-1.45a5.62,5.62,0,0,0-2.63-.28c-9.52,1.7-18.55,4.67-26.41,10.51-1.75,1.31-2.67,2.75.57,3.34l-11.72,10.84-2.43-11.3c14.08-9,28.73-16.61,47.51-15.07-1.85,5.71-3.55,11-5.41,16.74-10.81,3-21.5,6.84-29.64,16.31l4.93.71Z"/><path class="cls-1" d="M881.52,1301.92l-10,.6c-.13-15.45,1.43-30.06,7.62-43.69,4.39-9.64,11.29-10.38,20.68-2.54C885.78,1268.54,878.33,1282.94,881.52,1301.92Z"/><path class="cls-1" d="M879.16,457.69l-15.88-27.81,15.51-11.95,13.77,14.89C887.39,439.84,887.61,449.78,879.16,457.69Z"/><path class="cls-1" d="M1137.2,770.4A259.09,259.09,0,0,0,1115,649.13c1.64-1.83,3.36-3.75,5-5.62.87.61,1.55.82,1.68,1.21,6.91,21,13.23,42.14,16.14,64C1140.55,729.11,1141.68,749.69,1137.2,770.4Z"/><path class="cls-1" d="M795.13,805.39c5.27-1.54,8,.55,10.43,3.41,10.71,12.6,17.6,11.6,30.64,2.92,17.47-11.62,33.54-24.9,46.51-41.61,1.81-2.34,3.84-4.52,6-7.07,3.84,4.37,1.86,7.29-1.33,10.18-10.53,9.58-20.92,19.32-31.54,28.8-6.53,5.84-13.27,11.45-20.14,16.88a25.17,25.17,0,0,1-8.06,4c-6.41,2-12.65,1.48-17.84-3.29C805,815.16,800.34,810.46,795.13,805.39Z"/><path class="cls-1" d="M971.29,996.73c-.87,4.64-1.62,8.61-2.36,12.59l-.85-.09c-.25-2.3-.49-4.59-.94-8.79-4,7.3-5.39,14.94-8,22l0,.09-.07.2a36.13,36.13,0,0,1-6.3,11.29l-10.45-14.15-1.33.88q3.06,6.93,6.14,13.86l-14.49-11.72C944,1011.8,954.94,1001.48,971.29,996.73Z"/><path class="cls-1" d="M867.25,1304.49l0,.24-.2-.09Z"/><path class="cls-1" d="M914.12,1256.69l-3.49,2.38c-1.43,1-2.72,1.85-4,2.78-8.21,6-14.11,13.42-16.58,22.67-.15.54-.28,1.09-.4,1.64h0a39.45,39.45,0,0,0-.89,7.61c-.23,11.29,1.26,13.14,12.16,17.39-5.76-.57-11.52-1.58-17.28-1.63-8.93-.08-17.86-.08-26.8-.08-12.56,0-25.13,0-37.7-.11a36.82,36.82,0,0,1-13.12-2.61c-1.68-.68-3.47-2-3.71-3.86-.16-1.24.35-2.74,2-4.5,2.47,1.9,4.72,4.38,7.52,5.62,4.08,1.81,8.5,3.64,12.86,3.86,7.44.39,14.9.4,22.36.34l11.23-.12c1.2,0,2.38-1.12,3.56-1.81l.21-.12-.14.17c1.59-1.07,4.73,2.4,5.31-1.58,2,.91,4,2.36,6.11,2.47,3.85.19,7.74-.48,12.06-.82a78.55,78.55,0,0,0,0-8.82c-1.94-17,4.61-30,18.44-39.56C907.2,1255.63,907.28,1255.74,914.12,1256.69Z"/><path class="cls-1" d="M875.81,604.4c-9.91-8.11-20.26-8.6-29.22-.95-2.76-16.45-5.87-32.46-4.19-49.22,5.09,1.58,6.9,4.55,6.58,9.58a88.21,88.21,0,0,0,.36,16.25c.69,5.78,2.37,6.92,8.2,7.56.89.1,1.81,0,2.71.14C873.32,589.07,874.11,589.88,875.81,604.4Z"/><path class="cls-1" d="M960.31,1299.4a11.67,11.67,0,0,1-5.4,3.95c-8,3.19-20.92,1.92-25.08-3.75-.93-1.28-1-3.45-.92-5.18a17.42,17.42,0,0,1,5-11.69,18,18,0,0,1,2.59-2.08l-.18-.2.23.16c2.64,1.8,5.12,3.91,8,5.27,2.64,1.25,4,2,4.22,5.67.33,5.24,5,5.69,11.64,5.29l-8.06-5c.26-.76.29-2,.86-2.32,3.41-2.14,6.26.14,7.57,2.49A8.46,8.46,0,0,1,960.31,1299.4Z"/><path class="cls-1" d="M842.9,1304.07c-5.79,0-10.14.06-14.49,0-9.68-.17-17.08-3.18-21.82-8.54s-6.86-13.21-5.84-22.92c6.33,5.74,12.42,12.08,19.35,17.3C826.78,1294.93,834.32,1298.82,842.9,1304.07Z"/><path class="cls-1" d="M295,1325.66c-7.63-4.91-14.68-9.55-21.84-14-3.59-2.24-7.41-4.11-11.08-6.22-13.1-7.53-25.89-7.12-38.38,1.43-.75.51-1.5,1-2.27,1.52-.49.3-1,.52-1.57.78a24.22,24.22,0,0,1,24.5-13.47c18.4,1.64,34.16,9.56,48.2,21.21C295,1318.88,297.05,1321.15,295,1325.66Z"/><path class="cls-1" d="M833.79,95.3c-29.7-10.46-58.79-12.48-88.31-4.9a69.21,69.21,0,0,0-33.27,19.49,54.64,54.64,0,0,0-4.32,5.86L706,114.2c1.12-1.47,2.11-3,3.35-4.39,16.35-17.7,36.91-25.75,60.69-26.32,18.8-.46,37.53.36,56.05,3.88C830,88.11,834.71,88.81,833.79,95.3Z"/><path class="cls-1" d="M861.3,1305.89c-15.31-5.06-30-11.45-42.76-21.51-6.72-5.29-12.6-11.26-16.79-18.51a48.23,48.23,0,0,1-3.87-8.46,10.07,10.07,0,0,1,.28-5.83c11.41,19.64,29.2,31.86,47.44,43.62C850.92,1298.63,856.08,1302.31,861.3,1305.89Z"/><path class="cls-1" d="M862.05,1306.14l-.14.17-.07,0-.54-.37Z"/><path class="cls-1" d="M287,1182.62c1.67-7.38,3.53-14.67-.46-22.07-1.33-2.47.67-4.16,3.25-5.37,8.05-3.77,12.75-11,17.11-18.23,1.59-2.63,1.76-6.11,2.75-9.83,6.31,3.44,11.41-.53,17.4-4.7-1.15,2.58-1.89,5.48-3.55,7.68-2.9,3.82-5.93,7.77-9.67,10.7-11.32,8.86-19.64,19.54-23.23,33.7-.71,2.79-2.49,5.31-3.79,8Z"/><path class="cls-1" d="M297.42,1297.92c-3-.91-5-1.13-6.66-2.07a35.75,35.75,0,0,0-25.45-4.27,56.24,56.24,0,0,1-25.41-.89,29.12,29.12,0,0,1,18.57-7.54,112.46,112.46,0,0,1,25.16,1.9C289.8,1286.16,295.16,1289.66,297.42,1297.92Z"/><path class="cls-1" d="M671.36,217.77c-2,3.47-3.93,6.94-6.88,12.16-.71-7.65,4.26-10.93,5.41-15.62s2.18-9.43,3.8-14c1.07,15.36,2.52,30.73-3.19,45.51-3.76,9.71-8.53,18.71-21.08,23.45,7.55-10.79,15.84-19.08,19.12-30.48-8,9.34-14.23,20.16-23.64,28.25C655,251.22,668.36,237.39,671.36,217.77Z"/><path class="cls-1" d="M914.62,814.14a4.81,4.81,0,0,1-.2.53,11,11,0,0,1-3.78,4.07q-12,8.85-24.14,17.58-12.82,9.25-25.67,18.46-6.27,4.5-12.59,9c-2.41,1.7-5.31,2.71-8,4l-.37-.42c19.3-14.38,36.13-31.93,57.28-44,6.11-3.49,11-9.18,16.57-14a6.93,6.93,0,0,1,1.06,2.8A4.74,4.74,0,0,1,914.62,814.14Z"/><path class="cls-1" d="M484.57,843.81c3.14,1.26,6.67,2,9.45,3.9,19.71,13.32,39.26,26.87,58.47,41.16a78.42,78.42,0,0,1-7.66-3.55c-16.05-9.57-32-19.28-48.06-28.85a69.88,69.88,0,0,0-10.43-5.36C482.81,849.74,482.54,847.79,484.57,843.81Z"/><path class="cls-1" d="M830.45,206.76c-3.68-1-7.32-2.18-11-3-10.29-2.25-16,.5-20.88,9.77-6.39,12.2-4.42,23.88,6.1,35.66,3,3.37,6.17,6.59,8.47,10.77-1.32-1-2.72-2-4-3.16-4.61-4.34-9.06-8.87-13.78-13.1-6.78-6.08-7.5-8.67-4-17.38,2.93-7.27,5.72-14.6,8.92-21.75,3.27-7.32,6.69-8.74,14.41-6.6a27.39,27.39,0,0,1,5,1.89c3.73,1.88,7.38,3.91,11.06,5.88Z"/><path class="cls-1" d="M243,1253.09c5.42,6.82,10.94,8.21,17.36,8,8.8-.25,17.35,1,24.85,7.06-21-7-38.13,2.37-55.55,12.3C236.09,1273,241.77,1265.2,243,1253.09Z"/><path class="cls-1" d="M789.17,838.42l-.11.15-.06-.38.2.19Z"/><path class="cls-1" d="M840.26,867.78c-7.29,3.45-14.3,7.8-21.93,10.15-9.6,3-15.3.15-20.68-8.54-3.32-5.38-5.74-11.32-8.95-16.78a14.64,14.64,0,0,1-2.11-5.81,11.19,11.19,0,0,1,2.47-8.23c1.87,11.31,7.76,20.61,15.49,28.62,5.59,5.78,12.9,7.71,20.85,5.24,4.89-1.51,9.66-3.37,14.49-5.07Z"/><path class="cls-1" d="M909.05,1307.77c-4.6-.83-8.45-1.14-12-2.36a6.67,6.67,0,0,1-3.47-4.55,34.48,34.48,0,0,1,1.29-17.14,36.23,36.23,0,0,1,7.8-12.63,30,30,0,0,0-.6,11.45C903.15,1290.86,906.94,1298.88,909.05,1307.77Z"/><path class="cls-1" d="M210.38,1328.76c6.87-17.89,22.72-26.5,42.34-23.71Z"/><path class="cls-1" d="M867.25,1304.49l-.23.15.06-.73C867.13,1304.1,867.19,1304.3,867.25,1304.49Z"/><path class="cls-1" d="M892.27,1244.89c-19,4.62-20.66,20.51-23.12,35.59-1.26,7.71-1.45,15.61-2.07,23.43-6.72-22.71-.31-42.81,12.87-61.36,2.5-3.52,4.09-4.52,6.8-2.76A35.63,35.63,0,0,1,892.27,1244.89Z"/><path class="cls-1" d="M803.32,370.24c-2.51,1.79-4.78,4.25-7.57,5.23a35.66,35.66,0,0,0-14.81,9.93c-6,6.54-8.14,7-15.63,2.22-10.89-6.9-22.44-11.57-35.26-13.12-2.21-.27-2.19-.45-4.76-4.43,11.45.88,21.81,4.57,31.76,9.67,2.68,1.37,5.42,2.65,8,4.13,4.9,2.77,9.42,1.88,13.33-1.67a35.35,35.35,0,0,1,14.76-8.33c3.17-.87,5.86-3.54,8.77-5.4Z"/><path class="cls-1" d="M895.42,404.34c10.08,9.07,10,17.13-.72,25.14L881.82,415.6Z"/><path class="cls-1" d="M581.7,660.13l4.4-4.88c10.78,10.73,23.45,17.68,37.17,22.61,13.35,4.79,26.93,8.94,40.17,14.09-20.38-3.84-40.43-8.73-58.73-19-4.75-2.66-9.34-5.62-14.08-8.31-2.87-1.62-5.9-3-8.85-4.44Z"/><path class="cls-1" d="M464.21,756.56c-5.67,2.58-8.39.29-10.48-2.19-5.27-6.25-10.28-12.73-15.2-19.25-1.39-1.84-3.32-4.59-.31-6.19,1.56-.83,4.75-.22,6.31.93,2.56,1.92,4.48,4.74,6.52,7.29,3.21,4,6.42,8.06,9.39,12.26C461.89,751.45,462.81,753.86,464.21,756.56Z"/><path class="cls-1" d="M539.12,721.78c8.53-9.58,3.71-18.41-.56-27.35l9.82-8.19c1.32,3.5,3.51,6.54,3.39,9.49a142.85,142.85,0,0,1-2.7,21.48C548.14,721.94,544.45,723,539.12,721.78Z"/><path class="cls-1" d="M805.93,587.75c0-5.78.28-11.85-.09-17.87a12,12,0,0,1,5-11c3.77-2.95,7.53-5.93,12.5-9.83-1,8.77-2.38,15.47-6.9,21.55C812.52,575.9,809.5,581.85,805.93,587.75Z"/><path class="cls-1" d="M277.61,1319.14h-39.7C249.45,1305.42,261.89,1305.71,277.61,1319.14Z"/><path class="cls-1" d="M953.76,1039.6c-7.69,20.42-15.14,40.25-22.65,60.06a13.3,13.3,0,0,1-1.77,2.67l-.13.18,0-.08h0c.44-2,.82-4.06,1.35-6.05,1.83-6.94,1.6-13.52-3.08-19.38a2.09,2.09,0,0,0-.14-.17l0,0c8.11-.08,8.28-.26,11.33-7.43,2.48-5.81,4.68-11.8,7.78-17.27s3.92-11,1.24-16.75Z"/><path class="cls-1" d="M800,613.34c1.11,10.23,3.79,19.39,3.21,30.33-5.7-3.91-9.27-7.87-11.71-12.76-3.27-6.6-2.58-9.21,3.31-14C796.19,615.81,797.71,614.92,800,613.34Z"/><path class="cls-1" d="M673,181.92l-28.11,44.39C643.45,215.26,659.49,190,673,181.92Z"/><path class="cls-1" d="M816.57,263.43c11.25,8.66,11.92,11.31,8.64,22.43-2.29,7.76-4.07,15.7-5.62,23.64-.62,3.16-.18,6.57.06,9.84.59,7.84-1,9.66-9,9.71-2.09,0-4.18-.34-7.24-.6,10.79-2.11,11.38-2,12.65-12.4a151.23,151.23,0,0,1,7.23-31.62A14.09,14.09,0,0,0,820.73,270C819.47,268.47,818.6,266.65,816.57,263.43Z"/><path class="cls-1" d="M289.18,1326.73h-68c18.2-6.56,37.21-3.08,55.87-3.8C281.06,1322.78,286.39,1321.61,289.18,1326.73Z"/><path class="cls-1" d="M698.88,244.71l15.44,8.16c-5.6,8.35-14.87,6.73-23,10.2C692,255.72,695.59,250.59,698.88,244.71Z"/><path class="cls-1" d="M313.72,1097.48c-.93,5.75-4.56,11.57,2.38,16.65l-6.88-1.07c5.19,7,8.54,6.23,16.07-2.82-1.08,3.17-1.8,6.51-3.32,9.45a7.83,7.83,0,0,1-9.87,4.13,8.53,8.53,0,0,1-5.91-9.81C307.44,1108.11,307.51,1101.59,313.72,1097.48Z"/><path class="cls-1" d="M672.89,188.45c-5.71,19.37-16.37,35.48-31.11,49Z"/><path class="cls-1" d="M220.92,1341.59l4.64,2.09c-.4,2.78-.8,5.61-1.22,8.57-8-4.09-9.61-6.88-8.55-14,.77-5.16.77-5.16,12.34-7.69.15,2.89.29,5.64.45,8.81l-7.16.55Z"/><path class="cls-1" d="M498.35,381c2.16-11.81,2-23,12.09-31.2.52,2.11,1.62,4,1.26,5.66-.93,4.29-2.73,8.39-3.75,12.67C506.68,373.42,503.72,377.27,498.35,381Z"/><path class="cls-1" d="M643.37,199.74c3.84-11.56,18.27-25.06,35.08-33.74-.85,3-.81,5.84-2.2,7.14-2.51,2.33-6.21,5.55-8.81,5.08-3.72-.67-5.15,1.25-6.81,2.94C655.16,186.72,650,192.57,643.37,199.74Z"/><path class="cls-1" d="M962.19,1287.08l-25.59-6.55a52.24,52.24,0,0,1,4.61-4A48.35,48.35,0,0,1,947,1273c2.13-1,3.81-1.28,5.57-.69,2.53.86,5.2,3.5,9.52,8.23l-10.82-3.52-.81.87c1.86,1.43,3.66,2.95,5.6,4.25C958.17,1283.61,960.43,1284.84,962.19,1287.08Z"/><path class="cls-1" d="M789.15,745.71c4.63,12,6.52,24.31,3.64,37-2.36,10.4-2.3,11,6.85,16.86-8.83.17-10.55-1.2-10.57-8.94a40.64,40.64,0,0,1,.78-9.94,56.18,56.18,0,0,0-.13-28.7c-.53-2-.35-4.21-.5-6.32Z"/><path class="cls-1" d="M290.36,1148.1c1.43-4.75,2.12-9.95,4.6-14.08,1.36-2.26,5.72-2.72,10-4.52-1,9.55-7.35,14-12.31,19.43Z"/><path class="cls-1" d="M264.39,1295.8c11.21-1.28,20.51-.38,29.72,6.63C282.77,1306.14,274.47,1300.81,264.39,1295.8Z"/><path class="cls-1" d="M679.28,190.19c1.71-19.54,4-38.87,14.66-56C685.64,152,683.13,171.32,679.28,190.19Z"/><path class="cls-1" d="M607.51,897.58c-9.92,10.78-19.33,11.12-34.92.59C585.66,902.62,596.67,902.93,607.51,897.58Z"/><path class="cls-1" d="M1001.39,598.57c7.92-12.92,15.42-26,16.09-41.66C1019.29,573.5,1013.18,587.11,1001.39,598.57Z"/><path class="cls-1" d="M1073.56,715.51c-9.26,13.21-19.26,17.49-30.85,12.66C1055.86,728.4,1064.61,721.93,1073.56,715.51Z"/><path class="cls-1" d="M513.78,358.68H523c-2.36,7.81-8.68,12.13-13.43,19.95C511.19,370.93,512.39,365.27,513.78,358.68Z"/><path class="cls-1" d="M890.81,380.09,885,385.28c-5.35-2.93-9.37-5.69-7.1-13.38Z"/><path class="cls-1" d="M656.09,172.25c1.46-1.74,2.57-4.1,4.42-5.09,5.9-3.13,12.06-5.75,19.72-9.31-2.36,7.4-8.14,7.14-11.63,9.75s-8,3.47-12,5.11Z"/><path class="cls-1" d="M929.37,1102.21l0,.12a110.28,110.28,0,0,1-18.3,40.29c.57-1.66,1-3.38,1.73-5q6.86-15.53,13.83-31a33.16,33.16,0,0,1,2.63-4.21h0Z"/><path class="cls-1" d="M653.74,241.59c-4.38,7.08-8.9,13.95-16.45,18.87C638.17,254.77,642,250.31,653.74,241.59Z"/><path class="cls-1" d="M660.69,187.34l-15.83,21.93C646.36,199.15,653.63,193.09,660.69,187.34Z"/><path class="cls-1" d="M704.76,701c-12.41,3.13-21.89-1.24-31.34-5.74Z"/><path class="cls-1" d="M836.16,766.35c7.28-8.8,7.28-8.8,6.49-26.18,3.45,6.09,2.9,12.34,2.51,18.44C844.87,763.17,843.49,764,836.16,766.35Z"/><path class="cls-1" d="M1011,554.4c-2.28-4.75-5.67-8-11.61-7.59.06-1.34-.17-2.31.19-2.94a32.44,32.44,0,0,1,2.84-3.65C1008.32,543.54,1010.8,548.28,1011,554.4Z"/><path class="cls-1" d="M1011.14,554.8l-.18.18c0-.19,0-.39,0-.58C1011,554.53,1011.08,554.67,1011.14,554.8Z"/><path class="cls-1" d="M851.67,715.25c11.73,4.7,11.73,4.7,9.94,11.51Z"/><path class="cls-1" d="M1113.25,714.54c0,.2,0,.4,0,.6,0-.15-.1-.29-.15-.44Z"/><path class="cls-1" d="M1116.24,750.06c-4.85-2.56-5.58-6-5.09-10.43.89-8.14,1.4-16.32,2-24.49C1117.13,726.21,1116.77,737.66,1116.24,750.06Z"/><path class="cls-1" d="M895,1136.79c-2.29,2.81-4.81,5.45-7.23,8.15-7,7.77-12.73,16.15-14.12,26.86a25.53,25.53,0,0,1-1.64,4.81l-1.29-.26c.88-7.45,1.2-15,2.85-22.28,1-4.21,3.57-8.31,6.29-11.79,5.83-7.44,11.2-15.08,14-24.18,5.14-16.63-7.65-31.54-24.2-28.38a12.46,12.46,0,0,0-10.23,12.18c0,5.64,3.18,8.58,10.42,9.7.15-.52.58-1.17.41-1.53-2.84-5.89-2.74-8.06.56-10.06,3.05-1.85,7.35-.62,10.41,3s3.11,9.13,0,13.42c-6.22,8.5-19.67,8.39-25.75-.49-8.33-12.15-4.07-28,10.37-32.13a29.59,29.59,0,0,1,37.72,26C904.38,1120.05,901.34,1128.94,895,1136.79Z"/><path class="cls-1" d="M867.82,1185.76c-6.44,13-15.6,17-26.84,12.83-9.29-3.43-13-14.82-8.34-25.3,3.84-8.56,13.66-11.59,22.18-6.86,8,4.44,9.17,14.27,2.34,19.53-4.33,3.33-7.35,2.33-9.31-2.45,2.14.44,4.95,1.85,7.08,1.16,1.47-.47,2.88-3.92,2.74-5.94-.23-3.32-2-6.4-5.78-7.31-4.4-1.06-8.49-.33-11.68,3.07a10.18,10.18,0,0,0-2.16,11.68c4.78,11.74,16.48,14.21,25.24,5.17C865,1189.63,866.32,1187.63,867.82,1185.76Z"/><path class="cls-1" d="M865.74,1135.88c-3.13,7.43-5.9,14-8.86,21l-9.41-3.42c.87-8.19,1.74-16.32,2.68-25Z"/><path class="cls-1" d="M746.57,715.25c-.66,4.8-1.22,8.93-1.89,13.82L735,723.48c-4.09-2.35-7.93-2.36-11.58,1-4.4,4-8.91,8-13.24,11.87-.55-6.45-1.13-13.21-1.68-19.72L730.86,702Z"/><path class="cls-1" d="M745.83,750l-14.06,18.15-20.93-15c7-5.18,12.69-9.84,18.9-13.7,1.64-1,5.42-.3,7.19,1C740,742.7,742.24,746,745.83,750Z"/><path class="cls-2" d="M1174.88,157.85a196.61,196.61,0,0,1,22.31-23.5c8-7.31,16.37-14.14,24.89-20.78,2.14-1.65,4.3-3.27,6.45-4.89s4.32-3.25,6.5-4.84l6.56-4.74c2.19-1.58,4.39-3.13,6.61-4.67,8.85-6.18,17.79-12.21,26.91-18-8.39,6.81-16.95,13.36-25.53,19.89l-12.85,9.8c-4.29,3.25-8.57,6.51-12.81,9.83s-8.5,6.59-12.7,10-8.37,6.75-12.49,10.2C1190.5,143,1182.48,150.18,1174.88,157.85Z"/><line class="cls-3" x1="895.42" y1="404.34" x2="893.34" y2="402.72"/><path class="cls-2" d="M1081.35,772.19a7.84,7.84,0,0,1-2.74,4.7c-12.19,10.36-26.31,13.13-41.68,10a84,84,0,0,1-42.23-21.8q-21.62-20.8-42.37-42.49c-7.76-8.06-14.77-16.84-22.16-25.26a30.26,30.26,0,0,0-3.1-2.66c1.42-4.29,1.8-6.73,1.14-10.37A30.44,30.44,0,0,0,936,698.45c19.71,21,39.25,42.13,59.49,62.59a79.1,79.1,0,0,0,35.88,20.61c16.49,4.46,32.41,3.9,46.59-7.22C1079,773.59,1080.2,772.93,1081.35,772.19Z"/><path class="cls-2" d="M935.78,643.6c-13.95-5.59-25.61-15.14-37.2-25.89.13,5.73,1.25,9.85,3.92,13.41a18.17,18.17,0,0,0-7.17-4.93c-1.06-8.56-1.67-16.61-7.09-23.37a29.41,29.41,0,0,1-3.75-7.24c-6.1-14.7-19.14-22.59-31-33.47v22c6.24.5,11.12.48,15.82,1.39,4.11.81,8.35,2.22,9.25,7.42,1,5.7,2.34,11.37,3,17.1-.66-2.41-1.45-2.38-5.74-5.66-1.7-14.52-2.49-15.33-15.56-16.64-.9-.1-1.82,0-2.71-.14-5.83-.64-7.51-1.78-8.2-7.56a88.21,88.21,0,0,1-.36-16.25c.32-5-1.49-8-6.58-9.58.33-3.67.38-5.27,0-7,.76.74,1.55,1.48,2.35,2.2,10.55,9.54,21.71,18.43,32.11,28.13a44.88,44.88,0,0,1,10,13.75A90.56,90.56,0,0,0,904,616.78c9.68,10,20.7,17.93,34.13,23Z"/><line class="cls-3" x1="938.17" y1="639.77" x2="938.17" y2="639.76"/><path class="cls-2" d="M1115,649.13c1.64-1.83,3.36-3.75,5-5.62-1.3-.8-2.1-2-3.3-3.4-2.37,4.29-5.19,4.49-8.08,1.49-3.52-3.66-7.2-7.21-10.73-10.88a111.22,111.22,0,0,1-9.55-11.08c-3.77-5.13-7.45-10.33-10.93-15.65-7.27-11.12-13.66-22.76-18.12-35.45a132.33,132.33,0,0,1-7.62-43.76l6.6-1.56a30.2,30.2,0,0,0-.8-4.34,21.52,21.52,0,0,1-2.61,1c-1.15.29-2.34.41-3.38.59-20.59-27-42.92-52-68.62-73.82a103.3,103.3,0,0,0-35.17-20.14c-13.16-4.27-26.06-9.32-39.57-14.21-1.91,5-.62,7.9-5.39,14.25,1.86-2.4,3.88-5,6.16-7.95a26.33,26.33,0,0,1,6.5.94c14,4.71,28.31,8.9,41.82,14.82a99,99,0,0,1,24.23,15.73c21.66,18.6,40.82,39.63,58.63,62,6.3,7.9,7.8,16.8,8.62,26.11,2,22.88,10.68,43.27,22.76,62.45.8,1.28,1.65,2.52,2.45,3.81.13.21,0,.55.07.83-9.47-3.75-12-2.63-16.12,7.22-1.38,3.32-2.58,6.71-3.57,9.29l-30.64,2c-1.23-12-11.08-16.29-18.69-22.66,2.21-3,4.3-5.92,6.47-8.78,9-11.89,10.59-25.48,8.78-39.72-.85-6.69-5.14-11.5-9.87-15.87-3.22-3-6.56-2.27-9.89.08-4.85,3.42-6.52,8.6-7.73,14a51.32,51.32,0,0,1-10.42,21.91,33.6,33.6,0,0,0-2.65,4.34c-8.48-2.91-13.38-7.78-17.56-13.33-4.55-6-8.46-12.56-13.06-18.56-3.3-4.3-6.77-8.77-11.07-11.9-4.52-3.29-6.47-7-7.71-12.35l-.24-1c-6.08-25.71-17.52-48.82-35.67-68.3-2-2.12-3-4.1-2.93-6.2a31.11,31.11,0,0,1-1.51,5.8c9,8.9,15.4,19.11,20.66,29.88s10.78,21.86,13.78,33.43c2.93,11.33,2.83,23.44,4.27,37.26,3.82-6.64,2.09-12.28,3.42-18.22,1.92,1.09,4,1.65,5.05,3,4.87,6.14,9.62,12.4,14.13,18.81,6.43,9.15,12.45,18.64,23.18,24.87-1.65,1.91-3,3.76-4.63,5.33-16,15.51-24,33.87-19.7,57.77a92.37,92.37,0,0,1-11.91-3.57l-2.39,3.83A70.82,70.82,0,0,0,952.23,648c5.43,10.33,14.68,17.47,25.3,23.06,4.06,2.14,8.21,3.72,13,1.73,1.34-.56,3.89-.3,4.8.64,3.72,3.84,7.84,7.64,10.26,12.27,3.52,6.72,8.08,12.27,14.47,15.88a20.06,20.06,0,0,1,10.12,13.14,56.92,56.92,0,0,0,2.2,6c4,10.3,11.95,16.81,25.52,13.39,4.56,6,8.69,12.92,17,14.76,5.85-7.47,5.32-12.27-3.18-25.27,3.81-3.5,7.81-7.17,11.79-10.85a33.64,33.64,0,0,0,3.21-3.22c6.62-8.08,8.8-30.42,4.09-39.94-1.18-2.39-2.92-5.22-2.54-7.54,1.7-10.17-4.34-15.41-11.55-20.18v0l-.12.26c.21,1.06.27,2.27.9,3,4.61,5.15,7.57,10.69,6.58,18-.29,2.14,1.09,4.66,2.1,6.81,5.44,11.47,3.87,23.21-5.34,31.92-7,6.61-14.25,13.19-22.3,18.36-9.53,6.12-13.76,4.79-21-3.8-3.22-3.81-6.33-7.74-6.76-13.29,2.11,2,4.18,4.08,6.33,6.06,7.1,6.56,11.93,7.41,20.44,2.62,5-2.8,9.45-6.49,14.11-9.83,3.84-2.75,7.62-5.59,12.28-9-4.72-1.32-7.31.92-9.84,2.65-5,3.42-9.67,7.27-14.69,10.64-9.7,6.51-15.05,5.8-22.93-2.75-2.84-3.09-5.56-6.29-8.66-9.81-1.94,1.58-3.48,2.85-5,4.12-18.48-10.61-24.44-40.61-11.87-59.75l8.22-11.19h31.69c-2.22,3.42-3.93,6.12-5.72,8.78-6.86,10.22-10.37,20.8-5.42,33.13,1.59,4,2.81,8.32.94,13.17-1.58,4.13-4.37,6-7.93,6.22a8.1,8.1,0,0,1-6.32-3.29c-1.78-3.15.25-6.76,3.58-7.81a42.48,42.48,0,0,1,5.78-1c-7.42-3.77-8.47-3.44-14.1,3.71-2.6-8-5.72-15.91-7.68-24.15-.93-3.86.47-8.26.66-12.43.1-2.19,1.19-5.32-3.13-4.64a83.52,83.52,0,0,0-1.39,8.95,35.56,35.56,0,0,0,.39,9.79,166.28,166.28,0,0,0,5.65,19.88,41,41,0,0,0,6.57,11.59c3.28,4,9.36,4.59,14.22,2.38a14.89,14.89,0,0,0,8.33-14.89c-.39-3.56-1.61-7-2.53-10.54A16.35,16.35,0,0,1,1042,658l12.2,9.57,17.07-13.66c1.85-4.08,3.6-7.92,5.34-11.74,0-.16-.07-.3-.11-.45l.24.16c2.25-7.7,7.47-14.82,4.93-23.94,2.56,3.11,5,6.3,7.72,9.31,1.81,2,3.54,4.18,5.32,6.27a49.77,49.77,0,0,0,8.34,8.21c6.32,4.61,9.12,10.65,12,17.44,11.22,26.53,16.79,54.39,18.12,82.86a206.14,206.14,0,0,1-2,42.58,60.9,60.9,0,0,0,6-14.18A259.09,259.09,0,0,0,1115,649.13Zm-41.42,66.38c-9.26,13.21-19.26,17.49-30.85,12.66C1055.86,728.4,1064.61,721.93,1073.56,715.51Zm-72.17-116.94c7.92-12.92,15.42-26,16.09-41.66C1019.29,573.5,1013.18,587.11,1001.39,598.57Zm-48.22,36.08c-1.37-17.17,4.88-31.36,16.35-43.65,1.44-1.55,3-3,4.47-4.54,9.32-9.08,18.13-18.54,22-32.5,2.28,2,3.54,3.25,4.87,4.36,5.79,4.81,7.32,4.36,10.22-3.23L1011,555c0-.19,0-.39,0-.58-2.28-4.75-5.67-8-11.61-7.59.06-1.34-.17-2.31.19-2.94a32.44,32.44,0,0,1,2.84-3.65c6,3.32,8.43,8.06,8.58,14.18.07.13.13.27.19.4l-.11.29c4,6.55.29,12.69-1.53,18.66-3.12,10.27-9,19.08-16.26,27-7.78,8.56-14.57,17.77-19.2,28.49-4.4,10.18-6.41,20.6-3.47,32.86C959.64,655,954.1,646.38,953.17,634.65Zm61.07-6.89c-7.7,7.85-12.71,16.94-13.59,27.88-.45,5.59.37,11.28.62,17l-11.22-7c-2.21,2.73-4.85,5.4-8.65,3-4.95-3.13-7.88-7.89-7.54-13.61.5-8.13,2.2-16,6.56-23.28a134.88,134.88,0,0,1,22-27.73c3.87,3.1,8.07,5.91,11.59,9.4C1020,619.34,1020.14,621.74,1014.24,627.76Zm43.65,31.35c-.73,1.52-2.38,2.6-3.49,3.76L1040.73,653c1.91-4.4,3.5-9.51,6.2-14,5.07-8.36,10.79-16.35,16.18-24.4,2,4.1,4.2,9.19,12.35,7.15C1069.31,634.87,1063.69,647,1057.89,659.11Z"/><path class="cls-2" d="M952.78,1034.06a36.13,36.13,0,0,0,6.3-11.29c-.07.21-.14.45-.22.7s-.17.53-.26.83l-.09.31c-.07.2-.13.41-.2.63-1.25,4.13-3.2,10.77-4.55,14.36l-6.07-4.26c2.68,5.77,1.95,11.13-1.24,16.75s-5.3,11.46-7.78,17.27c-3,7.17-3.22,7.35-11.33,7.43-5.22-4.83-10.56-9.53-15.57-14.58a17.94,17.94,0,0,1-5.77-11c9.15,8.88,14.89,19.19,26.59,21.57,3.93-8.55,7.59-16.47,11.21-24.41,2.79-6.11,2.32-9-2.64-13.75-3.48-3.35-7.2-6.45-10.5-9.38-10,7.66-19.61,15.53-29.75,22.63a55.07,55.07,0,0,1-44.92,8.94c-4.88-1.07-10.29-1.66-15.31-7.39,5.35,1.22,8.78,2.19,12.28,2.77,8.61,1.44,17,3.4,26,1,8.63-2.34,16.74-5.59,23.68-11,11-8.57,21.59-17.57,32.08-26.71,9.37-8.17,18.49-16.57,30.42-21,1.62-.6,3-1.81,5.27-3.39l.88,5.7c-16.35,4.75-27.34,15.07-38.64,26.2l14.49,11.72q-3.07-6.93-6.14-13.86l1.33-.88Z"/><path class="cls-2" d="M842.14,1038.94a20.27,20.27,0,0,1-3.59,7Z"/><path class="cls-2" d="M930.58,1096.37c-.53,2-.91,4-1.35,6.05h0a33.16,33.16,0,0,0-2.63,4.21q-7,15.46-13.83,31c-.71,1.6-1.16,3.32-1.73,5l0,.08,0,0-.08.12-.26.41c-1.39,2.12-5.73,8.79-6.31,9.83l0,.09c.74-2.84,1.18-5.81,2.28-8.5,6.16-15,12.54-30,18.68-45.07a43.66,43.66,0,0,0,2.12-8.75c1-5.76-1-9.77-6.53-12.34-9.34-4.32-15.38-11.83-19.14-21.35,8.2,7.22,14,17.4,25.83,19.81C932.18,1082.85,932.41,1089.43,930.58,1096.37Z"/><path class="cls-2" d="M904.31,1153.1c.58-1,4.92-7.71,6.31-9.83Z"/><path class="cls-2" d="M886.75,1239.79c-2.07-1.64-9-8-8.43-12.92,0,0,0,0,0-.08Z"/><path class="cls-2" d="M892.27,1244.89c-19,4.62-20.66,20.51-23.12,35.59-1.26,7.71-1.45,15.61-2.07,23.43,0,.19.11.39.17.58l0,.24c2,.91,4,2.36,6.11,2.47,3.85.19,7.74-.48,12.06-.82a78.55,78.55,0,0,0,0-8.82c-1.94-17,4.61-30,18.44-39.56,3.42-2.37,3.5-2.26,10.34-1.31C906.21,1254.61,896.11,1249.11,892.27,1244.89Zm-10.75,57-10,.6c-.13-15.45,1.43-30.06,7.62-43.69,4.39-9.64,11.29-10.38,20.68-2.54C885.78,1268.54,878.33,1282.94,881.52,1301.92Z"/><path class="cls-2" d="M973.21,1290.55a112.82,112.82,0,0,1-11.14-10Z"/><path class="cls-2" d="M878.32,1226.87c-.65,4.27-2.92,6.84-7.11,8.09-6.63,2-13.31,4.06-20.12,5.07-8.36,1.24-16.89,1.37-25.33,2.06-6.91.57-13.83,1.11-20.71,1.91-5.93.7-7.66-.07-8.34-4.83l0,.21,1.43,12.2c11.41,19.64,29.2,31.86,47.44,43.62,5.32,3.43,10.48,7.11,15.7,10.69l.75.25-.14.17c1.59-1.07,4.73,2.4,5.31-1.58l-.2-.09.06-.73c-6.72-22.71-.31-42.81,12.87-61.36,2.5-3.52,4.09-4.52,6.8-2.76C884.68,1238.15,877.75,1231.79,878.32,1226.87Zm-2.7,15.2c-9.44,12.47-14,26.73-15.13,42.1-.36,4.74.53,9.59.85,14.38-16.82-4.24-50.39-31.75-59.59-49.8,6.68-.88,12.27-1.78,17.89-2.33,12.93-1.27,25.94-2,38.8-3.71,6.42-.89,12.59-3.63,19.75-5.8C877.26,1238.81,876.7,1240.64,875.62,1242.07Z"/><path class="cls-2" d="M798.16,1251.58c-.74-2.57-1.19-9.83-1.43-12.2Z"/><path class="cls-2" d="M913.74,809.34c-5.62,4.85-10.46,10.54-16.57,14-21.15,12.06-38,29.61-57.28,44-4.83,1.7-9.6,3.56-14.49,5.07-7.95,2.47-15.26.54-20.85-5.24-7.73-8-13.62-17.31-15.49-28.62l.11-.15c1.66,2.31,3.48,4.53,4.93,7,2.47,4.17,4.4,8.67,7.06,12.7,7.43,11.27,15.35,13.94,28.07,9.44A50.28,50.28,0,0,0,840.6,862a131,131,0,0,0,15.82-12.19A214.87,214.87,0,0,1,891.86,823c7.28-4.35,14-9.51,18.59-17.08l0,0C910.7,806.24,911.68,807.34,913.74,809.34Z"/><path class="cls-2" d="M913.74,809.34c-2.06-2-3-3.1-3.25-3.35Z"/><path class="cls-2" d="M861.84,1306.26c-1.18.69-2.36,1.8-3.56,1.81l-11.23.12c-7.46.06-14.92,0-22.36-.34-4.36-.22-8.78-2-12.86-3.86-2.8-1.24-5.05-3.72-7.52-5.62l2.28-2.85c4.74,5.36,12.14,8.37,21.82,8.54,4.35.07,8.7,0,14.49,0-8.58-5.25-16.12-9.14-22.8-14.17-6.93-5.22-13-11.56-19.35-17.3l1-6.73c4.19,7.25,10.07,13.22,16.79,18.51,12.8,10.06,27.45,16.45,42.76,21.51Z"/><path class="cls-2" d="M978.33,1295.32c.84,2.13-.69,4.18-4.63,6.8-2,1.34-4.31,2.51-5.75,4.34-6.44,8.19-14.71,10.38-23.58,10.42a81.16,81.16,0,0,1-8.6-.49c-9.24-1-18.42-2.44-28.29-3.78l5.41-4.15c-2.09-9-4.45-17.69-6.12-26.55a.68.68,0,0,1,0-.14c-1.64-9,2.73-17.26,9.94-20.37a13.76,13.76,0,0,1,2.29-.79c-2.23-.57-4.86-3.92-4.86-3.92l-3.49,2.38c-1.43,1-2.72,1.85-4,2.78-8.21,6-14.11,13.42-16.58,22.67-.15.54-.28,1.09-.4,1.64h0a39.45,39.45,0,0,0-.89,7.61c-.23,11.29,1.26,13.14,12.16,17.39-5.76-.57-11.52-1.58-17.28-1.63-8.93-.08-17.86-.08-26.8-.08-12.56,0-25.13,0-37.7-.11a36.82,36.82,0,0,1-13.12-2.61c-1.68-.68-3.47-2-3.71-3.86-2,2.69-3.44,2.79-3.07,4.21,7.89,6.2,16.4,6.43,25.28,6.35,10.77-.1,21.55-.15,32.32-.06s21.51.29,32.25.69c9.9.37,19.7,3,29.59,4.24,8.69,1.08,17.43,2,26.17,2.43l.92,0c8.87.39,16.37-2.87,22.75-9.42,4.13-4.24,9.36-7.42,14.19-11.13C981.72,1298.08,980,1296.81,978.33,1295.32Zm-81.26,10.09a6.67,6.67,0,0,1-3.47-4.55,34.48,34.48,0,0,1,1.29-17.14,36.23,36.23,0,0,1,7.8-12.63,30,30,0,0,0-.6,11.45c1.06,8.32,4.85,16.34,7,25.23C904.45,1306.94,900.6,1306.63,897.07,1305.41Z"/><path class="cls-2" d="M941.38,1265a9,9,0,0,0-3.65,1.38c-1,.62-2,1.27-3,1.95a40.77,40.77,0,0,0-10.38,10.54,43.58,43.58,0,0,0-3.5,6.17c-.23.49-.46,1-.67,1.48-3.15,7.36.08,13.52,2.63,20,.53,1.32.35,2.93.49,4.41-6-5.66-8.2-12.79-9.62-20.13a23.57,23.57,0,0,1-.2-7.7,23.24,23.24,0,0,1,.47-2.49c1.42-5.91,4.81-11.37,8.36-17l1.53-2.45.18,0,.22,0,.26.06Z"/><path class="cls-2" d="M962.07,1280.57l-10.82-3.52-.81.87c1.86,1.43,3.66,2.95,5.6,4.25,2.13,1.44,4.39,2.67,6.15,4.91l-25.59-6.55a52.24,52.24,0,0,1,4.61-4A48.35,48.35,0,0,1,947,1273c2.13-1,3.81-1.28,5.57-.69l-5.09-4.16c-1.66,1.08-3.34,2.07-5,3.13-1,.65-2,1.34-3,2.08a66.59,66.59,0,0,0-7.95,7.11c-4.43,4.86-7.26,10.59-6,18.49a95.35,95.35,0,0,0,2.47,9.36c3.38-.69,5.74-2,7.3-1.37,8,3.32,15.29,1.81,22.2-1,3.26-1.33,6.44-3,9.59-4.49s4.08-7.18,6-10.93A112.82,112.82,0,0,1,962.07,1280.57Zm-1.76,18.83a11.67,11.67,0,0,1-5.4,3.95c-8,3.19-20.92,1.92-25.08-3.75-.93-1.28-1-3.45-.92-5.18a17.42,17.42,0,0,1,5-11.69,18,18,0,0,1,2.59-2.08l-.18-.2.23.16c2.64,1.8,5.12,3.91,8,5.27,2.64,1.25,4,2,4.22,5.67.33,5.24,5,5.69,11.64,5.29l-8.06-5c.26-.76.29-2,.86-2.32,3.41-2.14,6.26.14,7.57,2.49A8.46,8.46,0,0,1,960.31,1299.4Z"/><path class="cls-2" d="M968.34,989.23a3.52,3.52,0,0,0-2.43-.29c-5.47,2.53-11.32,4.76-16,8.41-11.2,8.72-22,18-32.64,27.38-9.83,8.62-19.82,16.87-32.22,21.64-8.4,3.24-16.85,4.87-25.69,1.86-3.43-1.17-6.88-2.29-10.36-3.25-5-1.38-7.93-1.31-10.44.93a20.27,20.27,0,0,0,3.59-7c5.14,1.52,9.24,2.52,13.19,3.93,10.86,3.86,21.41,3.3,31.59-2,5.07-2.67,10.36-5.21,14.8-8.76,7.79-6.23,15.14-13,22.43-19.87,10.23-9.57,20.8-18.8,33.83-24.16,5-2,7.54-4.92,8.63-8.84C966.09,981.91,967.1,985.28,968.34,989.23Z"/><path class="cls-2" d="M968.34,989.23c-1.24-4-2.25-7.32-1.73-10Z"/><path class="cls-2" d="M914.62,814.14l-1.17,7.91c-16.87,12.26-33.05,24.53-49.61,36.09q-4.2,2.93-8.42,5.78a185.75,185.75,0,0,1-32.78,17.35c-12.88,5.33-21,2-28.64-9.7-2.15-3.28-3.81-6.87-5.66-10.34-1.11-2.08-2.14-4.21-3.21-6.31l1.46-8.12a14.64,14.64,0,0,0,2.11,5.81c3.21,5.46,5.63,11.4,8.95,16.78,5.38,8.69,11.08,11.49,20.68,8.54,7.63-2.35,14.64-6.7,21.93-10.15,2.67-1.34,5.57-2.35,8-4q6.32-4.46,12.59-9,12.87-9.18,25.67-18.46,12.12-8.73,24.14-17.58a11,11,0,0,0,3.78-4.07A4.81,4.81,0,0,0,914.62,814.14Z"/></g></g></svg>