<svg xmlns="http://www.w3.org/2000/svg" viewBox="0 0 1543.58 1492.99"><defs><style>.cls-1,.cls-2{fill:#fdce1e;}.cls-2{stroke:#031010;stroke-miterlimit:10;stroke-width:2px;}.cls-3{fill:#031010;}</style></defs><title>warrior-r</title><g id="Layer_2" data-name="Layer 2"><g id="Layer_1-2" data-name="Layer 1"><path class="cls-1" d="M1057.2,1012.61c-2.07,1.28-4.75,2.1-6.11,3.92-16.68,22.33-31.25,45.83-38.48,73.12a125,125,0,0,0-3.1,17.85c-.63,5.54,1.9,8.17,7.34,6.63a73.12,73.12,0,0,0,18.28-7.84c12.82-7.92,21-20.24,29-32.64,8.91-14,17.53-28.12,26.5-42.05,4.38-6.81,9.41-13,19-11.21,27.39-5.9,54.71-11.64,79.35-26.27,11.71-7,24.47-12.24,37.08-17.52,20.31-8.5,38.44-19.82,52.87-36.75,10.53-12.36,21.43-24.41,32.71-37.22,9.56,3.55,18.13,10.07,26.25,17.07A139.8,139.8,0,0,1,1381,986.19c1.85,6.09,3.36,12.43,6.26,18,3.32,6.4,6.94,13.37,12.32,17.82,10.4,8.59,13.41,18.77,11.22,32.26-10.6,2.34-16.37,10.85-22.12,19.28-17.13,25.06-40.58,40.8-69.86,48.5-12.59,3.31-24.87,7.81-37.29,11.77l-8.12,2.55c3.18-13.55,9.77-23.77,18-33.11,3.38-3.82,7.15-7.35,10.13-11.46,6.1-8.43,5.59-13,0-21.76-6.6-10.43-16.71-15.47-27.72-19.15-12.35-4.14-25.36-6.67-37.17-12-14.18-6.36-27.4-14.88-41-22.45q-10.67-5.93-21.35-11.83l-1.12,1.67a29.41,29.41,0,0,0,3.61,3.21q18.6,11.75,37.28,23.35c17.52,10.91,37.08,16.56,56.72,22.11,11.88,3.35,22.71,8.3,28.67,20.34,2,4,2,7.33-.45,10.66a169.69,169.69,0,0,1-10.72,13.44,83,83,0,0,0-19.51,34.63c-.66,2.43-1.2,5.26-2.78,7-12,13.41-12.2,30.31-14,46.69-1.09,10.09-1.57,20.25-2.31,30.15-23.57-1.48-46.7-2.7-69.8-4.45-15.33-1.15-30-5.58-44.51-10.5-22.12-7.49-43.12-17.06-62.82-29.82-26.08-16.88-55.18-24.26-86.16-24.43-9.19,0-18.38,0-29.54,0,5.34-9.23,9.57-17,14.27-24.47a152.94,152.94,0,0,1,11.69-16.33c15.9-19.18,25-41.16,28.52-65.74,1.27-8.78,3.82-17.4,6.23-26,1.19-4.21,3.37-8.14,5.25-12.53,6.34,1.41,12.19,2.5,17.92,4,5.45,1.45,10.79,3.36,16.18,5.06Zm122.36,163c-1.91-19-4.47-38-5.56-57.08-1.11-19.59-.79-39.27-1.09-58.71C1165.85,1085.67,1169.28,1157.53,1179.56,1175.58Zm-40.77-21.7a5.19,5.19,0,0,0,.67-1.69c-.26-29.33,3.19-58.34,7.35-87.31,1.23-8.58,1.52-17.29,2.25-25.93C1141.17,1076.88,1134.17,1114.87,1138.79,1153.88ZM1292.88,980c8.55,27.9,38.63,58.25,58.76,59.85-11.7-8.66-24.33-15.86-34.13-25.84S1301,991.45,1292.88,980Zm61.42,25.81c-7-7.48-14.53-14.86-21.25-22.92s-10.13-18.64-18.48-27.54C1320.11,977.68,1340.57,1002.93,1354.3,1005.81Z"/><path class="cls-1" d="M988,703.48c9.62-4,11.24-12.15,11.81-21.15a91.76,91.76,0,0,0-8.34-44.6A258.18,258.18,0,0,1,981.32,612a26.09,26.09,0,0,1-.72-12c2.25-13.69,8.5-25.2,19.71-33.84,9-6.94,15.58-15.9,20.36-26.18,4.29-9.24,8.26-18.63,12.78-27.76,9.62-19.42,23.66-35.47,39.38-50.11a11.86,11.86,0,0,1,7.69-2.54c13.36.3,26.71,1,40,1.62,1.2,2.28,2.09,3.92,3,5.59,8.81,17.23,31.13,24.41,49.18,7.7,6.39-5.92,12.35-6.59,19.89-5.52,13.38,1.91,23.21,8.5,28.5,21.09a212.42,212.42,0,0,1,8,21.43c3.43,11.53,8.57,22.2,17.09,30.55,10.7,10.5,11.21,22.8,8.84,36.18-3.44,19.44-11.88,36.86-21.55,53.78-2.22,3.87-4.68,7.61-6.78,11.54-4.72,8.86-10.71,16.57-19.15,22.21a7,7,0,0,0-3,4.93l9.22-3.9c-.59,2.7-1.13,4.65-1.44,6.63-.84,5.32-2.16,10.65-2.25,16-.22,12.12,0,24.25.39,36.37.57,17.25-6.79,29.86-21.13,39.14-12.57,8.14-26.41,12.82-40.88,15.28a131.49,131.49,0,0,1-51.29-1.42c-13.61-3.08-25.38-9.91-37.19-16.92-12.59-7.47-25.44-14.51-38.31-21.5-9-4.88-18.14-9.43-25.21-17.07C991.53,718.07,987.59,712.37,988,703.48Zm218.63,38c-.53-.43-1.06-.86-1.58-1.3-1.29,1.09-2.67,2.07-3.86,3.26-3.13,3.16-6,6.59-9.29,9.56-14.5,13.07-32.09,19.48-51,21.52-17.57,1.89-35.06.32-51.07-8.26-18.22-9.77-36.57-19.34-54.29-30-10.85-6.49-20.62-14.78-30.86-22.28-1.83-1.34-3.58-2.79-5.36-4.19,7.79,13.37,19.94,21.58,32.6,28.89,15.68,9.07,32.26,16.65,47.63,26.2,17.48,10.86,36,15.77,56.32,14.32,25.33-1.81,47.73-10.42,65-29.83A92.84,92.84,0,0,0,1206.66,741.52Zm-73.4-188.88c5.45,4.53,9.87,4.61,14.59,3.4,16-4.09,26.14-24.53,20.24-40.73a25.1,25.1,0,0,0-26.46-16.15c-8.77,1.14-15.41,6.72-16.63,14.88,2.2-1.77,3.66-4.38,5.84-6.07,9.41-7.33,22.88-5.93,29.79,3.44,6.28,8.5,5.66,18,1.44,27.13-4,8.73-10.83,14-20.9,14.1C1139.15,552.66,1137.14,552.64,1133.26,552.64ZM1188,630.06c.2-.66.39-1.33.59-2-3.33-1.36-6.55-3.31-10-4-11-2.15-22.2-2.81-33,.69a41.73,41.73,0,0,1-27,0c-8.58-2.79-17.63-4.72-26.88-1.59a25,25,0,0,0,6.81,2.21c8.07,1.62,16.27,2.74,24.18,4.93a33.78,33.78,0,0,0,19.59-.1c12.43-3.8,25.08-3.19,37.75-1.32C1182.7,629.33,1185.35,629.69,1188,630.06Zm-107.66,63.36c-.2.45-.4.9-.61,1.35,3.46,1.89,6.76,4.17,10.39,5.6,9.49,3.75,19.6,3.4,29.22,1.75a41.26,41.26,0,0,1,25,3.37c7.61,3.43,15.57,5.65,24,4.7,1.55-.18,3-1.18,5.44-2.19-2-1-2.79-1.74-3.59-1.73-10.75.14-20.47-3.51-30.37-7.2a36.33,36.33,0,0,0-16.73-1.9c-13.78,1.79-27.21,2.59-40.16-3.7C1082.23,693.13,1081.21,693.42,1080.34,693.42Zm31.82-124.24c-2.38-.48-3.51-1-4.58-.89-11,1.11-22,3.53-33,3.23-18.11-.5-35.42-4.52-47.68-19.85-.19-.24-1.07.09-1.93.18,4.76,11.45,14.55,16.63,25.22,20.27,13.76,4.69,28.17,5.39,42.47,3.85C1098.92,575.3,1105.73,574.4,1112.16,569.18Zm60.26,105.64c-10.43-2.21-20.63-4.13-30.68-6.59-8.77-2.14-17.29-3.06-26.28-.76-11.73,3-23.6,6.88-36,1.74,5.5,6.79,12.69,7,20,6.09a93.66,93.66,0,0,0,13-2.8c10.73-2.94,21.28-2.83,31.74,1.2a31.54,31.54,0,0,0,7.35,1.95C1158.58,676.53,1165.77,679.21,1172.42,674.82Zm-4.16-99.76a50.76,50.76,0,0,0,31.22,12.44,35.88,35.88,0,0,0,27.66-10.41c1-1,1.24-2.77,1.83-4.18C1208.89,589.66,1188.73,583,1168.26,575.06Zm-31.86-63.49c15.68,2.24,23.62,6.21,17.38,28.06,8.33-6.21,9.49-16.17,2-24.24-2.81-3-7.18-5.16-11.23-6.29C1142.25,508.45,1139.15,510.65,1136.4,511.57ZM1001.12,614.05c1.22,16.37,17.28,35.51,32.23,37.34C1018.27,641.34,1007.39,629.62,1001.12,614.05Zm.87,37.56c6.51,14.86,21.39,28,28.55,27.16Zm109.68,76.93c.72-6.62,4.89-7.09,9.43-7s8.92,0,13.38,0l0-2.17c-7.23-3.66-14.78-3.22-22.12,0C1108.69,720.93,1107.47,724.05,1111.67,728.54Z"/><path class="cls-1" d="M767.57,861.66c3.51-9.54,7.23-19,10.47-28.62a209.53,209.53,0,0,0,11.16-61.73c.49-18.5,1.2-37,1.85-55.48.46-13,3.53-23.26,9.94-32.23l99,78.54c-4.44,9.17-7.91,17.7-12.5,25.58A1436.36,1436.36,0,0,1,799,922.82c-5.09,6.86-10.29,13.63-14.39,21.53,1.81-1.87,3.76-3.63,5.42-5.62,25.53-30.71,47.68-63.82,69.27-97.33,8.28-12.86,16.86-25.55,24.66-38.7,6-10.1,11-20.81,16.44-31.24.85-1.64,1.82-3.22,3.39-6l27.38,21.79c-1.9,11.16-7.89,19.65-14.87,27.5-4,4.53-8.69,8.46-12.79,12.92-6.52,7.11-12,14.94-14.13,24.57-.7,3.2-.62,6.56-1.08,12.1l12.6-12c1.06,7.21.11,13-3.58,17.88-5.57,7.33-11.57,14.35-17.71,21.22-3.64,4.08-8,7.76-7.64,13.76.22,4.26-3.16,5.27-5.52,7-8.44,6.27-17.21,12.1-25.61,18.41-16.54,12.43-28.76,28.88-41,45.2-11.46,15.28-22.57,30.83-33.61,46.42a101.63,101.63,0,0,1-25.58,25.5c-6.2,4.27-11.29,10.12-17,15.14a34.85,34.85,0,0,1-6.82,5c-9.58,4.94-18.72,11-29.79,12.41a7.08,7.08,0,0,0-2.63,1.12c-24.53,15-49,30.19-64.22,55.89-9.58,16.17-18.71,32.62-28.57,48.61-13.38,21.69-27.27,43.07-41,64.55a46.59,46.59,0,0,1-3.55,4.34c-7.09-1.59-13.82-3.43-20.66-4.58-19-3.21-32.32-22.12-35.11-37.56-.94-5.24,1-9.31,6-11.7a85.62,85.62,0,0,1,11.71-4c4.25-1.32,8.56-2.44,12.83-3.7a30.59,30.59,0,0,0,19.67-17c3.61-7.76,5.92-16.12,9.23-24,4.28-10.23,8.17-20.77,13.71-30.31a206.88,206.88,0,0,1,35.6-45.88c16-15.3,29.62-32.85,39.45-52.48,18.36-36.66,44-67,75.21-93,19-15.76,32.83-35.41,45-56.54,2.5-4.36,5.39-8.49,8.1-12.72-3.64,7.73-7.32,15.44-10.89,23.2a29.57,29.57,0,0,0-1.28,4.54,7.71,7.71,0,0,0,4.31-4c9.63-19,19.82-37.71,28.69-57,13.16-28.73,20-59.48,27.09-90.11,1.54-6.67,3.57-13.23,5.37-19.83a7,7,0,0,0-3.78,4.21c-3.34,10.91-7.08,21.74-9.68,32.83-8,34.17-19.26,67.14-35,98.52A88,88,0,0,1,767.57,861.66ZM667.81,1026l2.13,1.72c13.4-12.69,26.71-25.47,40.2-38.06,27.43-25.58,51.63-53.75,70.66-86.24,22.75-38.83,41.91-79.45,60.74-120.25.33-.72,0-1.72,0-4.88-4.11,7.73-7.27,13.54-10.31,19.42C814.44,830.23,798.1,863,780.7,895.26c-16,29.64-36.78,55.85-61,79.34q-23,22.33-45.87,44.81C671.74,1021.5,669.82,1023.79,667.81,1026Z"/><path class="cls-1" d="M779,1135.59c9.6-8.12,21-12.87,32.44-17.6,11.91-4.91,22.86-11.83,31.2-21.65,10.74-12.66,24-21.83,37.86-30.36,7.3-4.47,14.4-9.27,23.53-15.17-1.69,3-2.25,4.18-3,5.26-9.81,14.11-21.46,27.29-29.1,42.49-20.42,40.63-50.66,72.3-85.66,100.17-3.49,2.77-6.76,5.81-10.06,8.8-.29.26,0,1.11,0,3.1,5.1-3.63,9.74-6.59,14-10A460.31,460.31,0,0,0,840,1154.48a168.66,168.66,0,0,0,23.86-33.25c11.79-21.54,23.47-43.17,39.75-61.8,6.71-7.67,13.83-15,20.88-22.37a14.53,14.53,0,0,1,4.74-3c17.26-7.47,33.94-15.93,49.37-27.26-3.18,5-6.48,10-9.54,15-14.18,23.57-24.57,48.91-34.95,74.27-9.78,23.88-19.51,47.77-32.72,70.06-9.66,16.28-21,31.19-34.88,44.13a35.33,35.33,0,0,0-3.12,3.56c-.11.13.08.52.27,1.49a137.18,137.18,0,0,0,25.13-24.65c18.2-22.59,30.18-48.64,41.65-75,10.8-24.8,21.46-49.67,32.73-74.25a166.92,166.92,0,0,1,23.79-38c3-3.55,5.07-7.87,7.79-12.18l23.66,10.84c-7.5,16.47-10.78,34.13-14,51.82a97.63,97.63,0,0,1-20.26,44.87c-21.44,26.33-35.5,56.51-48.15,87.61a236.43,236.43,0,0,1-15.27,31.8c-17.11,28.79-43.1,45.71-75.5,52.3-18,3.66-36,2.51-53.44-5-22.78-9.85-45.84-19.14-70.38-23.85-10.6-2-21.3-3.54-33-5.46,4.32-3.91,8.24-7.33,12-10.91q34.41-32.55,68.76-65.18c7-6.69,11.25-14.6,10.06-24.68Zm30.72,88.78,2.56,3c6.87-6.41,14-12.55,20.56-19.26,20.59-21.06,37.3-45.12,53.2-69.79q27.95-43.33,56-86.57a16.62,16.62,0,0,0,1.22-3.18,5.06,5.06,0,0,0-4.15,1.8c-3.56,4.49-7.29,8.89-10.41,13.68-16.82,25.89-33.64,51.79-50.16,77.89-18.13,28.63-38,55.84-63.24,78.7A44.12,44.12,0,0,1,809.74,1224.37Z"/><path class="cls-1" d="M538.77,1172.75c-3.89-9.76-10.92-14.64-20.07-17.11-5.53-1.49-10.82-3.87-16.36-5.27-10.17-2.58-18.61-8.27-26.72-14.45-9.8-7.48-11.42-18-3.56-27.35,13.36-15.85,27.31-31.19,41.07-46.7,12.27-13.84,25-27.29,36.83-41.51,15-18,26.31-38.37,34.93-60.17,13.49-34.12,36.3-61.21,63.84-84.69A360.44,360.44,0,0,1,695,841.66c6.24-3.8,10.53-10.81,16.49-17.2a90.13,90.13,0,0,1-18.33,27.66c-12.79,13.37-25.95,26.39-39.18,39.33-17.59,17.21-31.48,36.82-39.55,60.2-14.46,41.89-39.56,76.91-70,108.42-6.83,7.08-14.87,13-22.38,19.4a32,32,0,0,0-5.26,5c9.6-3.06,17.07-9.41,24-16.17,34-33.12,61.77-70.45,77.62-115.72,7.75-22.16,20.55-40.88,37.43-57,10.84-10.38,21.48-21,32.16-31.5,19.54-19.27,32.69-41.85,38.35-69.1,6-29,13.1-57.73,20.54-86.36,4.63-17.84,11.85-34.86,20.51-52.33,10,8.19,19.46,16,28.39,23.31-2.72,8.54-6.27,15.91-7.25,23.6C786.7,718,785.9,733,785.31,747.92c-.74,18.78-.37,37.58-4.25,56.17-3.2,15.33-7.26,30.32-13.53,44.67-8.58,19.65-19,38.37-32.57,54.92-7,8.51-16,15.53-24.65,22.42-11.47,9.09-23.81,17.09-35.28,26.18-4.8,3.81-8.33,9.24-11.24,15l26.29-23.61,1.46,1.37a24.73,24.73,0,0,1-2.52,3.19c-21.91,20.11-38,44.5-52.24,70.34a257.62,257.62,0,0,1-44.25,58.53c-9.49,9.44-18.31,19.59-27,29.75-3.1,3.61-7.57,7.14-5.64,13.18.13.43-.47,1.14-.8,1.67-8.84,13.92-12.55,29.84-17.63,45.22A61.42,61.42,0,0,1,538.77,1172.75Zm184.89-270.9,1,1.22a20.29,20.29,0,0,0,3.11-3.33c7.71-13.16,16.46-25.87,22.72-39.7,12.08-26.69,16.4-55.27,17.6-84.44.77-18.75,2.15-37.49,3.63-56.21.62-8,2.19-15.84,3.32-23.76a12.44,12.44,0,0,0-3.35,6c-5.72,19.42-6.25,39.54-7.87,59.49-1,12.37-1,24.83-2.06,37.19a198.49,198.49,0,0,1-23.23,78.07C733.8,885,728.62,893.35,723.66,901.85Z"/><path class="cls-1" d="M724.46,569.05c-16.21,8.85-21.68-4.87-30.42-13.69-.18,2.31-.27,3.38-.43,5.5l-21.15-14.15c10.19-6.24,20.19-10.25,30.94-8.06,4.54.93,8.41,6.34,12,10.24,2.07,2.25,2.94,5.6,4.44,8.4.74,1.38,1.67,3.79,2.53,3.79,10.32.08,11.34,9.67,16.08,15.39,1.57,1.89,2.82,4,4.89,7.08,1.68-6-2.38-9.17-3.74-13.79,14.84.41,27.57-5.86,40.88-9.94,7.29-2.22,14.6-4.56,22.06-6a37.94,37.94,0,0,1,14.25.07c14.89,3,29.66,6.65,44.71,10.1-2.84-5.83-3-5.92-14.68-8.5,7.31-23.43,15-46.49,32.41-64.86,5.92-6.23,11.4-12.92,16.7-19.7,4.21-5.38,10.19-10.46,6.22-18.68,2.76-7.41,4.32-15.6,8.57-22,5.18-7.83,12.67-14.13,19-21.2,3.26-3.61,7.18-3.85,11.36-2.57,4.86,1.49,10,2.59,14.36,5,16.38,9.15,32.49,18.77,49,28.37-5.54,19.11-4.72,39.27-17.37,56.45-3.57-11.07-5.71-22.14-17.84-28,.29,2.12.09,3.25.55,3.73,13.54,13.86,16.25,30.76,9.41,47.68-12.2,30.16-26.53,59.42-50,83-8.29,8.32-14.06,18.05-16.2,29.72-.9,4.88-3.22,8.74-8.51,8.78-20.58.15-39.84,8-60.21,9.66-23.92,1.9-44.57-4.61-62.77-20.1-8.25-7-17.11-13.3-25.72-19.88-.93-.71-2-1.16-4.29-.41,2.37,2.21,4.58,4.61,7.12,6.6,28.85,22.64,57.9,45,86.58,67.89,22.94,18.29,45.42,37.16,68.15,55.71,4.19,3.42,8.84,6.32,12.85,9.92,5.38,4.84,10.34,10.14,15.31,15.06L933,783.43c-19.16-15.27-38-30.36-57-45.38Q845.72,714,815.31,690C792.62,672,770,653.86,747.22,636c-4-3.15-4.76-6-2.82-10.58a88.06,88.06,0,0,0,4.15-13.7c1.82-7.5.9-14.53-4.25-20.7a61,61,0,0,1-4.31-6.31c-2.52-4-4.27-8.32-9.7-9.85C727.94,574.24,726.32,571,724.46,569.05ZM848.38,590c-10.33-6.92-21.65-7.94-33.45-7.6-14.82.42-28.61,10.08-45.81,3.11,6.43,7.62,13.16,7.33,19.14,6C808.23,587,828.1,584.79,848.38,590Zm83.77-108.74c-8.46,9-19.52,13-30,18.29-13.61,6.83-20.88,19-25.08,33.23-.22.75.33,1.72.54,2.64.53-.26,1-.33,1.07-.56.95-2,1.82-4,2.74-6.05,6.18-13.53,15.18-24,29.84-28.95a57,57,0,0,0,13.37-7.19C928.45,490.07,932,486.87,932.15,481.24Zm-5.23,76.22c18.94-10.93,33.59-49.7,22.89-62.61-.1,12-.34,23.61-5.67,33.93C939,538.71,932.67,548,926.92,557.46Z"/><path class="cls-1" d="M1087.58,876.8h48.08c14.23,26.28-5.09,88.58-31.82,100.35-4.85-5.56-6.8-12.17-5-19.26a132.84,132.84,0,0,1,7.28-21.6c6.48-14.6,9.71-38.78,5.1-57.55-1,2.66-1.61,4.12-2.08,5.62a5.25,5.25,0,0,0,0,1.9c1.69,21.42-8.1,38.25-22.11,52.93-7.67,8-16.57,14.92-24.94,22.3-2.77,2.44-5.6,4.82-7.68,8,19.49-10.9,36.4-24.73,48.66-43.82l1.72.84c-1.22,3.56-2.5,7.11-3.65,10.69-2.33,7.23-5.31,14.35-6.7,21.76-1.81,9.73,1.82,17,10,23.28,15.74-8.79,25.29-22.67,32.19-40.87,1.71,15,13.4,20,22,28.38,10.4-9.43,12.22-21,11.21-33.45a48.74,48.74,0,0,0-1.52-8.46c-4.6-17.2-9.29-34.38-14-51.56-2.14-7.9-2.37-15.67,1.58-23.16,3.82-7.25,7.63-14.5,12.19-23.18,1.82,3.66,3,5.74,3.91,7.9,3.36,7.57,6.48,15.25,10,22.72a85.61,85.61,0,0,1,8.7,38.79,41.81,41.81,0,0,0,3.89,18.5c3.73,8.12.58,20.12-7.12,27.16l-14.84-7.69c4.06,5.84,8.48,9.69,12.05,11,4.21,1.5,8.19,0,10.89-5.17,2.18-4.13,3.49-8.73,5.48-13.89l6.35,5c2.58-2.63,5.4-4.76,7.27-7.54a73.29,73.29,0,0,0,11-28.3c1.27-7.18-1.36-13.85-3.91-20.4-3-7.7-6.49-15.27-5.14-24.7,7.11,1.86,11.49,6.51,14.8,12.29a122.47,122.47,0,0,1,6.29,12.87c4.76,11.15,13.43,17.37,25.6,20.79,3.31-14.37,5.31-28.22-1.63-43.29,14.82,7.71,30.14,12.07,41.25,24.12,7.19,7.8,8.2,13.49,2.16,22.07a276,276,0,0,1-46.94,51.5c-10.53,9-23.28,14.28-35.93,19.68-10.23,4.36-20.79,8.4-30.16,14.26-22.34,14-47.31,20.26-72.37,26.26-14.34,3.42-29.4,5.13-43.52.2-16.52-5.77-33.57-9.46-50.14-14.82a186,186,0,0,1-27.25-11.48c-21.25-10.88-42.61-21.65-63.18-33.72-17.15-10.06-31.85-23.35-42.91-40.28a49.81,49.81,0,0,0-8.87-9.93c-1.33-1.16-4-.77-7.32-1.27,1.9-2.47,3.43-5.15,5.58-7.17a123.13,123.13,0,0,0,21.84-27.71c1.33-2.24,3.78-4.67,6.17-5.31a127.91,127.91,0,0,0,40.54-18.78c.37-.26,1.12,0,2.5.12a45.63,45.63,0,0,1-3.23,4.62c-10.14,11.24-14.46,24.49-14,39.5.25,8.37.63,8.94,9.12,10.06,1.24.17,2.47.36,4.2.62l1.88,8.29c1.17,5.22,2.72,6.57,7.77,5.93,9-1.15,17.44-4,24.17-10.42,5.53-5.29,10.69-11,16.25-16.23,8.93-8.44,18-16.67,27.09-25l1.48,1.28c-5.15,7.13-9.63,14.89-15.59,21.27-14.6,15.63-21.33,34.35-23.85,55.47,11.07,5.19,21.44,3.55,31.52-3.88,1.16,11.83,5.17,21.89,12.08,32.55l9.88-13.58c4.39,5.72,0,14.81,9.06,18.73-.62-4.44-1.39-8-1.53-11.48a56.16,56.16,0,0,1,.54-11.45c.44-2.66,1.23-6,3.11-7.58,15.37-12.85,22.56-30.51,29.12-48.56,2.06-5.68,3.74-11.5,5.6-17.25Zm-179.09,9.53-1.4,1.38a27.57,27.57,0,0,0,2,2.66c8.39,8.73,16.89,17.34,25.18,26.16,6.61,7,14.36,12.35,22.57,17.4a275.58,275.58,0,0,1,29.47,20.91c18.05,14.67,38,25.38,60.52,31.15.9.23,1.94-.06,3.87-.16a20.22,20.22,0,0,0-2.46-1.84c-1.75-.74-3.56-1.35-5.32-2.09-20.51-8.68-40.85-17.54-57.74-32.79A111.16,111.16,0,0,0,962.83,933c-15-7.88-27-18.91-38-31.43C919.93,896,914,891.39,908.49,886.33Zm382.69-11.6c-3.67,4.13-5.88,6.59-8.06,9.08-11.93,13.62-23.51,27.57-35.94,40.72a51,51,0,0,1-17.12,11.7c-16.65,6.9-31.41,16.63-45.41,27.71a32.64,32.64,0,0,0-3.21,3.33,20.77,20.77,0,0,0,8.09-3.73,199.09,199.09,0,0,1,42.33-23.64,56.67,56.67,0,0,0,15.18-9.68c17-14.58,30.94-31.94,43.48-50.43C1291,879.16,1290.77,878.11,1291.18,874.73ZM1075.3,990.82c23.45,4.1,46.59,6.06,68.34-6.51C1121.3,992,1098.13,990,1075.3,990.82Z"/><path class="cls-1" d="M1501,829.89a69.38,69.38,0,0,0-4.35,5.68c-7.54,12.59-14,17.21-30.19,4.45-6.62-5.21-12.09-12.31-16.87-19.37-20.79-30.73-34.09-64.69-42.06-100.82-1.15-5.17-2.12-10.39-3.32-16.36,5.47,2.9,10.48,5,14.72,8.08,1.93,1.41,3.7,5.19,3.21,7.37-2,8.71,3.46,11.31,9.84,13.51,1.5.51,3,.89,2.84.84,6.83,9.79,12.54,18.56,18.86,26.87,7.9,10.39,15.13,11.48,26.48,4.69,8.44-5.05,16.83-10.19,26.29-15.93,1.49,12.75,3.55,24.29,4,35.89q1.61,38.69,1.84,77.43a156.67,156.67,0,0,1-9.36,54.34c-3.72,10.27-9.21,19.08-20.77,21.83-11.36,2.71-21.47,1.94-30.76-7.15-35.36-34.58-59.92-75.78-77-121.84-16.07-43.43-26.83-88.26-35.55-133.64-2.28-11.87-4.94-23.68-6.73-35.62-1.17-7.82-1.07-15.82-1.66-25.6,3,2.42,4.63,3.59,6.12,4.9,4.29,3.78,8.37,7.84,12.84,11.4,10.44,8.32,16.7,19.56,19.66,32,3.58,15.1,11.09,27,23.3,36,6.76,5,10.27,11.46,11.88,19.83,5.35,28,13.58,55.14,27.76,80A382.39,382.39,0,0,0,1457,836c3.68,5,9.09,9,14.36,12.44,8.27,5.45,14.8,4.75,21.93-1.11C1497.79,843.59,1501,837,1501,829.89Z"/><path class="cls-1" d="M574.19,1359.89c-2.92-3.26-4.61-5-6.13-6.88a28.73,28.73,0,0,0-22.36-11c-6.69-.22-13.41.24-20.09-.12-8.82-.49-11.34-3.83-9.9-12.32a104.67,104.67,0,0,1,2.07-10.29c3.67-13.35,9.72-24.29,23.88-29.85,15.19-6,23.81-18.87,29.13-33.73,5.66-15.81,14.21-29.9,24.37-43,6.43-8.3,14.14-15.59,20.72-23.78a145.08,145.08,0,0,0,14.61-21.13c6.84-12.54,8.8-25.82,1.85-39.52,2.47-3,4.6-6.28,7.32-8.89a198.48,198.48,0,0,1,52.44-36.12c10.63-5,21.31-10,32.29-14.23,7.33-2.79,15.15-5.36,22.88-5.81,12.84-.75,20.92,7.31,22,20.13a128,128,0,0,1,.22,15.3c-.41,11.8-.89,23.57,3.69,34.85,3.44,8.47.73,15.57-5.36,21.71-5.39,5.43-10.77,10.87-16.34,16.12-19.27,18.14-38.49,36.33-58,54.22-7.27,6.67-15.31,12.49-22.87,18.84-17.31,14.55-34.67,29-51.76,43.84a173.66,173.66,0,0,0-30.2,34.42,56.06,56.06,0,0,0-9.11,21.84C578.68,1349.22,576.37,1353.75,574.19,1359.89Zm89-251c1,4.54,2.17,9,3,13.62,4.44,26.18,2.14,50.72-17.54,71-4.44,4.57-8.9,9.14-13.17,13.87-7.89,8.75-16.36,17.09-23.28,26.56-9.94,13.59-18.92,27.92-27.92,42.18-10.78,17.08-22.65,33.11-39.27,45.07-.66.48-1,1.45-2.34,3.58a65.63,65.63,0,0,0,26-20.64c8-10.65,16-21.46,22.9-32.86,14.09-23.28,29.9-45.07,49.62-64a177.25,177.25,0,0,0,16.45-18.6c3.9-5,8.42-10.21,10.07-16.06,3.87-13.75,6.45-27.94,4.42-42.4C671,1122.51,669.62,1114.79,663.24,1108.91Zm-85.41,222a61.05,61.05,0,0,0,0-6.63c-1.41-12.88,3.49-23.68,10.9-33.69,1.9-2.56,3.66-5.23,5.68-7.69,12.17-14.75,24.69-29.22,36.51-44.24s23.59-30.11,37.74-43.13c9.18-8.44,19.76-14,32-15.87,10.67-1.65,21.44-2.67,32.16-4,3-.37,5.89-.92,8.83-1.4-2.11-2.18-4.14-2.87-6.11-2.74-8.58.53-17.2.91-25.7,2.08-16,2.2-31.23,6.73-43,18.77-8.66,8.88-17.48,17.67-25.51,27.11-13,15.29-25.59,30.93-38,46.7-8.45,10.75-16.67,21.72-24.28,33.06C572.43,1309.16,572.22,1320.12,577.83,1330.94ZM683.1,1097.43l.62,1.52c2-.49,4.23-.66,6.09-1.52,11.52-5.34,23.05-10.67,34.39-16.36,6.58-3.29,12.93-7,20.61-6.61,6.63.31,10,2.93,11.33,9.34a60,60,0,0,1,1.14,11.36,197.65,197.65,0,0,0,6.16,46.79,24.08,24.08,0,0,0,1.41-9.75c-.93-14-2.06-27.92-3.15-41.87a47.74,47.74,0,0,0-.7-4.73c-2.21-12.16-10.93-18.11-22.87-14.91-5.15,1.38-10,4-14.85,6.36-11.12,5.47-22.14,11.14-33.2,16.74C687.74,1095,685.43,1096.22,683.1,1097.43Zm-6,72.28c10.94-15.83,8.22-53.87-5.61-68C680.81,1124.88,681.28,1147,677.11,1169.71Zm66.07-10.32c-16.86-.4-33.67,0-49.57,6.7C710.23,1164.71,727,1164.16,743.18,1159.39Z"/><path class="cls-1" d="M779.25,1135.41a54.28,54.28,0,0,1-5.52-26.6c.36-7.64.27-15.31.27-23,0-17.41-13-30.63-34.43-26.87-2.12.37-4.22.88-7.12,0,2-1.63,3.88-3.59,6.12-4.85,16.69-9.35,27.4-24.12,38.18-39.42,15.76-22.38,32.42-44.22,50.07-65.13,8.49-10.07,19.89-17.79,30.39-26.05,7.75-6.09,16.17-11.33,25.15-17.53L894,922.08c-14.39,13.37-27,27.16-35.17,44.56,4.94-3.21,7.38-8.65,11-13,4.12-4.87,8.05-9.9,12.35-14.6,4-4.4,8.44-8.46,13.32-13.31,14.09,14.32,28.31,27,45.11,36.36,16.39,9.09,33,17.84,49.74,26.89-17.86,18-38.55,30.88-61.43,40.13-10.2,4.13-19,10-27.6,16.74-12.48,9.84-25.91,18.48-38.94,27.63-9.17-.57-11.91,7.22-16.41,12.67a103.22,103.22,0,0,1-39.52,29.39,132,132,0,0,0-20.25,10.57c-3.13,2.06-4.87,6.25-7.24,9.47Zm82.46-105.66c17-3.07,52.87-23.87,61.11-35.22Z"/><path class="cls-2" d="M690.44,575.4c-2.93,1.14-5.92,2.12-10.46,3.73-20-15.62-40.43-31.42-60.71-47.41-29.29-23.09-58.41-46.39-87.7-69.47q-78.15-61.59-156.41-123Q311.26,289,247.3,238.82c-6.13-4.8-11.6-10.43-20.45-11.35-4.56-.47-9-4.58-13-7.62-19.34-14.6-38.48-29.46-57.84-44a26.24,26.24,0,0,0-9.29-4.27c-17-4.19-32.62-11.18-45.32-23.45C89.25,136.36,77.1,124.55,65.84,112,44.35,88,23.49,63.42,2.38,39.08A5.89,5.89,0,0,1,1,34.73c4.78,2.11,9.74,3.9,14.32,6.38C45.85,57.66,77,73,105.84,92.67c21.44,14.64,41.27,30.76,58.65,50.25,9.22,10.34,21.23,18.21,32.12,27,13.14,10.64,26.51,21,39.6,31.69,4.37,3.58,8.67,7.17,10.58,13.18.93,2.92,4.47,5.2,7.18,7.34,20.79,16.38,41.68,32.63,62.52,49q78.67,61.69,157.31,123.45c25.55,20.12,50.68,40.77,76.31,60.79,38.69,30.22,77.66,60.09,116.51,90.12q11,8.49,21.83,17.1a24,24,0,0,1,4.85,4.57C695.67,570.49,694.4,573.86,690.44,575.4Z"/><path class="cls-1" d="M1116.87,250.69l-6.18-5.7c-16.36,8.67-31.76,19.25-51.63,18.33,0-13.09,0-25.47,0-37.84a77.92,77.92,0,0,1,9.54-36.55,163.5,163.5,0,0,1,32-42.56c19.27-18.29,40.34-15,58.12.1,11.08,9.41,17.63,21.9,21.92,35.27,5.55,17.29,9.17,35.24,7.95,53.5a297.25,297.25,0,0,1-5.89,40.55c-2.31,11.08-4.14,21.9-.4,32.85,1.29,3.79-.06,6.52-2.86,8.25-8.34,5.15-16.93,9.92-25.42,14.84,4.15-2.84,8.3-5.69,12.46-8.51,4.55-3.1,9.35-6,12.15-11.75-8,4.85-14.94,10-22.62,13.51-15.77,7.22-29.83,16.91-43.39,27.51-3.51,2.73-7.09,5.4-10.8,7.86-1.57,1-3.55,1.49-7.06,2.89,5.61-13.39,5.44-25.12,1-36.9-3.28-8.75-2.5-10,5-15.7A120.4,120.4,0,0,0,1116.66,297c14.09-15.18,15.09-30.38,3.68-47.69a45.71,45.71,0,0,0-4.32-5l-.76.89Zm-3.8-13.22c-2.83,0-4.7-.53-6,.1a46,46,0,0,0-9.73,5.82c-8.18,6.91-17.27,11.56-27.92,13.18-2.48.37-4.83,1.58-7.23,2.41,10.21,2.35,19.12-.67,27.29-5.51C1097.2,248.9,1104.38,243.42,1113.07,237.47Z"/><path class="cls-1" d="M1369.17,648.5c-5.49-10.24-14-16.86-21.49-24.63-14-14.55-31-25.42-45.8-38.87-13.29-12.06-21.19-27.74-28.14-43.87a187.49,187.49,0,0,1-8.51-24.26A140.13,140.13,0,0,0,1247,476.32c12.29-5.26,24.32-9.81,35.8-15.47,11.66-5.75,22.77-12.61,34.28-19.06,8,4.76,13.33,11.54,18.7,18.13,6.82,8.37,12.61,17.61,19.75,25.67,11.92,13.46,18.61,29.57,24.64,46,4.74,12.91,11.53,24,22.81,32.18a32.84,32.84,0,0,1,4.26,3.83c9,9.38,9.21,13.72.65,23.22q-6.07,6.75-12.63,13.06C1382.44,616.23,1371.75,629.76,1369.17,648.5Zm-92-142.68-1.62,1.62c7,10.14,14.89,19.14,26.18,25.27,10.28,5.59,19.76,12.64,29.61,19a39.21,39.21,0,0,0,3.59,1.85c-.47-2.78-1.56-4.77-3.22-5.92-8.85-6.14-17.56-12.57-26.89-17.91-7.81-4.48-15.42-8.77-20.64-16.44C1282.32,510.51,1279.57,508.3,1277.21,505.82Zm99.26,72.07c-10.23,4.67-16.9,14.41-19.37,27-1.25,6.42-1.25,6.42,3.05,11.53C1359,600.56,1367,589.05,1376.47,577.89Z"/><path class="cls-1" d="M1417.58,1062c-1.31,5-1.87,9.82-3.8,14a224.75,224.75,0,0,1-12.19,22.68c-9.37,15.28-17.06,31.24-22.13,48.48-8.39,28.48-21,55.26-33.27,82.2-10.27,22.64-19.22,45.75-25,70a59.12,59.12,0,0,1-2.6,8.16c-1.89,4.74-3.74,9.22-1.76,14.63,1.26,3.45,0,6.77-3.82,8.8-4.76,2.57-9.18,5.76-14,8.29-8,4.23-16,3.8-23.42-1.47-7.28-5.14-14.56-10.29-21.62-15.73-6.8-5.24-7.08-9.59-4.9-18.31a191.92,191.92,0,0,0,5-30c1.29-14.88,2.86-29.92,1.94-44.75-.83-13.44-.13-26.71.75-40,.7-10.7,3.18-21.31,5.36-31.87,1.75-8.42,7.08-14,15.37-16.75,12.68-4.16,25.27-8.61,38-12.58,17.68-5.51,35.65-10.79,49.85-23.17,9.77-8.51,18.09-18.72,26.88-28.33,2.78-3,4.75-6.82,7.51-9.9C1404,1061.65,1409,1058.62,1417.58,1062Zm-53.51,107.51,2.13.37q9.25-24.69,18.5-49.38c6.27-16.66,14.67-32.51,19.49-49.89a8.94,8.94,0,0,0-4.59,3.3c-3.79,5.51-7.68,11-11,16.74-7,12-16.56,21-29.7,25.73-16.41,5.95-32.9,11.69-49.33,17.59q-13.44,4.82-26.77,9.93c-1.38.54-2.45,1.9-3.66,2.88l.71,1.07,75-23.6C1360.7,1138.75,1359.53,1154.8,1364.07,1169.54Zm-53.85,27.23c2.92,7,7.42,9,13.61,5.25,10.19-6.19,16.29-15.49,16.5-27.48.33-18.36-20.37-30-33.09-24.34-14,6.26-22.88,16.57-24.32,31.63a157.65,157.65,0,0,0,.61,35.21c2.18,16.63-.45,31.59-10,45.42a39.55,39.55,0,0,0-4.24,8.51c-3.67,10,.57,19.36,10,23.51,9.94,4.37,21-2.32,24.61-9.19,2.87-5.46,1.61-11.37-4.37-18,.25,4.16.65,7.15.54,10.13-.1,2.47-.2,5.24-1.33,7.31-3.23,5.86-13,8.23-19.52,5.17-6.21-2.92-9-9.78-6.33-17a91.86,91.86,0,0,1,6.54-12.7,67.52,67.52,0,0,0,8.54-38.56c-.54-8.25-2.43-16.48-2.3-24.69a99.37,99.37,0,0,1,3.39-23.42c2-7.6,7.2-13.39,14.2-17.29,14-7.79,29.54-1,32.46,14.46,1.78,9.5-2.27,17.55-8.68,24.23C1322.49,1199.78,1319.26,1199.81,1310.22,1196.77Zm42-65.2c-.88,1.26-1.56,1.8-1.5,2.21.5,3.12,1,6.27,1.77,9.33,6.26,23.68,4.19,46.19-6.72,68.49-9.76,19.93-17.78,40.73-26.18,61.3-2.27,5.56-3.15,11.68-4.67,17.55,1.94-.42,2.53-1.15,2.82-2,9.63-28.32,21.65-55.64,34.71-82.51,10.77-22.16,9.82-44.85,3.2-67.79C1355,1136,1353.48,1134,1352.18,1131.57Zm-40.56,42.35c1,8.12,2.16,10.43,5.45,11.24a9.77,9.77,0,0,0,9.72-2.42,14.39,14.39,0,0,0,1.9-18.34c-4.3-6.3-10.58-7.94-17.5-4.64a21.45,21.45,0,0,0-10.86,11.57,29.62,29.62,0,0,0-1.22,19.64c4.18,15.11,6.86,30.35,3.34,46-.08.35.61.86,1.33,1.8,2.8-6.07,4.89-12.14,4.28-18.44-.86-8.81-2.85-17.5-4.08-26.28a93,93,0,0,1-1.3-16c.21-6,3.54-10.8,8.73-14,3.83-2.36,7.88-2.51,11.69,0,3.35,2.25,4.75,8,3.26,12.15-1.85,5.2-7,6.27-11.11,2.27C1314.39,1177.68,1313.73,1176.62,1311.62,1173.92Zm.38,144.69c-6.16.55-6.16.55-10.92,4.28-10.39,8.14-13,8.15-23,0-3.1-2.54-6.18-5.11-12.07-5.19,5.92,5,10.69,9,15.47,13a11.54,11.54,0,0,0,11.64,2.14C1300.86,1330,1306.31,1324.11,1312,1318.61Zm-13.52-44.88a33.43,33.43,0,0,0-3.44,2.8c-2.08,2.4-4.16,5.49-7.72,2.89-3.11-2.27-2-5.5-.75-8.59a76.41,76.41,0,0,0,2.3-7.35,6.72,6.72,0,0,0-4,3.14,24.28,24.28,0,0,0-2.07,4.22c-2.22,6.08-.27,11.45,4.8,13.43C1291.89,1286,1295.9,1282.56,1298.48,1273.73Z"/><path class="cls-1" d="M984.85,696.46c-1.54,6.34-2.59,11.63-4.12,16.79a52.48,52.48,0,0,1-13,21.9c-7.44,7.71-13.76,16.5-20.58,24.82-.77.93-1.63,1.78-2.06,2.25-8.87-8.11-17.5-16-26.9-24.59,12.54-25.22,23.51-51.85,30.23-80.11-11.26,25.82-19.52,53-34,77.93L813.76,654.51c10.54.17,21.57,1.09,32.49.31,10.08-.72,20-3.4,30-5,7.16-1.12,14.38-2.36,21.6-2.6,10.7-.35,17.22-4.29,19.21-14.76,2.34-12.27,9.19-21.62,17.39-30.15C949,587.23,960.24,570,969.14,551.13c5.14-10.9,10.52-21.7,16.11-33.19,3.72,4.8,3.16,10,1.55,14.43a109.51,109.51,0,0,1-9.3,19.71c-6.33,10.44-12,21.07-13.26,33.4-.44,4-.76,8.36.15,12.25,3.39,14.67,8.15,28.91,19,40a37.86,37.86,0,0,1,10.87,21.72c1.57,10.76,2,21.47-.41,32.21C992.72,696.7,990.27,698.81,984.85,696.46Z"/><path class="cls-1" d="M1470.69,944.27c19.84,0,30.88-10.69,36.91-28.09,5.56-16.08,8.31-32.68,9.34-49.55,2-32.19-.1-64.26-3.59-96.29-6.21-57-15.23-113.47-30.85-168.73-14.35-50.73-33.77-99.41-59.25-145.61-7.75-14.06-17-27.07-29.75-37-6.67-5.21-14.25-9.25-21.89-14.11,1.83-.09,3.82-.53,5.68-.21,18.2,3.16,32.15,13.7,44.06,26.9a200.36,200.36,0,0,1,21.39,28.09A743.33,743.33,0,0,1,1515.09,611c10,29,16.2,58.82,20.84,89.09A692.33,692.33,0,0,1,1543,831.7c-1,26.87-5.5,53.24-17.14,77.85-5.48,11.58-12.23,22.38-22.07,30.9S1482.68,950.35,1470.69,944.27Zm52.54-70.83a7.72,7.72,0,0,0,1.15-2.39c1.34-14.26,3.17-28.52,3.79-42.82,1.9-43.84-3.35-87.22-9.9-130.41a762.63,762.63,0,0,0-20.49-96c-10.82-37.69-23.13-74.82-43.1-108.9-.92-1.57-2.09-3-3.14-4.5C1507.58,610.91,1530.11,739.3,1523.23,873.44Z"/><path class="cls-1" d="M1480,611.17c-8.64,5.52-9.5,14.9-10.39,24.91l-18.27,3.07c-3.46-13.3-4.73-26.84-17-35.38,1.23-1.95,2.11-3.52,3.17-4.95,12.77-17.15,11-40.61-.12-58.5-3.2-5.16-7.65-5.28-10.31,0-1.88,3.74-2.48,8.52-2.32,12.79a38.4,38.4,0,0,1-6.39,23.74c-4-8.64-10.47-14.36-17.12-19.91a50.57,50.57,0,0,1-15.11-21.74c-2-5.37-4.47-10.55-6.46-15.92-5.6-15.16-13.66-28.73-25.25-40.12a59.86,59.86,0,0,1-6.72-8.09c-1-1.46-2.09-3.46-2-5.12,1.24-14.59,1.68-29.31,6.46-43.36a35.35,35.35,0,0,1,3.2-6.92c3.23-5.29,8.27-7.21,14.9-5.43,9.46,2.52,17.3,7.94,24.41,14.49,10.94,10.06,19.11,22.24,26.11,35.19,25.24,46.69,44.48,95.8,58.75,146.88A26.43,26.43,0,0,1,1480,611.17Z"/><path class="cls-1" d="M1039.45,794.69c-9.6-4.16-19.52-7.74-28.71-12.67-8-4.27-9.39-10.15-5.91-18.68,2.27-5.54,5.07-10.86,6.89-16.74-6.69,5.33-9,13.65-14,21-12.42-3.85-20.61-14.87-34.29-18.51,1.76-3.42,2.63-6,4.25-8.07,3.16-4,7.21-7.3,10-11.49s4.51-9.06,7.13-14.51c9.43,16.39,24.95,24.05,40.43,32.1,14.38,7.49,28,16.53,42.26,24.18,41.66,22.28,83,20.63,123.65-2.85,4.89-2.83,9-6.93,14.43-11.15,1.29,7.42,2.71,14.36,3.57,21.38a8.24,8.24,0,0,1-2.11,5.83,28.81,28.81,0,0,1-7.57,5.7c-8.18,4.27-15.39,10.08-23.19,14.91-10.7,6.62-16.22,18.48-21.37,29.94-3.12,7-6.66,13.75-9.8,20.72s-7.74,10.35-15.75,9.32c-7.56-1-15.24-1.06-22.88-1.45-7.88-.4-12-4.95-14-12.16-.91-3.38-1.87-6.74-2.91-10.08-5.63-18.05-16.16-32.59-32.38-42.32-14.41-8.64-29.4-16.33-44.61-23.81,1.63,3.89,5,5.82,8.34,7.77,6.3,3.72,12.67,7.31,19,11Zm69.22,3.47c2.49,5.2,5.33.86,7.62,0,13.27-4.93,25.61,4.12,24.47,18.19-.16,1.93-.41,3.86-.62,5.79,4.6-3.71,5.74-8,4.34-13.31-3-11.2-18.41-21.51-31-13.07a54.47,54.47,0,0,1-5,2.66c-1.15-.32-2.88-1.28-3.34-.86-14.51,13.33-12.07,39.28,4.56,49.72,12.27,7.7,28.18,0,30.83-15.86-3.29,3.62-5.81,6.77-8.73,9.51-7.81,7.34-17.09,6.93-24.44-.87C1096.14,828.17,1096.64,812.39,1108.67,798.16Zm25.65,34.8c-6.09,1.31-11.46,4-16.14,3-4.4-.86-8.08-5.48-13.51-9.52,3.94,7.62,7.09,13.6,14.8,14.43C1126.05,841.61,1130.81,838.46,1134.32,833Z"/><path class="cls-1" d="M882.34,414.53c3-7,8.42-11.34,14.26-14.86,17.27-10.4,35.17-11.91,53.62-2.83,10.84,5.34,21.55,10.72,34.15,11.41,8.23.45,14.34,6.33,20.5,11.5,17.84,15,39.28,20.3,61.82,22.44a10.06,10.06,0,0,0,6.73-1.81c-6.87-1.45-13.73-3-20.62-4.34-18.7-3.76-36.13-10.21-50.43-23.46-6.6-6.11-14.63-8.25-23.41-9.6-7.08-1.09-13.89-4.22-20.65-6.89-5.9-2.33-11.36-5.92-17.39-7.73-5-1.52-10.65-1.78-16-1.66-5,.11-10,1.45-15.08,2.26,6.91-14.46,21.75-21.29,36-15.5,10,4,19.38,9.49,28.83,14.71,7.8,4.31,15.35,8.83,24.21,11.07,4.36,1.1,8.18,4.58,12.06,7.24,4.89,3.35,9.59,7,14.37,10.48l1.67-2c-3.33-2.89-7-5.51-9.94-8.73-6.25-6.76-13.31-11.51-22.68-13.13-4.22-.73-8.17-3.48-12-5.68-12.94-7.35-25.78-14.87-39.07-22.56,7.5-2.2,15.09-5.09,22.94-6.53,7.38-1.36,14.09,1,20.23,6a81.09,81.09,0,0,0,19.27,12.07c8.5,3.59,15.77,8.18,21.27,15.56,1.14,1.53,2.55,2.86,3.68,4.41,16,21.92,37.47,34,64.6,35.9,9,.61,16.78,3.55,22.74,10.52a9.5,9.5,0,0,1,1.61,3.32c.16.47-.33,1.15-.6,2-9.24-4.67-18.07-10.49-27.77-13.66-9.47-3.1-19.83-3.5-29.8-5.08l-.5,1.79c3.79,1.07,7.52,2.61,11.38,3.12,14.84,1.93,28.59,6.29,40.19,16.21,2,1.75,4.57,3,6.61,6.11-3,0-6,.11-8.94,0-12.11-.51-24.23-1-36.33-1.69-9.86-.59-19.71-1.43-29.55-2.35-13.07-1.23-24.32-7.19-35.25-13.93-13.56-8.36-27.29-16.47-40.65-25.15C941.82,396.19,915,398,887.78,411.74,886,412.66,884.15,413.6,882.34,414.53Z"/><path class="cls-1" d="M1183.4,337.16l-7.5-9.94L1186.83,315c6.75,8.48,13.37,15.83,18.84,23.95a167.07,167.07,0,0,1,15,26.53c3.8,8.78,5.69,18.38,8.42,27.62l2-.44c-.32-3.62-.63-7.25-1-11.3,6.41-4.12,13.07-5.88,21.05-2.49-2.15,12.9-4.2,25.56-11.49,36.85-7.46,11.56-19.64,16.56-30.62,23.24,21-4.18,35.22-16.3,41.54-36.88,2.78-9.06,4.43-18.47,6.5-27.32,6.18-3.31,9.86-.26,12.77,3.79s5.77,9,2.67,14.14c-7.28,12-14.29,24.22-22.76,35.33-9.17,12-23.59,15.66-37.48,19.47-4.47,1.23-9,2.12-13.46,4.62,1.63.14,3.36.71,4.88.35,8.65-2.06,17.39-3.87,25.82-6.64,13.22-4.34,23.2-13,30.45-24.9,5.28-8.7,10.85-17.23,16.75-26.55,3.07,1.51,6.08,2.53,8.54,4.3,5,3.6,5.86,7.4,3.89,13.33a32.06,32.06,0,0,1-11.62,15.89c-7,5.36-14.25,11-19.82,17.73-8.73,10.6-19.66,13.3-32.34,12.3-10.8-.84-21.59-1.89-32.39-2.76a54.79,54.79,0,0,0-6.39.32c1.21,1.31,1.69,2.35,2.34,2.47,16.31,3,32.65,5.29,49.33,3.55a28,28,0,0,0,18.36-9.14,162.21,162.21,0,0,1,26.3-23.51c5.36-3.75,8.51-10.68,13.56-17.38l9.14,3.39A53.87,53.87,0,0,1,1285.76,435c-4.59,2.71-8.56,6.51-12.61,10.05s-7.65,7.17-12.35,11.62c6.06-.71,9.44-3.68,13-6.91a88.9,88.9,0,0,1,14.13-11.14,65.69,65.69,0,0,0,16.95-15.22c4.84-5.91,10.59-5.47,14.93.55,2.9,4,2.34,8.64-1.64,11.75a53.22,53.22,0,0,1-6.45,4.09c-11.89,6.81-23.37,14.53-35.8,20.13-23,10.33-46.61,17.1-72,7.47-6.68-2.53-14.21-2.85-21.79-4.27,3.71-10.86.87-21.81-.5-32.8l-.21.13c3.22-1.05,7.26-1.24,9.47-3.35,3.43-3.26,5.77,1.39,8.1.2,11.63-5.88,23.51-11.57,29.27-24.2-.84-2.41-1.78-4.59-2.33-6.86-.58-2.44-.32-5.17-1.24-7.44C1216,367.54,1203.86,349,1183.4,337.16Zm54.18,46.42c2.09,11.93.93,17.52-6.62,26.5-3.26,3.87-7,7.36-10.43,11.05-1.3,1.39-2.5,2.88-3.75,4.32a42.32,42.32,0,0,0,13.64-8.95c5.29-5.07,9.61-10.93,11.62-18.19C1243.69,392.36,1242.49,387.32,1237.58,383.58Zm11.45,36.7,2.06.77c5-9.46,10.09-18.87,14.92-28.42,1.64-3.25,2.56-6.84-.36-9.27C1260,395.85,1254.52,408.07,1249,420.28Z"/><path class="cls-1" d="M1181.57,430.35c-1-1.18-2.09-2.29-3-3.55-7.75-10.89-18.29-15.36-31.49-13.69-2.19.27-4.35.72-7.08,1.18a38.86,38.86,0,0,0-19.86-16.68,15.14,15.14,0,0,1-4.68-3.24c-6.42-5.95-12.75-12-18.74-17.66,13.23-9.95,26.47-20.83,40.66-30.29,10.51-7,22.24-12.16,33.65-18.25,5.15,8.65,10,16.69,14.75,24.84,4.22,7.29,5.77,15.39,6.86,23.63.79,6,2.71,11.42,9.34,16.1-6-17.82-6.82-35.59-16.69-50.44,9.79,6.63,16.48,16.08,20.47,26.72,8.9,23.79,4.83,43.24-18.35,55.84-2.35,1.27-4.06,3.72-6.06,5.62Zm-4.19-31.27q-2.28-26-4.56-52.1C1169,357.89,1170.73,387.84,1177.38,399.08Z"/><path class="cls-1" d="M1125.88,56.92c-1.56,8.66-3.13,17.31-4.65,26a5.09,5.09,0,0,0,1.14,4.55c2.06-8.06,4.11-16.13,6.7-26.28l1,9.41,3.41-4.19.11.09q-1.26,10.71-2.53,21.43l1.73.39L1138.34,68c5.23,7.34-2.21,13.82-.14,20.34l17.19-41.2-1.11-.65-8.22,13.12c1.9-9.3,8.63-20.87,17.4-30.29,7,3.28,8.37,8,3.94,13.68s-9.17,11.43-13.37,17.41a24.48,24.48,0,0,0-3.77,10.2c7.38-8.2,11.73-18.73,21.22-25,5.37,7.78,5.15,8.79-.45,14.73-5,5.31-9.8,10.88-14.35,16.6-1.6,2-2.21,4.81-2.55,7.68,8.78-9.86,15.31-21.85,28.2-26.72,3.68,2.79,3.08,5.87,1.71,8.27-2.53,4.49-2,8.42,1.87,12.92-12,6.7-22,14.67-28.48,26.73-4.09-8.4-2.12-11.54,18.48-30.62-8.33-.3-14.68,5.75-25.8,24.76-10.4-6.89-21.88-9.43-35.2-7.35.93-7.85,2-15.27,2.62-22.73.58-7.31.77-14.65.88-22a179.25,179.25,0,0,0-.77-22.12l-2.35.08c-1,22-2,44.1-3.06,65.88l-31.38,16.34c-3.26-35-21.11-63.51-35.53-93.47,5.3,3,6.29,9.28,11.37,14.94-1.44-5.52-2.4-9.22-3.36-12.91,14.06,22.66,19.38,48.55,28.08,74.88,2.78-12.66-14.77-63.8-27.4-82.54-8.12-.7-16.26,5.07-26.55.52,5.39-1.72,9.56-2.66,13.4-4.36,12.29-5.44,25.66-2.32,38.3-5,2.54-.55,5.51.92,8.29,1.43,4.6.83,8.49,4.65,14.13,1.46,2.3-1.31,6.88,1.57,10.47,2.35,5.2,1.14,10.44,2.11,16.84,3.38,0,3,.39,6.62-.08,10.15-1.37,10.41-3.26,20.76-4.54,31.18-.27,2.23,1.17,4.67,1.82,7Zm-38,32.1c1.35-19.21-14.36-71.1-22.2-77.52Zm9.29-77.36c2.21,26.91,4.29,52.21,6.31,76.79C1108.4,77.67,1105.17,31.56,1097.21,11.66Zm-14-.61c2.26,11.42,4.55,22.83,6.78,34.26s1.29,23.42,5.84,34.47C1096.18,56.05,1093.58,32.83,1083.16,11.05Zm26.3,72c3.72-19.83.12-67-6.57-75.26C1105.15,33.64,1107.28,58.11,1109.46,83.06Zm-32.18-70.64-2,.66q6.23,22.8,12.46,45.59l2.2-.6A158.83,158.83,0,0,0,1077.28,12.42Zm46,.38-2.06.24c.34,8.31-1.18,16.74,2.06,24.86Z"/><path class="cls-1" d="M1270.71,546.69c3.88,7,7.73,15.11,12.6,22.51,3.52,5.36,4.23,10.56,2.24,16.25-2.92,8.4-5.59,16.94-9.34,25-10.85,23.19-19,47.1-22.85,72.53a82.16,82.16,0,0,1-12.31,33.55c-8.33,12.76-15,26.58-22.46,39.93-1.52,2.71-3.18,5.34-5.2,8.71A16.85,16.85,0,0,1,1211.3,749c5.31-14.67,4.27-29.69,2.24-44.4-2.44-17.77,2.08-33.35,10.65-48.33,5.84-10.22,12.26-20.13,17.68-30.57,8.51-16.4,15.93-33.28,18.26-51.89a10.86,10.86,0,0,1,.39-2.83C1264,562.69,1267.47,554.4,1270.71,546.69Zm-33.37,151.55,2.48.23c.7-4,1.08-8.16,2.15-12.09,6.32-23.28,12.85-46.5,19.2-69.76,1.81-6.62,3.27-13.34,4.89-20C1253.7,629.8,1239.69,662.52,1237.34,698.24Zm-9.66,29.13s1.26-61.15,1.29-62.19C1220.2,686.37,1224.81,707,1227.68,727.37Z"/><path class="cls-1" d="M1390.69,1414.52c8,6.3,8.17,6.85,5.67,12.83-5.65,13.51-17.33,18.38-30.48,19.67-23.16,2.27-43.52-4.34-59.65-21.79-6-6.52-11.83-13.26-18.7-21l7.39,3.33a58.56,58.56,0,0,0,1.42-5.93c2.55-19.39,13.06-34.17,27-47.05,3.23-3,6.06-3.13,9.1-.09,2,2,3.92,4.09,6.58,6.86-2.63,2.75-5,5.15-7.31,7.63-7.12,7.72-14.72,15.07-21.14,23.33-5.33,6.85-8,15.09-5.63,24.37,3.66-9.88,5.76-20.42,13.37-28.35,7.28-7.59,14.35-15.38,21.79-23.37l14.51,11.21c-6.62,2.85-11.87,5.42-17.34,7.4-12.1,4.38-19.36,13.15-22.88,25.1-1.19,4-1,8.45-1.41,12.69l2.39.43c.78-2.89,1.79-5.74,2.3-8.67,2.13-12.31,8.71-20.93,20.5-25.44,4.76-1.81,9.47-3.77,14.16-5.75,10.89-4.59,11.27-4.52,19.57,5.42-6.71,3.4-14,3.27-20.9,4.43-14.66,2.44-24.35,12.16-25.89,26.6-.38,3.6-1.1,7.57,3.33,12,.39-3.88.76-6.43.89-9,.72-14.71,7.91-22.9,22.38-25.26,8.09-1.33,16.2-2.56,25.93-4.09-3.82,5.29-.91,7.49,2,9.79,2.52,2,6.69,2.77,5.66,8.4l-14.58-11.88c1.23,6.74,6.26,10.12,10.54,14.11,4.87,4.53,4.86,4.54,3.58,11.37l-24.56-24.48-1.63,1.54a107.42,107.42,0,0,0,15.87,17.81,12,12,0,0,1,3.44,6.3c.38,1.85-2.39,3.26-6.81,4.28-.61-3.83-.47-8-2-11.42-2.23-5-10-9.47-21.52-13.58,2.73,2.68,3.93,4.22,5.45,5.29,3.12,2.2,6.48,4.06,9.61,6.24s5.22,5,4,8.93a9.59,9.59,0,0,1-8.19,7.1c-7.79,1-15.29.4-21.83-4.6a10.81,10.81,0,0,0-5.81-2.7c.73,1.66,1,3.84,2.24,4.9,8.13,6.93,17.6,8.6,27.75,5.85,3-.82,5.58-2.06,9-1.34,2.46.51,5.42-1,8-2,1.14-.39,2-2.11,3-2.21C1389.61,1429.07,1392.13,1423.84,1390.69,1414.52Z"/><path class="cls-1" d="M678.22,584.67,696,577c.88-1.92,2-4.48,3.36-7.4l16.56,9.65c-5.58,16.11-20.46,20.87-34.94,28.64,8.42.88,13.72-2.37,18.64-5.43a66.12,66.12,0,0,0,14.6-12.15c3.79-4.32,6.13-9.91,9.3-15.25,3.5,4,4.18,7.68,2.88,12-4.87,16.18-14.7,27.19-31.65,31a28.38,28.38,0,0,0-4.21,1.88c3.81,3.1,7,2.78,10.19,1.48,14.74-5.91,25.22-15.77,29.23-31.62.7-2.77,1.47-5.52,2.41-9,4.71,5.42,4.9,11.28,3.78,17.17-3.08,16.18-11.87,27.84-27.59,33.8a24.17,24.17,0,0,0-4.23,2.18c-.41.25-.47,1.07-.69,1.62,14.32-.71,32.4-10.08,38.18-40,3.62,3.23,4.62,7.13,3.5,11.17-2.36,8.57-4.41,17.38-8.1,25.39s-11.87,11.25-20.34,12.22a98.81,98.81,0,0,1-17.2,0,10.72,10.72,0,0,1-6-2.55c-3.59-3.2-6.86-6.63-12.07-7.18-1.05-.1-2.83-1.45-2.82-2.2.14-6.92-5.81-9-9.51-13s-6.16-9.43-9.45-14c-4.44-6.15-3.79-12.69-1.49-19.13,1.59-4.44,4.21-8.52,6.61-13.25C670.33,576.25,676.27,578,678.22,584.67Z"/><path class="cls-1" d="M1083.66,263.84l26.07-13.2c6.21,6.95,5.36,15.18,3.42,23.11-2.33,9.53-8.29,17.1-15.62,23.49-2.87,2.51-6,4.66-9.06,7-5.83,4.56-8.38,10.26-6,17.63.29.91.47,1.86.82,2.75,5.69,14.34,2.91,28-3.68,41.45-5.7,2-12,1-16.15-2.4-3.52-2.9-4.45-8.95-6.91-14.48-.74,3.16-1.33,5.74-2.26,9.75-9.5-12.5-13.55-25.54-14.36-41,10.72,2.11,16.58-3.23,21-11.89-5.22-2.93-5.81-8-6-13.57-.21-8-.6-15.91,2.7-23.17l26.11-5.66,11.22,8c-4.13,3.24-4.13,3.24-14,4.07l-3.65-8.3c-1.8,9-1.8,9,4.28,13l-4.2,1.8c12,4.21,22.53-3.9,23.39-15.64l5.29-.44c-3.14-3.26-5.85-7.06-10-2.09-.9,1.08-3.37,1.23-5.08,1.14A55,55,0,0,1,1083.66,263.84Zm-32.79,58.38c.38,8.26,2.57,11.22,8.82,10.55,5.44-.59,10.46-.59,15.54,1.45.57.22,1.81-1.21,3.66-2.55-5.09-1.3-7.65-5.7-13-3.83C1059.93,329.93,1054.17,329.49,1050.87,322.22Zm22.9,19.66c-6.65-4.83-15.27,2.41-19.76-7.67C1054.45,344.67,1058.79,346.1,1073.77,341.88Zm-7.69-28.73c5.05,1.88,7.16-1,8.18-4.93,1.34-5.19-1.94-9.31-8.57-11.33C1071.15,305.78,1071.15,305.78,1066.08,313.15Z"/><path class="cls-1" d="M1091.7,136.77c-4.65,4.27-9.26,8.59-14,12.78-.79.71-2.69,1.48-3,1.14-2.27-2.19-3.41-.24-4.6,1.07-18.88,21.05-30.8,44.94-29.23,74.31,1.27-3.57,2.72-7.09,3.78-10.72A161.67,161.67,0,0,1,1076.51,156c9.12-10.84,19-17.76,30.46-21.46-8,8.38-17.49,17-25.41,26.88-12.2,15.22-22.64,31.7-25.63,51.58a131.71,131.71,0,0,0-1.27,20.92,224.67,224.67,0,0,1-3.28,42.73c-1.71,9.49.08,19.59.26,29.42.11,6.78-.64,7.33-9.18,6.56-.12-2.38-.67-4.92-.29-7.3,2.18-13.88-2.13-26.29-7.58-38.75a121,121,0,0,1-8.06-25.26c-3-15.43.06-30.57,5.93-44.86C1043.88,168.67,1061.42,146.46,1091.7,136.77Z"/><path class="cls-1" d="M1431.3,605.36c9.76,7.77,12.25,18.32,14,29,.35,2.19-1.47,5.52-3.32,7.14-6.33,5.51-9.62,12.35-11.42,20.38a40,40,0,0,1-4.93,12.24c-5.37,8.63-9.15,17.43-7,27.87a6.66,6.66,0,0,1-.49,2.74c-.06.23-.4.4-1.23,1.19-14.23-8.24-24.13-20.19-28-36.31-5.21-21.83,2.42-39.3,21.49-51.52C1417.09,613.83,1423.94,609.84,1431.3,605.36Z"/><path class="cls-1" d="M1037.89,457.23a8.19,8.19,0,0,1,2.73-.76c9.18.85,18.34,1.79,28.59,2.82-5.76,6.19-10.84,11.6-15.86,17.08A155.19,155.19,0,0,0,1023,524.7c-6.41,16.3-15,30.87-28.93,42-10.52,8.4-15.09,20.26-17.76,33-.84,4-1.46,8.14-2.35,13.16-6.68-12-7.39-24-3.39-35.62a114.07,114.07,0,0,1,13.65-27.12c7.8-11.4,14.73-23,19.29-36.08,5.53-15.89,15.83-29,25.22-42.64,3.24-4.7,6.24-9.58,9.35-14.37Z"/><path class="cls-1" d="M940.76,893.13c-1.52-15.09,1.2-28.27,10.54-39.88,13.76-17.11,27.15-34.53,41.11-51.48,4.6-5.57,10.46-10.1,15.82-15.17l22,10.17c-7.25,10-13.85,19.64-21,28.86-12.45,16.11-25.15,32-37.92,47.88A111.35,111.35,0,0,1,959,886.79C954.26,891.06,948.75,894.34,940.76,893.13Z"/><path class="cls-1" d="M992.48,936.75c1.34-6,2.53-11.24,3.68-16.49a58.73,58.73,0,0,1,14.22-27.71c12.52-13.48,21.08-29.37,29.79-45.29,5.77-10.53,12.1-20.75,18.34-31.38,1.76,1.29,2.65,1.67,3.15,2.34,13.89,18.53,15.65,18.7-.11,39.19-9.07,11.79-16.29,23.84-20.3,38.29-4.18,15.07-14.09,26.93-25.85,37C1008.77,938.38,1004.89,938.75,992.48,936.75Z"/><path class="cls-1" d="M1057,1012.79c4.21,1.41,8.35,3.06,12.64,4.17,7.05,1.82,14.19,3.28,21.66,5,0-.24.33.46.13.79q-17.22,27-34.55,53.86c-6.6,10.24-14.09,19.7-24.46,26.49-6.69,4.39-10.2,5.78-18,6.72a77.21,77.21,0,0,1,7.71-34.88c6.92-14.65,14.89-28.81,22.75-43,3.7-6.67,8.22-12.89,12.36-19.32Z"/><path class="cls-1" d="M1035.57,797.93l21.21,14.15c-5.12,6.73-9.66,12.67-14.15,18.64-4,5.31-8.52,10.34-11.77,16.09a74.85,74.85,0,0,1-15.62,19c-9.2,8.27-18.07,16.95-26.61,25.9-7.42,7.78-15.59,14-26.16,16.6a40,40,0,0,1-5.46.6c-4.39-8.43-4.55-12.11,1.1-16,10-6.9,16.38-16.76,23.6-26,7.43-9.51,15.09-18.84,22.46-28.4,8.35-10.81,16.47-21.81,24.75-32.68C1030.81,803.33,1032.94,801,1035.57,797.93Z"/><path class="cls-1" d="M926.16,405.79c-2.35,2.54-3.57,4.33-5.21,5.57-30.53,23.13-49.09,54.54-61.77,89.86-3.85,10.71-6.33,21.92-9.52,32.87a66.07,66.07,0,0,1-3,8c-5,11.26-9.27,13-22.39,8.79a15,15,0,0,1,.34-3.37c7.83-23.85,15.61-47.71,23.61-71.5,3.14-9.33,6.21-18.76,10.32-27.68,10.66-23.14,29.53-35.76,54.11-40.55,2.18-.43,4.33-1,6.52-1.33C921,406.19,922.9,406.1,926.16,405.79ZM832.75,549.56c1.41-1.76,3.13-3.16,3.9-5,3.09-7.3,6.51-14.55,8.7-22.13,9.8-34,24.91-65.26,46.28-93.48,2.55-3.38,4.8-7,8-11.65-2.51.63-3.22.61-3.63,1a19.48,19.48,0,0,0-2.65,2.72c-19.56,24.61-35.21,51.43-45.44,81.22C842.58,517.73,837.88,533.45,832.75,549.56Z"/><path class="cls-1" d="M906.14,858.89c0-9.54,2.49-17.66,8.41-24a75.58,75.58,0,0,1,16.88-13.74c12.38-7.23,22.58-16.42,30.08-28.61a66.32,66.32,0,0,1,25.38-23.93c10.16,3.67,10.16,3.67,17.51,15.82-17.65,17.64-34.85,36-53.33,52.9C938.82,848.54,923.4,854.92,906.14,858.89Z"/><path class="cls-1" d="M990.84,364.4c7.65-10.75,15-18.09,28.82-15.51,2.37,4,5.34,8.44,7.8,13.18,8.71,16.84,22,27.55,40.51,32.29,9.53,2.44,18.77,6.07,28,9.46,10.16,3.73,18.16,10.51,24.75,18.95,1.81,2.33,4.69,4.86.78,8.86-11.17-9.82-24.87-14.23-39-18-5.34-1.43-10.12-5.14-15-8.13-3.4-2.1-6.46-4.73-10.12-6.47a51.72,51.72,0,0,0,28.61,20.28,181.91,181.91,0,0,1,22.3,8.25c3.33,1.46,6,4.32,8.67,7.32-10.29-6.62-21.91-7.14-33.39-8.84-12.78-1.9-24.57-7-34.19-15.89a175.91,175.91,0,0,1-16.25-17.5c-7.63-9.27-15.88-17.26-27.87-20.8C1000.6,370.42,996.38,367.3,990.84,364.4Z"/><path class="cls-1" d="M1087.71,876.62c-2,2.29-4.54,4.29-5.8,6.92-3,6.29-5.47,12.85-8,19.35A106.15,106.15,0,0,1,1047.36,942c-3.46,3.24-6.36,7.08-9.61,10.57-1.42,1.53-3.08,2.84-5.14,4.72-5.82-6.82-9.38-13.75-6.7-22a62,62,0,0,1,8.24-17c6.24-8.66,11.1-17.76,13.5-28.14a59.29,59.29,0,0,1,11.81-23.64c5.45-6.93,10.14-14.47,15.53-22.28.88,4.51,2,9.14,2.66,13.83,1.09,7.46,3.7,14,9.93,18.7Z"/><path class="cls-1" d="M1170.41,825.23l13.74-17.75c3.36,6.19,5.81,11.3,8.8,16.07,5.21,8.31,10.82,16.36,16.09,24.63a23.17,23.17,0,0,1,2.75,6.73c2,8,2.75,16.39,5.85,23.87,7.72,18.64.59,33.8-9.35,49.79-7.75-7-13.15-14.61-12.85-24,.69-21.19-6.24-39.95-15.69-58.27C1176.41,839.79,1173.81,832.94,1170.41,825.23Z"/><path class="cls-1" d="M1259.5,892.86a24.88,24.88,0,0,1-16.8-14.2c-2-4.31-4-8.65-6.22-12.87-3.47-6.64-8.14-12.36-15.18-15.28-10.38-4.29-16.65-12.45-21.63-21.88-4-7.58-7.69-15.33-11.76-23.5,4.37-6.91,11.79-9.8,19.12-13.84,1.71,2.88,3.49,5.43,4.82,8.2,9.21,19.13,20.89,36.56,37.24,50.23C1263.29,861.59,1263.6,876.1,1259.5,892.86Z"/><path class="cls-1" d="M1073.6,139.27c-3.8-9-7.35-17.4-11.39-27,11,1.3,20.5.68,29.11-4.91-6,7.43-13.5,10.43-23.51,7.33,5.09,5.69,8.93,6.94,14.18,4.67a37.49,37.49,0,0,0,8.2-4.86c7.93-6.29,16.93-9.77,26.78-11.82,15.5-3.22,29.13,1.92,38.59,14.46,4.88,6.46,11,12,11.56,20.83.2,3,.61,6.05,1.05,10.4C1138,123.64,1106.85,121,1073.6,139.27Z"/><path class="cls-1" d="M1227.26,788.18c-2.06-1.55-3.55-2.62-5-3.76-10.21-8.23-10.1-9.18-3.69-20.14,9.31-15.91,18.11-32.12,27.15-48.19,2-3.57,4.16-7.06,6.47-11l6,2.79c.19-1,.49-1.66.34-2.14s-.75-1-1.12-1.49c-4.93-6.84-4.15-13.65,1.94-17.07,6.77-3.8,14.46-1.52,17.84,5.3s.65,12.31-7.24,15.39c-.58.23-1.14.49-2,.85-3.57,14.45-10.21,27.7-18,40.52S1235,774.9,1227.26,788.18Z"/><path class="cls-1" d="M1311.22,1337.29l9.09,14c-13.8,13.33-25.11,28.77-28.06,50.49-8.21-10.61-15.49-19.92-27.15-23.25-1.94-15.81-3.82-31.08-5.81-47.24,2.63,1.89,5,3.31,7.08,5.13,14.05,12.52,26.17,13.8,42.14,2.49C1309.27,1338.38,1310.11,1338,1311.22,1337.29Z"/><path class="cls-1" d="M531.2,1290.31l98.17-157.63c3.8,8.67,3.09,17,.69,25.12-3.68,12.5-10.92,23.08-20,32.1-17,16.78-29.72,36.5-41.19,57.18a18.19,18.19,0,0,0-1.91,4.37C562.32,1270.3,550.24,1282.43,531.2,1290.31Z"/><path class="cls-1" d="M601.27,1460.93c-2.86-.13-5.85.2-8.54-.54a9.09,9.09,0,0,1-4.59-3.91c-3.72-6-7.12-12.21-11.32-18-1.83,6.64,4,10.09,5.72,15.32l-4.59,2.4,4.62,2.4c-3.17,3.51-6.83,2.13-9.69,2l-11.21-21.67c-3.28,6.37,1.46,10.16,3,15.08l-7.86,3.72,8.92,2.65c-.33.83-.42,1.73-.77,1.85-8.7,2.94-10.65,1.64-13.42-7.09-1.76-5.54-4.53-10.76-6.84-16.12l-2.26.7c.87,3.75,2.09,7.47,2.51,11.28.37,3.32-.16,6.74-.31,10.6-7.27,1.8-7.25,1.79-11.36-5.11-1.29-2.18-2.67-4.31-4.09-6.42a32.62,32.62,0,0,0-2.62-2.93c-.32,6.51,3.31,10.83,4.62,15.76-8.62,2.7-11,1.89-15.82-4.88a74.93,74.93,0,0,0-5.67-6.19c4.2-10.29,13.26-16.08,25-17.19,13.9-1.32,27.91-1.81,41.88-2,9.33-.11,17.88,1.79,24.45,10.13,7,8.87,7.63,9.18.09,18.35Z"/><path class="cls-1" d="M1437,567.59l4.79-6.74c0,3.88,0,7.06,0,10.23.29,15.76-6.26,27.59-20,35.52-5.78,3.34-11.39,7-16.94,10.69-21.14,14.19-26.78,40.13-16.61,62.63,2.2,4.88,5,9.5,7.81,14.93-15.2-8.31-22.57-22.17-22.36-39.41.22-18,8.06-32.44,20.09-45.08,2.86-3,5.81-5.92,8.78-8.81,11.78-11.42,22.72-23.37,25.72-41.22Z"/><path class="cls-1" d="M1250.52,1372.73c-1.94-3.18-4-6.33-5.81-9.57s-3.48-6.5-6-9.31c2.38,15.42,9.72,28.07,22.78,36.41,16.34,10.43,29.79,23.88,42.66,38.06,15.66,17.24,35.44,24.68,58.19,23.16,16.55-1.11,31-7.33,38.64-24.58,2.45,9.64-.8,16.44-7.53,22.23a29.76,29.76,0,0,1-17.42,7.16c-17.82,1.3-35.62,1.59-52.93-4.38-11.57-4-21.25-10.58-27.73-20.86-9.89-15.7-22.78-28-38.12-38.27-7.28-4.88-13.7-11.46-19.38-18.21-8.52-10.14-10.38-21.57-3-33.5,2.45-3.94,4.69-8,7.82-13.37,6.61,15.65,7,30.48,7.56,45.28Z"/><path class="cls-1" d="M1025.83,350.58c10.28-6.56,15.85-6,20,3.11,5.39,11.73,15.22,15.3,26.46,17.08,3.85.61,7.5.61,9.5,4.86a5.33,5.33,0,0,0,3.9,2.39c9.33.46,15.14,6.68,20.69,12.83,5,5.52,10.09,10.52,17.1,13.34,5.55,2.24,9.42,6.23,11.78,12.29l-8.53,7.49a11.77,11.77,0,0,1-2.42-2c-10.22-15.62-25.93-22.86-42.9-28.18-6.36-2-12.72-3.94-19.09-5.9-11.37-3.53-20.45-10.07-26.6-20.4C1032.52,362.06,1029.35,356.59,1025.83,350.58Z"/><path class="cls-1" d="M1425.81,724.81c.43-3.19.89-6.56,1.34-9.83,6.22-.84,3.64,6.19,7.33,7.38,2.27-5.9,2-7.53-4.55-11.6-4.53-2.8-6.37-6.33-7.59-11.28-1.42-5.74,0-10.56,2.11-15.65,3.39-8.19,6.45-16.53,9.68-24.79,3.68-9.44,8.73-17,20.63-16.28,3.65.23,7.37-.76,12.16-1.33-1.53,3.46-2.36,5.81-3.55,8a73.76,73.76,0,0,0-8.76,26c-.77,5.66-4,11.47-7.58,16.1a12.74,12.74,0,0,0-3,10.17,57.66,57.66,0,0,1-.64,16.86C1441.2,728.68,1435.59,730.55,1425.81,724.81Z"/><path class="cls-1" d="M601,1461.13l4.63-.87c2.55,16.19-.83,22.14-15.59,26.77-7,2.18-14,4.47-21.21,5.42-28.71,3.79-61.72-12.35-69.36-46.22-2.2-9.76-.36-18.89.9-29.94.82,10.43,1.46,19.25,2.22,28.06.72,8.29,4.7,15.1,10.13,21.14a17.83,17.83,0,0,0,5,4.32c9.38,4.57,18.87,9,28.38,13.27a39.79,39.79,0,0,0,29.76,1.59c6.64-2.18,13.39-4.13,19.81-6.83,4.57-1.92,8.94-4.72,9.17-11.35-24.38,17.31-48.82,22.43-75.16,3.18,8.19-2.46,15.9-3.87,23.86-2.65,4.76.73,9.25,1.73,13.67-1.4,1.26-.9,3.44-.5,5.21-.64,3.44-.26,6.89-.53,10.34-.71,2.44-.12,5-.6,7.3,0a10.27,10.27,0,0,0,11.15-3.33Z"/><path class="cls-1" d="M895.82,851.23c1-10.34,6.48-17.33,13-23.35,13.56-12.52,24.51-26.57,29.46-44.73,3.5-12.82,12-22.13,22.63-31.19l23.46,12.93C973.71,772,965.2,779,959.23,788.56c-2.17,3.49-4.9,6.65-7.2,10.07-4.55,6.77-10.72,11.68-17.72,15.62-12.07,6.79-23,14.59-29.38,27.62C903.1,845.59,898.92,848.14,895.82,851.23Z"/><path class="cls-1" d="M1218.78,477l22.4-1c16,17.61,27.73,61.1,21.43,82.21-9.75-17.33-25.4-29.68-29.88-49.71-2.16-9.66-8.25-18.43-12.53-27.62C1219.69,479.73,1219.35,478.55,1218.78,477Z"/><path class="cls-1" d="M1169.06,106.33c8.33-4,11.18-13.76,22.42-12.48l-16.17,14.28,1.23,1.65,6.45-4.3c.16.52.59,1.2.41,1.43-1.47,2-3.05,3.92-3.51,7.32l11.23-8.49c4.89,3.76,3.35,8.73,3.62,13.29.32,5.31-2.49,8.06-6.89,10.21a11.34,11.34,0,0,0-5.59,6.52c2.1-.83,4.21-1.66,6.3-2.51,2.26-.92,4.5-1.86,6.82-2.83,1.53,3.19,1.84,5.54-1.75,6.4-3.35.8-6.83,1.24-9.22,5.9l8.94-1.19c3.7,6.59,3.7,6.59-9.55,12.39,4.73.33,7.58.55,10.43.73,4.1.27,4.54,2.72,3.59,6.15-4.31,3.58-11.52-1.83-15.32,4.27,2.78,4.66,13-3.54,11.66,7.84l-11.31.74c-3-6.06-6-12.17-9.61-19.41l22.47-8c-8.86-3.3-14.77,2-22.18,1.53-1.07-4.3-2.17-8.75-3.58-14.47l18.8-12.72c-8.58.93-13.32,5.35-18.62,8.87-3.06-6.22-6.24-11.71-8.39-17.57-.81-2.21.17-5.61,1.37-7.93,4.91-9.43,13.53-14.9,22.3-20.39,2.72,3.21.67,4.73-1.4,6.27C1178.4,94,1172.86,98.25,1169.06,106.33Z"/><path class="cls-1" d="M500.78,1395.23c-1.13-4.79-2-8.56-3.41-14.43-4.42,12.26,3.54,20.75,3.19,30.33-3.6-3.34-7.45-10.9-8.41-16.65-1.82-10.88,0-20.93,7.17-29.63,5.45-6.63,11-13.16,16.15-19.27,8.29.3,16.14,1.06,23.95.77,12.87-.47,23.14,3.29,29.33,15.86a6.65,6.65,0,0,1-2.42,0c-17.62-8.37-33-3-46.54,8.7-6.12,5.27-10.45,12.63-15.54,19.08C503.15,1391.35,502.28,1392.93,500.78,1395.23Z"/><path class="cls-1" d="M1077.7,108.19H1066c-2.44-20.66-13.66-37.3-23.75-54.58-6.23-10.67-11.07-22.15-16.41-33.33-.76-1.61-.79-3.57-1.34-6.31,2.13,1.11,3.58,2.55,4.65,2.31C1039.26,14,1043.44,20.46,1047,28c7.35,15.53,15.45,30.75,21.86,46.67C1073,84.9,1074.62,96.11,1077.7,108.19Z"/><path class="cls-1" d="M1459.27,759.29c25.3-3.48,41.06-12.18,43.32-24.59a22.1,22.1,0,0,0-3.19,2.3c-8.58,9.28-19.62,14-31.62,16.56-9.41,2-17-1.08-21.75-9.78-2.41-4.43-6.63-8.42-4.5-14.53,23.08,11.1,41.65,1.35,60.84-11,.84,6.59,1.85,13.56,2.56,20.57.43,4.26-1.88,7.23-5.43,9.36-7.64,4.57-15.2,9.29-22.92,13.72C1469.17,766.09,1464.79,765.31,1459.27,759.29Z"/><path class="cls-1" d="M1140.75,877.86l10-1.45c1.12,4.6,2.18,8.84,3.2,13.09,2.75,11.41,5.2,22.9,8.31,34.21,2.57,9.34,4,18.54,1.94,28.21-.93,4.36-2.49,7.81-6.86,10.17-8.16-4.87-16.08-10.26-17.18-21a41.52,41.52,0,0,1,1.07-13.07c3-13.12,5.63-26.19,2.22-39.64C1142.62,885.08,1141.75,881.74,1140.75,877.86Z"/><path class="cls-1" d="M490.25,1198.57c-1.8-15.46,3.61-29.41,10.85-43.8,7.59,2.56,15.11,4.8,22.38,7.69a19.72,19.72,0,0,1,7.43,5.65c4.67,5.57,3.87,12.44-2.06,16.63a43.28,43.28,0,0,1-11.08,5.34C508.82,1193.09,499.73,1195.67,490.25,1198.57Z"/><path class="cls-1" d="M1038.05,457c-2.78,2.48-6.12,4.56-8.24,7.52-10.2,14.2-20.07,28.65-29.4,42,.59-6.45,3.08-14,6.23-21.41,3.23-7.61,6.26-15.32,9.18-23.05.56-1.5.24-3.34.32-5.11-1.09.15-1.62.11-1.68.26-5.63,13.45-11.53,26.81-16.62,40.47-1.48,4-1.07,8.87-.74,13.28.44,6-.51,11.36-4.3,16.86-.52-3.37-.11-6.8-1.56-9-6.32-9.69-2.93-17.48,3.1-25.81,5.87-8.13,7.69-18.06,9.27-27.87,1.16-7.19,2.45-14.36,3.72-21.77l30.56,13.81Z"/><path class="cls-1" d="M1460.52,675.92c8.21,8.74,8.92,8.9,20.13,4.2a44.28,44.28,0,0,1,5.28-2.15c7-1.9,10,.06,11.21,7.28.52,3.11,1,6.23,1.56,10.18-11,4-22.09,8.38-33.43,12.05a12.33,12.33,0,0,1-13.14-3.37c-4.82-4.88-4.81-5.88-.77-11.9C1454.84,687,1457.54,681.29,1460.52,675.92Z"/><path class="cls-1" d="M1151.92,415.92c11,1.1,19.73,4.64,24.32,15,5.08,11.48,4.31,22.61-4.23,32.07-6.22,6.9-14.65,8.59-23.69,6.61-10.18-2.23-17.48-8-19.89-18.33a78.87,78.87,0,0,1-1.72-18.92c.1-5.61,4.54-9.2,9.1-11.35C1140.86,418.62,1146.52,417.56,1151.92,415.92Zm-16.19,30.13-.22-.19c1.31.11,3.07.83,3.84.24,3-2.3,5.67-5.11,8.61-7.54,6.43-5.32,8.74-5.09,14.33,1.07,2.63,2.9,5.3,5.76,8.63,9.39,1.54-3.06,2.83-4.61,3.09-6.31,1.65-10.95-8.93-22.86-20.3-23.07C1138.12,419.36,1128.65,433.26,1135.73,446.05Zm18.3,20.89c6.34.57,10.24-.36,12.82-4.29,2.72-4.16,1.19-7.89-1.38-11.45a62.53,62.53,0,0,0-4.54-6.12c-5-5.41-8.23-5.95-14-1.52-3.9,3-10,5.63-9.32,11.16.77,6.56,6.93,9.41,12.8,11.46A16.16,16.16,0,0,0,1154,466.94Z"/><path class="cls-1" d="M1481.75,616.71c.44,2.39,1.77,5.44,1,6.13-5.64,5-1.13,9.24,1.46,12.34,6.76,8.08,6.57,16.15,1.52,24.48-3.94,6.48-8.54,12.56-13,19-7.22.81-8.45-6.48-14.15-9.26,3.44-7.43,6.22-14.11,9.58-20.48,3.45-6.52,6.46-13,6.89-20.56C1475.31,624.07,1476.15,619.46,1481.75,616.71Z"/><path class="cls-1" d="M1447.61,727.72c.77-7,1.45-13.15,2.25-20.48,6.86,6,13.59,5.93,20.82,3.18,8.86-3.38,17.88-6.33,26.63-9.39,3.39,2.06,4,4.83,2.41,7.53-2.33,4-4.42,9-8,11.33-10.52,6.9-22.81,9.09-35.19,10.1C1454.14,730.18,1451.66,728.81,1447.61,727.72Z"/><path class="cls-1" d="M1143.29,336.5c-12.36,9.45-24.52,19.19-37.19,28.21-5.82,4.14-12.65,6.85-20.19,10.83-.71-3.58-1.39-5.56-1.41-7.54a11.9,11.9,0,0,1,1.29-4.57c6.1-14.09,6.67-28.21.93-42.61-2.16-5.42,0-9.83,4.51-13.34,4-3.11,8-6.3,11.75-9.77q19.73-18.39,15-45a31.2,31.2,0,0,1-2.73,40.2,139.12,139.12,0,0,1-15.5,14c-9.86,7.45-10.6,8.3-7.26,19.64,3.14,10.64,4,21.16.14,31.77a13.6,13.6,0,0,0-.95,3.67c-.27,4,2.22,6.22,5.9,4.83a32.2,32.2,0,0,0,7.4-4.27c7.94-5.83,15.62-12,23.68-17.65C1133.24,341.69,1138.39,339.27,1143.29,336.5Z"/><path class="cls-1" d="M508.05,1446.15c-4.07-4-.81-6.62,1.42-9a56.66,56.66,0,0,1,31-17.76c9.54-1.86,19.58-1.41,29.41-1.53,4.74-.06,9.5,1,14.26,1.39,8.26.67,9.42,1.88,10.39,12.13-2.21-.45-4.17-1-6.17-1.21-6.93-.8-13.88-2.18-20.81-2.08a313.51,313.51,0,0,0-32.41,2.23C524,1431.61,514.89,1437.05,508.05,1446.15Z"/><path class="cls-1" d="M505.85,1428.45c-2.1-7.25.8-13.55,6.52-19.51,15.2-15.85,33.83-20.43,54.91-17.73,1.25.16,2.49.88,3.71.82,6.33-.32,9.31,3,10,9.29-8.36,0-16.75-.23-25.12.06-12.25.41-24.31,2.46-34.06,10.43C515.8,1416.74,510.92,1423.09,505.85,1428.45Z"/><path class="cls-1" d="M1040,794c23.41,9.75,40.1,25.86,46.45,50.93,5.93,23.37,12.87,22.77,29.75,23.77,4.14.24,8.28.54,12.43.68,9.74.32,9.74.29,18-6.5-.26,3.28-.46,5.89-.67,8.46-1.34.51-2.19,1.1-3.06,1.11-14.66.29-29.33.69-44,.67-10,0-14.48-4-16.53-13.68a83.73,83.73,0,0,1-1.46-8.47c-2.43-23.65-16.73-39.22-35.24-51.94-2.09-1.44-4.15-2.92-6.22-4.38Z"/><path class="cls-1" d="M860.85,507c8.79-27.08,22.1-51.37,40.34-72-1.15,7.74-2.23,16-3.7,24.21a17,17,0,0,1-3.07,7.62C883.37,480.41,872.07,493.69,860.85,507Z"/><path class="cls-1" d="M503.94,1402.77c-.11-.71-.63-1.77-.34-2.5,7.92-19.68,20.47-34,42.72-37.58,8.43-1.36,15.68,1.6,22.8,5,3.59,1.69,5.07,5.34,4.26,10.41a44.32,44.32,0,0,1-6.1-2.13c-16.13-8.6-30.76-5.4-43.75,6.25C516.52,1388.49,510.46,1395.86,503.94,1402.77Z"/><path class="cls-1" d="M1219.38,801.19a30.45,30.45,0,0,1,3.44,2.94c12.87,14.66,27.82,27,43.24,38.79,4.29,3.29,8.24,6.92,8.8,13C1255.34,853.43,1228.21,827.38,1219.38,801.19Z"/><path class="cls-1" d="M571.7,1386.91c-32.15-1.9-45.05,1.51-66.81,23.27,2.44-3.84,4.6-7.91,7.38-11.48,8.12-10.41,17.18-19.59,30.79-22.72,10.05-2.31,18.76.87,27.08,6a5,5,0,0,1,1.52,2.32A9.43,9.43,0,0,1,571.7,1386.91Z"/><path class="cls-1" d="M584.56,1415.16c-26.66-4.71-51-3.33-72.58,14.66,3.56-8.29,7.87-13.57,15.89-17.37,6-2.83,12.42-5.33,18.9-6.15,9.11-1.15,18.44-.7,27.68-.74C579.52,1405.53,582.65,1408.24,584.56,1415.16Z"/><path class="cls-1" d="M1248.34,807.45l-15.89-19,15.16-24.84c1,15.09,2,29,2.9,43Z"/><path class="cls-1" d="M1252,826.1c-18.75-14.6-34.91-32.77-37-41.48,13.36,9.21,26.63,18.5,35.65,32.43C1252.22,819.48,1255.34,821.82,1252,826.1Z"/><path class="cls-1" d="M1133.51,66.38c2.47-17.23,9.23-32.79,18.53-49.11l8.07,8.2-16,25.62c-.57-1.21-1.09-2.3-2.41-5.05l-8.06,20.43Z"/><path class="cls-1" d="M1250.32,1373c4.81-1.19,4.4-5.28,3.92-8.47-1.68-11.22-3.78-22.37-6-33.5-.53-2.7-2-5.22-2.06-8.71,1.4,1.3,3.41,2.34,4.08,3.94,2.41,5.79,5.49,11.61,6.25,17.68,1.52,12.08,5.59,24.26.77,37.09-3.51-2-6.25-4.15-6.8-8.28Z"/><path class="cls-1" d="M1126.09,57.09c1.52-9,3.17-18,4.52-27.07.92-6.19,1.44-12.44,2.23-19.5l13.65,6.33-5.8,13.21-3.09-2-11.72,28.83Z"/><path class="cls-1" d="M1124.62,456c12.66,19.24,26.88,23.22,47.93,13.33-8.18,7.86-17.33,12.42-29.28,9.11C1131.74,475.24,1126.55,467,1124.62,456Z"/><path class="cls-1" d="M1283.07,1400.82l-23.42-17.13C1268.07,1381.58,1277,1387.94,1283.07,1400.82Z"/><path class="cls-1" d="M1492.52,659.81c.48,5,.74,7.7,1,10.73l-14.68,5Z"/><path class="cls-1" d="M1436.83,552l-8.4-2.66c.76-3,1.41-5.61,2.07-8.21l2-.51,5.83,9.58Z"/><path class="cls-1" d="M1211.61,373.39c15.94,18.34,11.7,41.71-13.18,49.29C1213.69,408.73,1217,392.85,1211.61,373.39Z"/><path class="cls-1" d="M1359.34,1122.74l28.09-20.71c-6.83,17.92-14,36.81-21.12,55.4C1364,1146,1361.65,1134.26,1359.34,1122.74Z"/><path class="cls-1" d="M1135.73,446.05c0-2.21-.25-4.44-.11-6.65.6-9.36,7.09-15,17.21-15.11,9.27-.09,15.78,5.46,16.82,14.42,0,.49-.47,1-1.88,3.93-2.53-3.52-4.2-6.72-6.66-9.08-4.41-4.22-6.9-4.43-11.68-.61-4.93,3.94-9.3,8.58-13.92,12.91Z"/><path class="cls-1" d="M1141.14,454.74a43.78,43.78,0,0,1,3-3.88c8.39-8.64,13.47-6.51,18.95,4.74,1.91,3.93,0,6.68-4.59,7C1151.57,463,1145.71,460.79,1141.14,454.74Z"/><path class="cls-3" d="M40.66,65.24c5.48,2.6,10.69,5.69,15.94,8.71l7.76,4.7,7.69,4.83c10.21,6.5,20.19,13.35,30,20.39,4.91,3.53,9.76,7.16,14.59,10.81l7.16,5.6c2.37,1.88,4.7,3.82,7,5.74,4.64,3.89,9.22,7.87,13.61,12,2.24,2,4.32,4.26,6.44,6.43.52.55,1.06,1.08,1.56,1.64l1.48,1.73,2.93,3.47-3.26-3.16L152,146.6c-.54-.52-1.12-1-1.69-1.51-2.28-2-4.46-4.05-6.83-5.92-4.6-3.9-9.35-7.61-14.1-11.32l-7.18-5.5L115,117c-4.86-3.57-9.7-7.17-14.63-10.65s-9.82-7-14.74-10.5l-7.41-5.21-7.43-5.17C60.8,78.59,50.9,71.68,40.66,65.24Z"/></g></g></svg>